{"glyphs":{"0":{"ha":944,"x_min":21,"x_max":957,"o":"m 390 -14 q 113 66 204 -14 q 21 300 21 146 q 38 447 21 368 q 133 703 71 603 q 305 856 194 804 q 588 908 415 908 q 865 828 772 908 q 957 590 957 747 q 940 447 957 525 q 843 191 907 292 q 669 38 779 90 q 390 -14 558 -14 m 451 272 q 544 315 510 272 q 597 447 578 357 q 608 532 608 500 q 589 600 608 578 q 526 622 569 622 q 434 580 468 622 q 381 447 400 538 q 369 363 369 394 q 389 294 369 317 q 451 272 408 272 z "},"1":{"ha":557,"x_min":61,"x_max":624,"o":"m 218 582 l 61 560 l 121 839 l 624 908 l 431 0 l 94 0 l 218 582 z "},"2":{"ha":743,"x_min":-57,"x_max":775,"o":"m -26 149 q 88 267 28 213 q 228 379 147 321 q 369 490 333 457 q 413 557 406 522 q 414 572 414 563 q 331 622 414 622 q 90 572 219 622 l 150 851 q 305 893 218 878 q 481 908 392 908 q 697 847 619 908 q 775 681 775 785 q 768 617 775 654 q 710 479 750 533 q 583 360 671 425 q 525 317 575 353 q 451 256 475 281 l 699 256 l 644 0 l -57 0 l -26 149 z "},"3":{"ha":764,"x_min":-49,"x_max":792,"o":"m 258 -14 q 99 2 194 -14 q -49 40 3 18 l 6 294 q 126 253 57 267 q 257 239 196 239 q 348 251 318 239 q 385 296 378 263 q 372 331 389 318 q 314 343 356 343 l 150 343 l 217 556 l 351 556 q 410 567 392 556 q 435 607 429 579 q 416 642 440 629 q 335 656 392 656 q 202 640 271 656 q 82 600 133 625 l 136 853 q 288 893 201 878 q 456 908 374 908 q 708 851 624 908 q 792 696 792 793 q 785 640 792 672 q 674 449 761 524 q 729 331 729 410 q 722 271 729 308 q 258 -14 661 -14 z "},"4":{"ha":776,"x_min":-54,"x_max":819,"o":"m 325 150 l -54 150 l -8 363 l 532 894 l 819 894 l 719 419 l 794 419 l 736 150 l 661 150 l 631 0 l 294 0 l 325 150 m 443 406 l 469 535 l 325 406 l 443 406 z "},"5":{"ha":743,"x_min":-46,"x_max":782,"o":"m 247 -14 q 93 -1 179 -14 q -46 39 7 13 l 10 294 q 125 257 50 272 q 246 242 200 242 q 338 262 310 242 q 367 322 367 282 q 350 353 367 343 q 296 363 333 363 l 19 363 l 47 494 l 156 894 l 782 894 l 707 639 l 390 639 l 375 582 l 443 582 q 642 526 569 582 q 714 365 714 469 q 706 293 714 333 q 570 66 675 146 q 247 -14 465 -14 z "},"6":{"ha":839,"x_min":10,"x_max":833,"o":"m 340 -14 q 95 62 181 -14 q 10 268 10 138 q 19 360 10 315 l 51 513 q 219 801 90 694 q 586 908 349 908 q 724 899 667 908 q 833 867 782 889 l 782 624 q 685 656 736 646 q 572 667 635 667 q 440 641 493 667 q 379 585 386 615 l 378 576 q 456 601 407 592 q 546 611 504 611 q 747 556 678 611 q 815 396 815 501 q 806 311 815 354 q 664 73 774 160 q 340 -14 554 -14 m 393 217 q 467 237 440 217 q 504 299 494 257 q 507 326 507 318 q 489 368 507 354 q 431 382 471 382 q 331 357 388 382 l 321 313 q 317 278 317 294 q 335 231 317 246 q 393 217 354 217 z "},"7":{"ha":700,"x_min":-36,"x_max":804,"o":"m 369 639 l 64 639 l 118 894 l 804 894 l 765 710 l 314 0 l -36 0 l 369 639 z "},"8":{"ha":872,"x_min":-8,"x_max":892,"o":"m 353 -14 q -8 204 -8 -14 q 0 272 -8 238 q 49 381 13 328 q 131 464 85 435 q 92 581 92 511 q 96 624 92 601 q 230 836 126 764 q 550 908 333 908 q 807 851 722 908 q 892 690 892 794 q 885 624 892 653 q 847 534 875 579 q 782 460 819 489 q 836 325 836 408 q 831 272 836 296 q 758 111 810 174 q 609 17 707 49 q 353 -14 511 -14 m 504 546 q 546 574 532 557 q 565 617 560 590 q 567 631 567 622 q 500 678 567 678 q 413 617 425 678 q 411 599 411 611 q 419 572 411 583 q 443 558 428 561 l 504 546 m 403 217 q 488 238 460 217 q 515 296 515 260 q 465 343 515 332 l 389 360 q 322 290 333 344 q 319 271 319 276 q 403 217 319 217 z "},"9":{"ha":839,"x_min":40,"x_max":867,"o":"m 286 -14 q 146 -6 201 -14 q 40 24 90 1 l 92 267 q 186 236 138 244 q 300 228 235 228 q 435 253 385 228 q 493 310 486 279 l 494 318 q 417 293 465 303 q 326 283 368 283 q 129 340 200 283 q 58 504 58 397 q 67 583 58 542 q 208 822 99 736 q 532 908 317 908 q 785 844 704 908 q 867 654 867 781 q 853 535 867 596 l 821 382 q 649 90 781 193 q 286 -14 517 -14 m 442 513 q 542 538 482 513 l 551 582 q 556 618 556 603 q 538 664 556 650 q 479 678 519 678 q 368 596 385 678 q 364 567 364 579 q 442 513 364 513 z "},"\r":{"ha":556,"x_min":0,"x_max":0,"o":""}," ":{"ha":417,"x_min":0,"x_max":0,"o":""},"A":{"ha":1079,"x_min":-57,"x_max":981,"o":"m 476 894 l 825 894 l 981 0 l 647 0 l 618 167 l 401 167 l 303 0 l -57 0 l 476 894 m 622 396 l 590 567 l 486 396 l 622 396 z "},"Á":{"ha":1079,"x_min":-57,"x_max":994,"o":"m 736 1269 l 994 1269 l 782 956 l 536 956 l 736 1269 m 476 894 l 825 894 l 981 0 l 647 0 l 618 167 l 401 167 l 303 0 l -57 0 l 476 894 m 622 396 l 590 567 l 486 396 l 622 396 z "},"Ă":{"ha":1079,"x_min":-57,"x_max":1035,"o":"m 663 956 q 480 1013 546 956 q 414 1175 414 1069 q 424 1261 414 1218 l 628 1261 q 622 1215 622 1240 q 692 1139 622 1139 q 769 1173 740 1139 q 810 1261 797 1207 l 1035 1261 q 903 1035 1003 1114 q 663 956 804 956 m 476 894 l 825 894 l 981 0 l 647 0 l 618 167 l 401 167 l 303 0 l -57 0 l 476 894 m 622 396 l 590 567 l 486 396 l 622 396 z "},"Ắ":{"ha":1079,"x_min":-57,"x_max":1001,"o":"m 786 1482 l 1001 1482 l 838 1243 l 632 1243 l 786 1482 m 665 956 q 500 1004 563 956 q 438 1146 438 1053 q 446 1217 438 1179 l 622 1217 q 617 1181 617 1189 q 689 1118 617 1118 q 765 1144 739 1118 q 801 1217 790 1171 l 997 1217 q 883 1021 969 1086 q 665 956 796 956 m 476 894 l 825 894 l 981 0 l 647 0 l 618 167 l 401 167 l 303 0 l -57 0 l 476 894 m 622 396 l 590 567 l 486 396 l 622 396 z "},"Ặ":{"ha":1079,"x_min":-57,"x_max":1035,"o":"m 663 956 q 480 1013 546 956 q 414 1175 414 1069 q 424 1261 414 1218 l 628 1261 q 622 1215 622 1240 q 692 1139 622 1139 q 769 1173 740 1139 q 810 1261 797 1207 l 1035 1261 q 903 1035 1003 1114 q 663 956 804 956 m 476 894 l 825 894 l 981 0 l 647 0 l 618 167 l 401 167 l 303 0 l -57 0 l 476 894 m 622 396 l 590 567 l 486 396 l 622 396 m 332 -100 l 549 -100 l 507 -296 l 290 -296 l 332 -100 z "},"Ằ":{"ha":1079,"x_min":-57,"x_max":997,"o":"m 551 1482 l 768 1482 l 822 1243 l 617 1243 l 551 1482 m 665 956 q 500 1004 563 956 q 438 1146 438 1053 q 446 1217 438 1179 l 622 1217 q 617 1181 617 1189 q 689 1118 617 1118 q 765 1144 739 1118 q 801 1217 790 1171 l 997 1217 q 883 1021 969 1086 q 665 956 796 956 m 476 894 l 825 894 l 981 0 l 647 0 l 618 167 l 401 167 l 303 0 l -57 0 l 476 894 m 622 396 l 590 567 l 486 396 l 622 396 z "},"Ẳ":{"ha":1079,"x_min":-57,"x_max":997,"o":"m 635 1332 q 721 1348 693 1333 q 749 1386 749 1363 q 735 1407 749 1401 q 694 1413 722 1413 q 624 1397 667 1413 l 649 1511 q 725 1524 679 1518 q 813 1529 771 1529 q 928 1500 888 1529 q 968 1425 968 1471 q 965 1401 968 1418 q 926 1326 954 1353 q 843 1282 899 1299 l 835 1244 l 617 1244 l 635 1332 m 665 956 q 500 1004 563 956 q 438 1146 438 1053 q 446 1217 438 1179 l 622 1217 q 617 1181 617 1189 q 689 1118 617 1118 q 765 1144 739 1118 q 801 1217 790 1171 l 997 1217 q 883 1021 969 1086 q 665 956 796 956 m 476 894 l 825 894 l 981 0 l 647 0 l 618 167 l 401 167 l 303 0 l -57 0 l 476 894 m 622 396 l 590 567 l 486 396 l 622 396 z "},"Ẵ":{"ha":1079,"x_min":-57,"x_max":1042,"o":"m 871 1251 q 808 1259 839 1251 q 735 1282 776 1267 q 668 1303 693 1296 q 617 1310 643 1310 q 467 1256 531 1310 l 503 1429 q 569 1462 529 1449 q 647 1475 608 1475 q 710 1467 681 1475 q 779 1444 740 1460 q 845 1424 818 1431 q 901 1417 872 1417 q 983 1432 946 1417 q 1042 1471 1021 1447 l 1006 1297 q 950 1265 989 1279 q 871 1251 911 1251 m 665 956 q 500 1004 563 956 q 438 1146 438 1053 q 446 1217 438 1179 l 622 1217 q 617 1181 617 1189 q 689 1118 617 1118 q 765 1144 739 1118 q 801 1217 790 1171 l 997 1217 q 883 1021 969 1086 q 665 956 796 956 m 476 894 l 825 894 l 981 0 l 647 0 l 618 167 l 401 167 l 303 0 l -57 0 l 476 894 m 622 396 l 590 567 l 486 396 l 622 396 z "},"Ǎ":{"ha":1079,"x_min":-57,"x_max":1068,"o":"m 388 1256 l 617 1256 l 688 1107 l 825 1256 l 1068 1256 l 761 956 l 567 956 l 388 1256 m 476 894 l 825 894 l 981 0 l 647 0 l 618 167 l 401 167 l 303 0 l -57 0 l 476 894 m 622 396 l 590 567 l 486 396 l 622 396 z "},"Â":{"ha":1079,"x_min":-57,"x_max":1004,"o":"m 629 1256 l 825 1256 l 1004 956 l 781 956 l 706 1104 l 574 956 l 324 956 l 629 1256 m 476 894 l 825 894 l 981 0 l 647 0 l 618 167 l 401 167 l 303 0 l -57 0 l 476 894 m 622 396 l 590 567 l 486 396 l 622 396 z "},"Ấ":{"ha":1079,"x_min":-57,"x_max":1292,"o":"m 1047 1378 l 1292 1378 l 1125 1139 l 893 1139 l 1047 1378 m 583 1189 l 826 1189 l 994 956 l 743 956 l 688 1061 l 592 956 l 314 956 l 583 1189 m 476 894 l 825 894 l 981 0 l 647 0 l 618 167 l 401 167 l 303 0 l -57 0 l 476 894 m 622 396 l 590 567 l 486 396 l 622 396 z "},"Ậ":{"ha":1089,"x_min":-47,"x_max":1015,"o":"m 640 1256 l 836 1256 l 1015 956 l 792 956 l 717 1104 l 585 956 l 335 956 l 640 1256 m 486 894 l 835 894 l 990 0 l 657 0 l 628 167 l 411 167 l 313 0 l -47 0 l 486 894 m 632 396 l 600 567 l 496 396 l 632 396 m 342 -100 l 558 -100 l 517 -296 l 300 -296 l 342 -100 z "},"Ầ":{"ha":1079,"x_min":-57,"x_max":1006,"o":"m 208 1378 l 453 1378 l 506 1139 l 272 1139 l 208 1378 m 594 1189 l 838 1189 l 1006 956 l 749 956 l 697 1061 l 597 956 l 325 956 l 594 1189 m 476 894 l 825 894 l 981 0 l 647 0 l 618 167 l 401 167 l 303 0 l -57 0 l 476 894 m 622 396 l 590 567 l 486 396 l 622 396 z "},"Ẩ":{"ha":1079,"x_min":-57,"x_max":1260,"o":"m 931 1218 q 1005 1229 985 1219 q 1025 1254 1025 1239 q 1015 1267 1025 1264 q 982 1271 1004 1271 q 914 1257 953 1271 l 942 1385 q 1104 1401 1006 1401 q 1219 1372 1179 1401 q 1260 1296 1260 1343 q 1257 1274 1260 1288 q 1215 1192 1246 1224 q 1133 1150 1183 1160 l 1124 1107 l 907 1107 l 931 1218 m 589 1189 l 832 1189 l 1000 956 l 749 956 l 693 1061 l 597 956 l 319 956 l 589 1189 m 476 894 l 825 894 l 981 0 l 647 0 l 618 167 l 401 167 l 303 0 l -57 0 l 476 894 m 622 396 l 590 567 l 486 396 l 622 396 z "},"Ẫ":{"ha":1079,"x_min":-57,"x_max":1043,"o":"m 868 1210 q 805 1217 836 1210 q 732 1240 774 1225 q 665 1261 690 1254 q 614 1268 640 1268 q 464 1214 528 1268 l 503 1401 q 569 1434 529 1421 q 647 1447 608 1447 q 710 1440 681 1447 q 779 1417 740 1432 q 845 1396 818 1403 q 901 1389 872 1389 q 983 1404 944 1389 q 1043 1443 1021 1419 l 1003 1256 q 947 1224 985 1238 q 868 1210 908 1210 m 593 1189 l 836 1189 l 1004 956 l 753 956 l 697 1061 l 601 956 l 324 956 l 593 1189 m 476 894 l 825 894 l 981 0 l 647 0 l 618 167 l 401 167 l 303 0 l -57 0 l 476 894 m 622 396 l 590 567 l 486 396 l 622 396 z "},"Ä":{"ha":1079,"x_min":-57,"x_max":985,"o":"m 443 1192 l 658 1192 l 617 996 l 401 996 l 443 1192 m 768 1192 l 985 1192 l 943 996 l 726 996 l 768 1192 m 476 894 l 825 894 l 981 0 l 647 0 l 618 167 l 401 167 l 303 0 l -57 0 l 476 894 m 622 396 l 590 567 l 486 396 l 622 396 z "},"Ạ":{"ha":1079,"x_min":-57,"x_max":981,"o":"m 476 894 l 825 894 l 981 0 l 647 0 l 618 167 l 401 167 l 303 0 l -57 0 l 476 894 m 622 396 l 590 567 l 486 396 l 622 396 m 333 -100 l 550 -100 l 508 -296 l 292 -296 l 333 -100 z "},"À":{"ha":1079,"x_min":-57,"x_max":981,"o":"m 458 1269 l 717 1269 l 783 956 l 538 956 l 458 1269 m 476 894 l 825 894 l 981 0 l 647 0 l 618 167 l 401 167 l 303 0 l -57 0 l 476 894 m 622 396 l 590 567 l 486 396 l 622 396 z "},"Ả":{"ha":1079,"x_min":-57,"x_max":981,"o":"m 571 1068 q 700 1122 690 1075 q 690 1152 706 1143 q 639 1161 675 1161 q 558 1147 597 1161 l 586 1278 q 771 1299 665 1299 q 906 1265 858 1299 q 953 1178 953 1232 q 950 1150 953 1169 q 903 1057 936 1089 q 806 1006 871 1025 l 794 956 l 547 956 l 571 1068 m 476 894 l 825 894 l 981 0 l 647 0 l 618 167 l 401 167 l 303 0 l -57 0 l 476 894 m 622 396 l 590 567 l 486 396 l 622 396 z "},"Ā":{"ha":1079,"x_min":-57,"x_max":981,"o":"m 467 1164 l 950 1164 l 908 969 l 425 969 l 467 1164 m 476 894 l 825 894 l 981 0 l 647 0 l 618 167 l 401 167 l 303 0 l -57 0 l 476 894 m 622 396 l 590 567 l 486 396 l 622 396 z "},"Ą":{"ha":1079,"x_min":-57,"x_max":981,"o":"m 806 -117 q 820 -142 806 -135 q 863 -149 835 -149 q 902 -144 881 -149 q 936 -133 924 -140 l 906 -281 q 828 -298 875 -290 q 735 -306 782 -306 q 602 -278 649 -306 q 556 -194 556 -250 q 597 -81 556 -132 q 697 0 638 -31 l 647 0 l 618 167 l 401 167 l 303 0 l -57 0 l 476 894 l 825 894 l 981 0 l 897 0 q 807 -106 821 -49 q 806 -117 806 -110 m 622 396 l 590 567 l 486 396 l 622 396 z "},"Å":{"ha":1079,"x_min":-57,"x_max":981,"o":"m 476 894 q 458 969 458 931 q 464 1015 458 982 q 549 1159 482 1103 q 718 1215 617 1215 q 848 1172 801 1215 q 894 1061 894 1129 q 889 1015 894 1046 q 825 893 875 944 l 981 0 l 647 0 l 618 167 l 401 167 l 303 0 l -57 0 l 476 894 m 660 944 q 727 971 703 944 q 751 1033 751 997 q 736 1072 751 1057 q 690 1086 721 1086 q 623 1060 647 1086 q 599 997 599 1033 q 614 959 599 974 q 660 944 629 944 m 622 396 l 590 567 l 486 396 l 622 396 z "},"Ǻ":{"ha":1079,"x_min":-57,"x_max":1086,"o":"m 874 1260 l 628 1260 l 828 1510 l 1086 1510 l 874 1260 m 889 1015 q 825 893 874 944 l 981 0 l 647 0 l 618 167 l 401 167 l 303 0 l -57 0 l 476 894 l 478 894 q 460 971 460 931 q 464 1015 460 993 q 549 1159 482 1103 q 718 1215 617 1215 q 848 1172 801 1215 q 894 1061 894 1129 q 889 1015 894 1046 m 690 1086 q 623 1060 647 1086 q 599 997 599 1033 q 614 959 599 974 q 660 944 629 944 q 727 971 703 944 q 751 1033 751 997 q 736 1072 751 1057 q 690 1086 721 1086 m 622 396 l 590 567 l 486 396 l 622 396 z "},"Ã":{"ha":1079,"x_min":-57,"x_max":997,"o":"m 814 963 q 749 970 781 963 q 669 994 718 978 q 603 1016 631 1008 q 547 1024 575 1024 q 389 967 458 1024 l 431 1163 q 499 1197 457 1182 q 583 1211 542 1211 q 649 1203 618 1211 q 719 1181 679 1196 q 790 1158 763 1165 q 849 1150 817 1150 q 934 1166 894 1150 q 997 1207 974 1182 l 956 1011 q 897 977 938 992 q 814 963 856 963 m 476 894 l 825 894 l 981 0 l 647 0 l 618 167 l 401 167 l 303 0 l -57 0 l 476 894 m 622 396 l 590 567 l 486 396 l 622 396 z "},"Æ":{"ha":1214,"x_min":-57,"x_max":1304,"o":"m 476 894 l 1304 894 l 1253 653 l 943 653 l 926 572 l 1183 572 l 1131 322 l 874 322 l 856 242 l 1165 242 l 1115 0 l 483 0 l 518 167 l 392 167 l 293 0 l -57 0 l 476 894 m 567 396 l 621 653 l 613 653 l 476 396 l 567 396 z "},"Ǽ":{"ha":1214,"x_min":-57,"x_max":1304,"o":"m 892 1269 l 1150 1269 l 938 956 l 692 956 l 892 1269 m 476 894 l 1304 894 l 1253 653 l 943 653 l 926 572 l 1183 572 l 1131 322 l 874 322 l 856 242 l 1165 242 l 1115 0 l 483 0 l 518 167 l 392 167 l 293 0 l -57 0 l 476 894 m 567 396 l 621 653 l 613 653 l 476 396 l 567 396 z "},"B":{"ha":919,"x_min":-29,"x_max":932,"o":"m 160 894 l 690 894 q 865 839 797 894 q 932 693 932 783 q 926 642 932 665 q 803 453 899 514 q 864 403 843 432 q 885 328 885 374 q 878 271 885 306 q 507 0 819 0 l -29 0 l 160 894 m 528 551 q 607 611 594 551 q 608 625 608 617 q 553 667 608 667 l 428 667 l 403 551 l 528 551 m 458 228 q 538 288 525 228 q 539 303 539 293 q 483 343 539 343 l 358 343 l 333 228 l 458 228 z "},"C":{"ha":858,"x_min":25,"x_max":939,"o":"m 474 -14 q 144 75 264 -14 q 25 332 25 164 q 38 447 25 385 q 250 790 85 672 q 668 908 415 908 q 813 897 750 908 q 939 860 876 885 l 876 567 q 757 611 817 597 q 629 625 697 625 q 460 585 519 625 q 381 447 401 546 q 374 386 374 419 q 417 296 374 322 q 557 269 461 269 q 690 283 625 269 q 829 328 756 297 l 767 35 q 624 -2 693 10 q 474 -14 556 -14 z "},"Ć":{"ha":858,"x_min":25,"x_max":985,"o":"m 726 1269 l 985 1269 l 772 956 l 526 956 l 726 1269 m 474 -14 q 144 75 264 -14 q 25 332 25 164 q 38 447 25 385 q 250 790 85 672 q 668 908 415 908 q 813 897 750 908 q 939 860 876 885 l 876 567 q 757 611 817 597 q 629 625 697 625 q 460 585 519 625 q 381 447 401 546 q 374 386 374 419 q 417 296 374 322 q 557 269 461 269 q 690 283 625 269 q 829 328 756 297 l 767 35 q 624 -2 693 10 q 474 -14 556 -14 z "},"Č":{"ha":858,"x_min":25,"x_max":1063,"o":"m 382 1256 l 611 1256 l 682 1107 l 819 1256 l 1063 1256 l 756 956 l 561 956 l 382 1256 m 474 -14 q 144 75 264 -14 q 25 332 25 164 q 38 447 25 385 q 250 790 85 672 q 668 908 415 908 q 813 897 750 908 q 939 860 876 885 l 876 567 q 757 611 817 597 q 629 625 697 625 q 460 585 519 625 q 381 447 401 546 q 374 386 374 419 q 417 296 374 322 q 557 269 461 269 q 690 283 625 269 q 829 328 756 297 l 767 35 q 624 -2 693 10 q 474 -14 556 -14 z "},"Ç":{"ha":858,"x_min":24,"x_max":939,"o":"m 368 -333 q 302 -330 342 -333 q 249 -322 263 -326 l 272 -215 q 350 -226 308 -226 q 422 -214 396 -226 q 453 -178 449 -201 q 410 -139 463 -139 l 307 -139 l 371 -7 q 115 99 207 14 q 24 332 24 185 q 38 447 24 378 q 250 790 85 672 q 668 908 415 908 q 813 897 750 908 q 939 860 876 885 l 876 567 q 757 611 817 597 q 629 625 697 625 q 460 585 519 625 q 381 447 401 546 q 374 386 374 419 q 417 296 374 322 q 557 269 461 269 q 690 283 625 269 q 829 328 756 297 l 767 35 q 536 -11 651 -4 l 514 -51 q 605 -80 572 -51 q 638 -154 638 -108 q 635 -185 638 -175 q 551 -294 619 -254 q 368 -333 483 -333 z "},"Ĉ":{"ha":858,"x_min":25,"x_max":946,"o":"m 571 1256 l 767 1256 l 946 956 l 722 956 l 647 1104 l 515 956 l 265 956 l 571 1256 m 474 -14 q 144 75 264 -14 q 25 332 25 164 q 38 447 25 385 q 250 790 85 672 q 668 908 415 908 q 813 897 750 908 q 939 860 876 885 l 876 567 q 757 611 817 597 q 629 625 697 625 q 460 585 519 625 q 381 447 401 546 q 374 386 374 419 q 417 296 374 322 q 557 269 461 269 q 690 283 625 269 q 829 328 756 297 l 767 35 q 624 -2 693 10 q 474 -14 556 -14 z "},"Ċ":{"ha":858,"x_min":25,"x_max":939,"o":"m 574 1193 l 790 1193 l 749 997 l 533 997 l 574 1193 m 474 -14 q 144 75 264 -14 q 25 332 25 164 q 38 447 25 385 q 250 790 85 672 q 668 908 415 908 q 813 897 750 908 q 939 860 876 885 l 876 567 q 757 611 817 597 q 629 625 697 625 q 460 585 519 625 q 381 447 401 546 q 374 386 374 419 q 417 296 374 322 q 557 269 461 269 q 690 283 625 269 q 829 328 756 297 l 767 35 q 624 -2 693 10 q 474 -14 556 -14 z "},"D":{"ha":958,"x_min":-29,"x_max":967,"o":"m 160 894 l 585 894 q 783 854 696 894 q 918 737 869 814 q 967 554 967 660 q 953 442 967 508 q 851 188 918 285 q 674 46 783 92 q 396 0 564 0 l -29 0 l 160 894 m 411 256 q 507 270 469 256 q 569 325 544 285 q 611 442 594 365 q 622 531 622 490 q 592 602 622 585 q 488 619 563 619 l 438 619 l 361 256 l 411 256 z "},"Ð":{"ha":1019,"x_min":26,"x_max":1028,"o":"m 101 331 l 26 331 l 72 544 l 147 544 l 221 894 l 646 894 q 844 854 757 894 q 979 737 931 814 q 1028 554 1028 660 q 1014 442 1028 508 q 912 188 979 285 q 735 46 844 92 q 457 0 625 0 l 32 0 l 101 331 m 472 256 q 568 270 531 256 q 631 325 606 285 q 672 442 656 365 q 683 531 683 490 q 653 602 683 585 q 549 619 624 619 l 499 619 l 482 544 l 610 544 l 564 331 l 438 331 l 422 256 l 472 256 z "},"Ď":{"ha":958,"x_min":-29,"x_max":967,"o":"m 274 1256 l 503 1256 l 574 1107 l 711 1256 l 954 1256 l 647 956 l 453 956 l 274 1256 m 160 894 l 585 894 q 783 854 696 894 q 918 737 869 814 q 967 554 967 660 q 953 442 967 508 q 851 188 918 285 q 674 46 783 92 q 396 0 564 0 l -29 0 l 160 894 m 411 256 q 507 270 469 256 q 569 325 544 285 q 611 442 594 365 q 622 531 622 490 q 592 602 622 585 q 488 619 563 619 l 438 619 l 361 256 l 411 256 z "},"Đ":{"ha":1014,"x_min":26,"x_max":1022,"o":"m 96 331 l 35 331 l 81 544 l 142 544 l 215 894 l 640 894 q 838 854 751 894 q 974 737 925 814 q 1022 554 1022 660 q 1008 442 1022 508 q 906 188 974 285 q 729 46 839 92 q 451 0 619 0 l 26 0 l 96 331 m 467 256 q 563 270 525 256 q 625 325 600 285 q 667 442 650 365 q 678 531 678 490 q 648 602 678 585 q 543 619 618 619 l 493 619 l 476 544 l 618 544 l 572 331 l 432 331 l 417 256 l 467 256 z "},"Ḍ":{"ha":958,"x_min":-29,"x_max":967,"o":"m 160 894 l 585 894 q 783 854 696 894 q 918 737 869 814 q 967 554 967 660 q 953 442 967 508 q 851 188 918 285 q 674 46 783 92 q 396 0 564 0 l -29 0 l 160 894 m 411 256 q 507 270 469 256 q 569 325 544 285 q 611 442 594 365 q 622 531 622 490 q 592 602 622 585 q 488 619 563 619 l 438 619 l 361 256 l 411 256 m 221 -100 l 438 -100 l 396 -296 l 179 -296 l 221 -100 z "},"Ḏ":{"ha":958,"x_min":-29,"x_max":967,"o":"m 160 894 l 585 894 q 783 854 696 894 q 918 737 869 814 q 967 554 967 660 q 953 442 967 508 q 851 188 918 285 q 674 46 783 92 q 396 0 564 0 l -29 0 l 160 894 m 411 256 q 507 270 469 256 q 569 325 544 285 q 611 442 594 365 q 622 531 622 490 q 592 602 622 585 q 488 619 563 619 l 438 619 l 361 256 l 411 256 m 60 -86 l 543 -86 l 501 -281 l 18 -281 l 60 -86 z "},"E":{"ha":774,"x_min":-29,"x_max":875,"o":"m 160 894 l 875 894 l 824 653 l 444 653 l 428 572 l 754 572 l 701 322 l 375 322 l 357 242 l 736 242 l 686 0 l -29 0 l 160 894 z "},"É":{"ha":774,"x_min":-29,"x_max":875,"o":"m 572 1269 l 831 1269 l 618 956 l 372 956 l 572 1269 m 160 894 l 875 894 l 824 653 l 444 653 l 428 572 l 754 572 l 701 322 l 375 322 l 357 242 l 736 242 l 686 0 l -29 0 l 160 894 z "},"Ĕ":{"ha":774,"x_min":-29,"x_max":904,"o":"m 532 956 q 349 1013 415 956 q 283 1175 283 1069 q 293 1261 283 1218 l 497 1261 q 492 1215 492 1240 q 561 1139 492 1139 q 638 1173 610 1139 q 679 1261 667 1207 l 904 1261 q 773 1035 872 1114 q 532 956 674 956 m 160 894 l 875 894 l 824 653 l 444 653 l 428 572 l 754 572 l 701 322 l 375 322 l 357 242 l 736 242 l 686 0 l -29 0 l 160 894 z "},"Ě":{"ha":774,"x_min":-29,"x_max":940,"o":"m 260 1256 l 489 1256 l 560 1107 l 697 1256 l 940 1256 l 633 956 l 439 956 l 260 1256 m 160 894 l 875 894 l 824 653 l 444 653 l 428 572 l 754 572 l 701 322 l 375 322 l 357 242 l 736 242 l 686 0 l -29 0 l 160 894 z "},"Ê":{"ha":774,"x_min":-29,"x_max":875,"o":"m 497 1256 l 693 1256 l 872 956 l 649 956 l 574 1104 l 442 956 l 192 956 l 497 1256 m 160 894 l 875 894 l 824 653 l 444 653 l 428 572 l 754 572 l 701 322 l 375 322 l 357 242 l 736 242 l 686 0 l -29 0 l 160 894 z "},"Ế":{"ha":774,"x_min":-29,"x_max":1176,"o":"m 932 1378 l 1176 1378 l 1010 1139 l 778 1139 l 932 1378 m 468 1189 l 711 1189 l 879 956 l 628 956 l 572 1061 l 476 956 l 199 956 l 468 1189 m 160 894 l 875 894 l 824 653 l 444 653 l 428 572 l 754 572 l 701 322 l 375 322 l 357 242 l 736 242 l 686 0 l -29 0 l 160 894 z "},"Ệ":{"ha":774,"x_min":-29,"x_max":875,"o":"m 493 1256 l 689 1256 l 868 956 l 644 956 l 569 1104 l 438 956 l 188 956 l 493 1256 m 160 894 l 875 894 l 824 653 l 444 653 l 428 572 l 754 572 l 701 322 l 375 322 l 357 242 l 736 242 l 686 0 l -29 0 l 160 894 m 197 -100 l 414 -100 l 372 -296 l 156 -296 l 197 -100 z "},"Ề":{"ha":774,"x_min":-29,"x_max":875,"o":"m 78 1378 l 322 1378 l 375 1139 l 142 1139 l 78 1378 m 464 1189 l 707 1189 l 875 956 l 618 956 l 567 1061 l 467 956 l 194 956 l 464 1189 m 160 894 l 875 894 l 824 653 l 444 653 l 428 572 l 754 572 l 701 322 l 375 322 l 357 242 l 736 242 l 686 0 l -29 0 l 160 894 z "},"Ể":{"ha":774,"x_min":-29,"x_max":1128,"o":"m 799 1218 q 873 1229 853 1219 q 893 1254 893 1239 q 883 1267 893 1264 q 850 1271 872 1271 q 782 1257 821 1271 l 810 1385 q 972 1401 874 1401 q 1088 1372 1047 1401 q 1128 1296 1128 1343 q 1125 1274 1128 1288 q 1083 1192 1114 1224 q 1001 1150 1051 1160 l 992 1107 l 775 1107 l 799 1218 m 457 1189 l 700 1189 l 868 956 l 617 956 l 561 1061 l 465 956 l 188 956 l 457 1189 m 160 894 l 875 894 l 824 653 l 444 653 l 428 572 l 754 572 l 701 322 l 375 322 l 357 242 l 736 242 l 686 0 l -29 0 l 160 894 z "},"Ễ":{"ha":774,"x_min":-29,"x_max":907,"o":"m 732 1210 q 669 1217 700 1210 q 596 1240 638 1225 q 529 1261 554 1254 q 478 1268 504 1268 q 328 1214 392 1268 l 367 1401 q 433 1434 393 1421 q 511 1447 472 1447 q 574 1440 544 1447 q 643 1417 604 1432 q 709 1396 682 1403 q 765 1389 736 1389 q 847 1404 808 1389 q 907 1443 885 1419 l 867 1256 q 810 1224 849 1238 q 732 1210 772 1210 m 457 1189 l 700 1189 l 868 956 l 617 956 l 561 1061 l 465 956 l 188 956 l 457 1189 m 160 894 l 875 894 l 824 653 l 444 653 l 428 572 l 754 572 l 701 322 l 375 322 l 357 242 l 736 242 l 686 0 l -29 0 l 160 894 z "},"Ë":{"ha":774,"x_min":-29,"x_max":875,"o":"m 315 1193 l 531 1193 l 489 997 l 274 997 l 315 1193 m 640 1193 l 857 1193 l 815 997 l 599 997 l 640 1193 m 160 894 l 875 894 l 824 653 l 444 653 l 428 572 l 754 572 l 701 322 l 375 322 l 357 242 l 736 242 l 686 0 l -29 0 l 160 894 z "},"Ė":{"ha":774,"x_min":-29,"x_max":875,"o":"m 464 1193 l 681 1193 l 639 997 l 424 997 l 464 1193 m 160 894 l 875 894 l 824 653 l 444 653 l 428 572 l 754 572 l 701 322 l 375 322 l 357 242 l 736 242 l 686 0 l -29 0 l 160 894 z "},"Ẹ":{"ha":774,"x_min":-29,"x_max":875,"o":"m 160 894 l 875 894 l 824 653 l 444 653 l 428 572 l 754 572 l 701 322 l 375 322 l 357 242 l 736 242 l 686 0 l -29 0 l 160 894 m 185 -100 l 401 -100 l 360 -296 l 143 -296 l 185 -100 z "},"È":{"ha":774,"x_min":-29,"x_max":875,"o":"m 354 1269 l 613 1269 l 679 956 l 433 956 l 354 1269 m 160 894 l 875 894 l 824 653 l 444 653 l 428 572 l 754 572 l 701 322 l 375 322 l 357 242 l 736 242 l 686 0 l -29 0 l 160 894 z "},"Ẻ":{"ha":774,"x_min":-29,"x_max":875,"o":"m 431 1068 q 560 1122 550 1075 q 550 1152 565 1143 q 499 1161 535 1161 q 418 1147 457 1161 l 446 1278 q 631 1299 525 1299 q 765 1265 718 1299 q 813 1178 813 1232 q 810 1150 813 1169 q 763 1057 796 1089 q 665 1006 731 1025 l 654 956 l 407 956 l 431 1068 m 160 894 l 875 894 l 824 653 l 444 653 l 428 572 l 754 572 l 701 322 l 375 322 l 357 242 l 736 242 l 686 0 l -29 0 l 160 894 z "},"Ē":{"ha":774,"x_min":-29,"x_max":875,"o":"m 321 1206 l 804 1206 l 763 1011 l 279 1011 l 321 1206 m 160 894 l 875 894 l 824 653 l 444 653 l 428 572 l 754 572 l 701 322 l 375 322 l 357 242 l 736 242 l 686 0 l -29 0 l 160 894 z "},"Ę":{"ha":774,"x_min":-29,"x_max":875,"o":"m 444 653 l 428 572 l 754 572 l 701 322 l 375 322 l 357 242 l 736 242 l 686 0 l 596 0 q 506 -106 519 -49 q 504 -117 504 -110 q 519 -142 504 -135 q 561 -149 533 -149 q 601 -144 579 -149 q 635 -133 622 -140 l 604 -281 q 527 -298 574 -290 q 433 -306 481 -306 q 301 -278 347 -306 q 254 -194 254 -250 q 295 -81 254 -132 q 396 0 336 -31 l -29 0 l 160 894 l 875 894 l 824 653 l 444 653 z "},"Ẽ":{"ha":774,"x_min":-29,"x_max":875,"o":"m 679 963 q 615 970 646 963 q 535 994 583 978 q 468 1016 496 1008 q 413 1024 440 1024 q 254 967 324 1024 l 296 1163 q 365 1197 322 1182 q 449 1211 407 1211 q 514 1203 483 1211 q 585 1181 544 1196 q 655 1158 628 1165 q 714 1150 682 1150 q 799 1166 760 1150 q 863 1207 839 1182 l 821 1011 q 762 977 803 992 q 679 963 721 963 m 160 894 l 875 894 l 824 653 l 444 653 l 428 572 l 754 572 l 701 322 l 375 322 l 357 242 l 736 242 l 686 0 l -29 0 l 160 894 z "},"F":{"ha":757,"x_min":-29,"x_max":875,"o":"m 160 894 l 875 894 l 824 653 l 444 653 l 428 572 l 754 572 l 701 322 l 375 322 l 307 0 l -29 0 l 160 894 z "},"G":{"ha":921,"x_min":24,"x_max":957,"o":"m 460 -14 q 138 73 253 -14 q 24 326 24 160 q 38 447 24 386 q 245 793 86 678 q 681 908 404 908 q 957 863 835 908 l 899 582 q 642 625 796 625 q 469 584 536 625 q 381 447 401 543 q 371 371 371 407 q 405 292 371 315 q 518 269 439 269 q 603 279 563 269 l 615 333 l 467 333 l 510 536 l 936 536 l 838 74 q 671 10 767 35 q 460 -14 575 -14 z "},"Ğ":{"ha":921,"x_min":24,"x_max":1033,"o":"m 661 956 q 478 1013 544 956 q 413 1175 413 1069 q 422 1261 413 1218 l 626 1261 q 621 1215 621 1240 q 690 1139 621 1139 q 767 1173 739 1139 q 808 1261 796 1207 l 1033 1261 q 902 1035 1001 1114 q 661 956 803 956 m 460 -14 q 138 73 253 -14 q 24 326 24 160 q 38 447 24 386 q 245 793 86 678 q 681 908 404 908 q 957 863 835 908 l 899 582 q 642 625 796 625 q 469 584 536 625 q 381 447 401 543 q 371 371 371 407 q 405 292 371 315 q 518 269 439 269 q 603 279 563 269 l 615 333 l 467 333 l 510 536 l 936 536 l 838 74 q 671 10 767 35 q 460 -14 575 -14 z "},"Ǧ":{"ha":921,"x_min":24,"x_max":1057,"o":"m 376 1254 l 606 1254 l 676 1106 l 814 1254 l 1057 1254 l 750 954 l 556 954 l 376 1254 m 460 -14 q 138 73 253 -14 q 24 326 24 160 q 38 447 24 386 q 245 793 86 678 q 681 908 404 908 q 957 863 835 908 l 899 582 q 642 625 796 625 q 469 584 536 625 q 381 447 401 543 q 371 371 371 407 q 405 292 371 315 q 518 269 439 269 q 603 279 563 269 l 615 333 l 467 333 l 510 536 l 936 536 l 838 74 q 671 10 767 35 q 460 -14 575 -14 z "},"Ĝ":{"ha":921,"x_min":24,"x_max":976,"o":"m 601 1256 l 797 1256 l 976 956 l 753 956 l 678 1104 l 546 956 l 296 956 l 601 1256 m 460 -14 q 138 73 253 -14 q 24 326 24 160 q 38 447 24 386 q 245 793 86 678 q 681 908 404 908 q 957 863 835 908 l 899 582 q 642 625 796 625 q 469 584 536 625 q 381 447 401 543 q 371 371 371 407 q 405 292 371 315 q 518 269 439 269 q 603 279 563 269 l 615 333 l 467 333 l 510 536 l 936 536 l 838 74 q 671 10 767 35 q 460 -14 575 -14 z "},"Ģ":{"ha":921,"x_min":24,"x_max":957,"o":"m 460 -14 q 138 73 253 -14 q 24 326 24 160 q 38 447 24 386 q 245 793 86 678 q 681 908 404 908 q 957 863 835 908 l 899 582 q 642 625 796 625 q 469 584 536 625 q 381 447 401 543 q 371 371 371 407 q 405 292 371 315 q 518 269 439 269 q 603 279 563 269 l 615 333 l 467 333 l 510 536 l 936 536 l 838 74 q 671 10 767 35 q 460 -14 575 -14 m 346 -51 l 594 -51 l 431 -397 l 222 -397 l 346 -51 z "},"Ġ":{"ha":921,"x_min":24,"x_max":957,"o":"m 619 1193 l 836 1193 l 794 997 l 579 997 l 619 1193 m 460 -14 q 138 73 253 -14 q 24 326 24 160 q 38 447 24 386 q 245 793 86 678 q 681 908 404 908 q 957 863 835 908 l 899 582 q 642 625 796 625 q 469 584 536 625 q 381 447 401 543 q 371 371 371 407 q 405 292 371 315 q 518 269 439 269 q 603 279 563 269 l 615 333 l 467 333 l 510 536 l 936 536 l 838 74 q 671 10 767 35 q 460 -14 575 -14 z "},"Ḡ":{"ha":921,"x_min":24,"x_max":961,"o":"m 478 1192 l 961 1192 l 919 997 l 436 997 l 478 1192 m 460 -14 q 138 73 253 -14 q 24 326 24 160 q 38 447 24 386 q 245 793 86 678 q 681 908 404 908 q 957 863 835 908 l 899 582 q 642 625 796 625 q 469 584 536 625 q 381 447 401 543 q 371 371 371 407 q 405 292 371 315 q 518 269 439 269 q 603 279 563 269 l 615 333 l 467 333 l 510 536 l 936 536 l 838 74 q 671 10 767 35 q 460 -14 575 -14 z "},"H":{"ha":993,"x_min":-29,"x_max":1056,"o":"m 160 894 l 496 894 l 435 603 l 658 603 l 719 894 l 1056 894 l 867 0 l 531 0 l 592 292 l 368 292 l 307 0 l -29 0 l 160 894 z "},"Ħ":{"ha":1024,"x_min":-14,"x_max":1100,"o":"m 126 667 l 85 667 l 118 826 l 160 826 l 175 894 l 511 894 l 496 826 l 719 826 l 735 894 l 1071 894 l 1056 826 l 1100 826 l 1067 667 l 1022 667 l 882 0 l 546 0 l 607 292 l 383 292 l 322 0 l -14 0 l 126 667 m 674 603 l 686 667 l 463 667 l 450 603 l 674 603 z "},"Ḫ":{"ha":993,"x_min":-29,"x_max":1056,"o":"m 160 894 l 496 894 l 435 603 l 658 603 l 719 894 l 1056 894 l 867 0 l 531 0 l 592 292 l 368 292 l 307 0 l -29 0 l 160 894 m 343 -361 q 159 -304 225 -361 q 93 -140 93 -247 q 103 -56 93 -99 l 308 -56 q 303 -101 303 -76 q 372 -178 303 -178 q 453 -144 424 -178 q 489 -56 483 -110 l 714 -56 q 590 -283 682 -206 q 343 -361 497 -361 z "},"Ĥ":{"ha":993,"x_min":-29,"x_max":1056,"o":"m 585 1256 l 781 1256 l 960 956 l 736 956 l 661 1104 l 529 956 l 279 956 l 585 1256 m 160 894 l 496 894 l 435 603 l 658 603 l 719 894 l 1056 894 l 867 0 l 531 0 l 592 292 l 368 292 l 307 0 l -29 0 l 160 894 z "},"Ḥ":{"ha":993,"x_min":-29,"x_max":1056,"o":"m 160 894 l 496 894 l 435 603 l 658 603 l 719 894 l 1056 894 l 867 0 l 531 0 l 592 292 l 368 292 l 307 0 l -29 0 l 160 894 m 288 -100 l 504 -100 l 463 -296 l 246 -296 l 288 -100 z "},"I":{"ha":433,"x_min":-29,"x_max":496,"o":"m 160 894 l 496 894 l 307 0 l -29 0 l 160 894 z "},"Ĳ":{"ha":1069,"x_min":-29,"x_max":1139,"o":"m 160 894 l 496 894 l 307 0 l -29 0 l 160 894 m 564 -14 q 347 18 438 -14 l 406 297 q 556 271 467 271 q 653 294 625 271 q 694 382 681 318 l 803 894 l 1139 894 l 1013 300 q 874 64 979 142 q 564 -14 769 -14 z "},"Í":{"ha":433,"x_min":-29,"x_max":671,"o":"m 413 1269 l 671 1269 l 458 956 l 213 956 l 413 1269 m 160 894 l 496 894 l 307 0 l -29 0 l 160 894 z "},"Ĭ":{"ha":433,"x_min":-29,"x_max":721,"o":"m 349 992 q 166 1049 232 992 q 100 1211 100 1106 q 110 1297 100 1254 l 314 1297 q 308 1251 308 1276 q 378 1175 308 1175 q 455 1209 426 1175 q 496 1297 483 1243 l 721 1297 q 590 1071 689 1150 q 349 992 490 992 m 160 894 l 496 894 l 307 0 l -29 0 l 160 894 z "},"Ǐ":{"ha":433,"x_min":-29,"x_max":746,"o":"m 65 1256 l 294 1256 l 365 1107 l 503 1256 l 746 1256 l 439 956 l 244 956 l 65 1256 m 160 894 l 496 894 l 307 0 l -29 0 l 160 894 z "},"Î":{"ha":433,"x_min":-29,"x_max":682,"o":"m 307 1256 l 503 1256 l 682 956 l 458 956 l 383 1104 l 251 956 l 1 956 l 307 1256 m 160 894 l 496 894 l 307 0 l -29 0 l 160 894 z "},"Ï":{"ha":433,"x_min":-29,"x_max":665,"o":"m 124 1207 l 339 1207 l 297 1011 l 82 1011 l 124 1207 m 449 1207 l 665 1207 l 624 1011 l 407 1011 l 449 1207 m 160 894 l 496 894 l 307 0 l -29 0 l 160 894 z "},"İ":{"ha":433,"x_min":-29,"x_max":501,"o":"m 285 1207 l 501 1207 l 460 1011 l 244 1011 l 285 1207 m 160 894 l 496 894 l 307 0 l -29 0 l 160 894 z "},"Ị":{"ha":433,"x_min":-32,"x_max":496,"o":"m 160 894 l 496 894 l 307 0 l -29 0 l 160 894 m 10 -100 l 226 -100 l 185 -296 l -32 -296 l 10 -100 z "},"Ì":{"ha":433,"x_min":-29,"x_max":496,"o":"m 138 1269 l 396 1269 l 463 956 l 217 956 l 138 1269 m 160 894 l 496 894 l 307 0 l -29 0 l 160 894 z "},"Ỉ":{"ha":433,"x_min":-29,"x_max":621,"o":"m 239 1068 q 368 1122 358 1075 q 358 1152 374 1143 q 307 1161 343 1161 q 226 1147 265 1161 l 254 1278 q 439 1299 333 1299 q 574 1265 526 1299 q 621 1178 621 1232 q 618 1150 621 1169 q 572 1057 604 1089 q 474 1006 539 1025 l 463 956 l 215 956 l 239 1068 m 160 894 l 496 894 l 307 0 l -29 0 l 160 894 z "},"Ī":{"ha":433,"x_min":-29,"x_max":638,"o":"m 153 1206 l 638 1206 l 596 1011 l 111 1011 l 153 1206 m 160 894 l 496 894 l 307 0 l -29 0 l 160 894 z "},"Į":{"ha":433,"x_min":-103,"x_max":496,"o":"m 76 -306 q -56 -278 -10 -306 q -103 -194 -103 -250 q -62 -81 -103 -132 q 39 0 -21 -31 l -29 0 l 160 894 l 496 894 l 307 0 l 239 0 q 149 -106 163 -49 q 147 -117 147 -110 q 162 -142 147 -135 q 204 -149 176 -149 q 244 -144 222 -149 q 278 -133 265 -140 l 247 -281 q 170 -298 217 -290 q 76 -306 124 -306 z "},"Ĩ":{"ha":433,"x_min":-29,"x_max":683,"o":"m 500 1004 q 435 1012 467 1004 q 356 1036 404 1019 q 289 1058 317 1050 q 233 1065 261 1065 q 75 1008 144 1065 l 117 1204 q 185 1238 143 1224 q 269 1253 228 1253 q 335 1245 304 1253 q 406 1222 365 1238 q 476 1199 449 1207 q 535 1192 503 1192 q 620 1208 581 1192 q 683 1249 660 1224 l 642 1053 q 583 1019 624 1033 q 500 1004 542 1004 m 160 894 l 496 894 l 307 0 l -29 0 l 160 894 z "},"J":{"ha":642,"x_min":-81,"x_max":711,"o":"m 136 -14 q -81 18 10 -14 l -22 297 q 128 271 39 271 q 225 294 197 271 q 267 382 253 318 l 375 894 l 711 894 l 585 300 q 447 64 551 142 q 136 -14 342 -14 z "},"Ĵ":{"ha":642,"x_min":-81,"x_max":904,"o":"m 529 1256 l 725 1256 l 904 956 l 681 956 l 606 1104 l 474 956 l 224 956 l 529 1256 m 136 -14 q -81 18 10 -14 l -22 297 q 128 271 39 271 q 225 294 197 271 q 267 382 253 318 l 375 894 l 711 894 l 585 300 q 447 64 551 142 q 136 -14 342 -14 z "},"K":{"ha":1008,"x_min":-29,"x_max":1071,"o":"m 160 894 l 496 894 l 443 644 l 692 894 l 1071 894 l 688 524 l 910 0 l 554 0 l 436 311 l 356 233 l 307 0 l -29 0 l 160 894 z "},"Ķ":{"ha":1008,"x_min":-29,"x_max":1071,"o":"m 160 894 l 496 894 l 443 644 l 692 894 l 1071 894 l 688 524 l 910 0 l 554 0 l 436 311 l 356 233 l 307 0 l -29 0 l 160 894 m 310 -51 l 558 -51 l 394 -397 l 186 -397 l 310 -51 z "},"L":{"ha":743,"x_min":-29,"x_max":726,"o":"m 160 894 l 496 894 l 361 256 l 726 256 l 672 0 l -29 0 l 160 894 z "},"Ĺ":{"ha":743,"x_min":-29,"x_max":726,"o":"m 422 1269 l 681 1269 l 468 956 l 222 956 l 422 1269 m 160 894 l 496 894 l 361 256 l 726 256 l 672 0 l -29 0 l 160 894 z "},"Ľ":{"ha":743,"x_min":-29,"x_max":726,"o":"m 367 1301 l 615 1301 l 451 956 l 243 956 l 367 1301 m 160 894 l 496 894 l 361 256 l 726 256 l 672 0 l -29 0 l 160 894 z "},"Ļ":{"ha":743,"x_min":-29,"x_max":726,"o":"m 160 894 l 496 894 l 361 256 l 726 256 l 672 0 l -29 0 l 160 894 m 243 -51 l 492 -51 l 328 -397 l 119 -397 l 243 -51 z "},"Ŀ":{"ha":743,"x_min":-29,"x_max":726,"o":"m 160 894 l 496 894 l 361 256 l 726 256 l 672 0 l -29 0 l 160 894 m 504 626 l 721 626 l 679 431 l 463 431 l 504 626 z "},"Ḷ":{"ha":743,"x_min":-29,"x_max":726,"o":"m 160 894 l 496 894 l 361 256 l 726 256 l 672 0 l -29 0 l 160 894 m 178 -100 l 394 -100 l 353 -296 l 136 -296 l 178 -100 z "},"Ḹ":{"ha":749,"x_min":-24,"x_max":732,"o":"m 149 1192 l 632 1192 l 590 997 l 107 997 l 149 1192 m 165 894 l 501 894 l 367 256 l 732 256 l 678 0 l -24 0 l 165 894 m 181 -100 l 397 -100 l 356 -296 l 139 -296 l 181 -100 z "},"Ḻ":{"ha":743,"x_min":-29,"x_max":726,"o":"m 160 894 l 496 894 l 361 256 l 726 256 l 672 0 l -29 0 l 160 894 m 42 -103 l 525 -103 l 483 -297 l 0 -297 l 42 -103 z "},"Ł":{"ha":800,"x_min":-3,"x_max":783,"o":"m 90 297 l -3 260 l 47 494 l 139 531 l 217 894 l 553 894 l 507 678 l 613 721 l 563 486 l 457 444 l 418 256 l 783 256 l 729 0 l 28 0 l 90 297 z "},"M":{"ha":1099,"x_min":-29,"x_max":1161,"o":"m 160 894 l 471 894 l 575 525 l 833 894 l 1161 894 l 972 0 l 636 0 l 703 314 l 589 153 l 418 153 l 374 314 l 307 0 l -29 0 l 160 894 z "},"Ṃ":{"ha":1099,"x_min":-29,"x_max":1161,"o":"m 160 894 l 471 894 l 575 525 l 833 894 l 1161 894 l 972 0 l 636 0 l 703 314 l 589 153 l 418 153 l 374 314 l 307 0 l -29 0 l 160 894 m 343 -100 l 560 -100 l 518 -296 l 301 -296 l 343 -100 z "},"N":{"ha":965,"x_min":-29,"x_max":1028,"o":"m 160 894 l 442 894 l 618 544 l 692 894 l 1028 894 l 839 0 l 556 0 l 381 350 l 307 0 l -29 0 l 160 894 z "},"Ń":{"ha":965,"x_min":-29,"x_max":1028,"o":"m 639 1269 l 897 1269 l 685 956 l 439 956 l 639 1269 m 160 894 l 442 894 l 618 544 l 692 894 l 1028 894 l 839 0 l 556 0 l 381 350 l 307 0 l -29 0 l 160 894 z "},"Ň":{"ha":965,"x_min":-29,"x_max":1028,"o":"m 322 1256 l 551 1256 l 622 1107 l 760 1256 l 1003 1256 l 696 956 l 501 956 l 322 1256 m 160 894 l 442 894 l 618 544 l 692 894 l 1028 894 l 839 0 l 556 0 l 381 350 l 307 0 l -29 0 l 160 894 z "},"Ņ":{"ha":965,"x_min":-29,"x_max":1028,"o":"m 160 894 l 442 894 l 618 544 l 692 894 l 1028 894 l 839 0 l 556 0 l 381 350 l 307 0 l -29 0 l 160 894 m 296 -51 l 544 -51 l 381 -397 l 172 -397 l 296 -51 z "},"Ṅ":{"ha":965,"x_min":-29,"x_max":1028,"o":"m 544 1193 l 761 1193 l 719 997 l 504 997 l 544 1193 m 160 894 l 442 894 l 618 544 l 692 894 l 1028 894 l 839 0 l 556 0 l 381 350 l 307 0 l -29 0 l 160 894 z "},"Ṇ":{"ha":965,"x_min":-29,"x_max":1028,"o":"m 160 894 l 442 894 l 618 544 l 692 894 l 1028 894 l 839 0 l 556 0 l 381 350 l 307 0 l -29 0 l 160 894 m 285 -100 l 501 -100 l 460 -296 l 243 -296 l 285 -100 z "},"Ŋ":{"ha":965,"x_min":-29,"x_max":1028,"o":"m 489 -325 q 293 -287 372 -325 l 336 -79 q 417 -93 374 -93 q 494 -37 481 -93 l 518 74 l 381 350 l 307 0 l -29 0 l 160 894 l 442 894 l 618 544 l 692 894 l 1028 894 l 825 -60 q 716 -253 800 -182 q 489 -325 632 -325 z "},"Ṉ":{"ha":965,"x_min":-29,"x_max":1028,"o":"m 160 894 l 442 894 l 618 544 l 692 894 l 1028 894 l 839 0 l 556 0 l 381 350 l 307 0 l -29 0 l 160 894 m 142 -94 l 625 -94 l 583 -289 l 100 -289 l 142 -94 z "},"Ñ":{"ha":965,"x_min":-29,"x_max":1028,"o":"m 765 963 q 701 970 732 963 q 621 994 669 978 q 554 1016 582 1008 q 499 1024 526 1024 q 340 967 410 1024 l 382 1163 q 451 1197 408 1182 q 535 1211 493 1211 q 600 1203 569 1211 q 671 1181 631 1196 q 741 1158 714 1165 q 800 1150 768 1150 q 885 1166 846 1150 q 949 1207 925 1182 l 907 1011 q 848 977 889 992 q 765 963 807 963 m 160 894 l 442 894 l 618 544 l 692 894 l 1028 894 l 839 0 l 556 0 l 381 350 l 307 0 l -29 0 l 160 894 z "},"O":{"ha":1000,"x_min":21,"x_max":1013,"o":"m 418 -14 q 125 63 229 -14 q 21 306 21 139 q 38 447 21 368 q 231 801 90 694 q 615 908 372 908 q 910 833 807 908 q 1013 593 1013 758 q 996 447 1013 529 q 803 93 943 200 q 418 -14 664 -14 m 479 271 q 592 310 553 271 q 653 447 632 350 q 665 535 665 510 q 640 603 665 583 q 554 624 614 624 q 441 584 481 624 q 381 447 401 544 q 369 360 369 392 q 394 291 369 311 q 479 271 419 271 z "},"Ó":{"ha":1000,"x_min":21,"x_max":1013,"o":"m 675 1269 l 933 1269 l 721 956 l 475 956 l 675 1269 m 418 -14 q 125 63 229 -14 q 21 306 21 139 q 38 447 21 368 q 231 801 90 694 q 615 908 372 908 q 910 833 807 908 q 1013 593 1013 758 q 996 447 1013 529 q 803 93 943 200 q 418 -14 664 -14 m 479 271 q 592 310 553 271 q 653 447 632 350 q 665 535 665 510 q 640 603 665 583 q 554 624 614 624 q 441 584 481 624 q 381 447 401 544 q 369 360 369 392 q 394 291 369 311 q 479 271 419 271 z "},"Ŏ":{"ha":1000,"x_min":21,"x_max":1013,"o":"m 624 956 q 441 1013 507 956 q 375 1175 375 1069 q 385 1261 375 1218 l 589 1261 q 583 1215 583 1240 q 653 1139 583 1139 q 730 1173 701 1139 q 771 1261 758 1207 l 996 1261 q 865 1035 964 1114 q 624 956 765 956 m 418 -14 q 125 63 229 -14 q 21 306 21 139 q 38 447 21 368 q 231 801 90 694 q 615 908 372 908 q 910 833 807 908 q 1013 593 1013 758 q 996 447 1013 529 q 803 93 943 200 q 418 -14 664 -14 m 479 271 q 592 310 553 271 q 653 447 632 350 q 665 535 665 510 q 640 603 665 583 q 554 624 614 624 q 441 584 481 624 q 381 447 401 544 q 369 360 369 392 q 394 291 369 311 q 479 271 419 271 z "},"Ǒ":{"ha":1000,"x_min":21,"x_max":1029,"o":"m 349 1256 l 578 1256 l 649 1107 l 786 1256 l 1029 1256 l 722 956 l 528 956 l 349 1256 m 418 -14 q 125 63 229 -14 q 21 306 21 139 q 38 447 21 368 q 231 801 90 694 q 615 908 372 908 q 910 833 807 908 q 1013 593 1013 758 q 996 447 1013 529 q 803 93 943 200 q 418 -14 664 -14 m 479 271 q 592 310 553 271 q 653 447 632 350 q 665 535 665 510 q 640 603 665 583 q 554 624 614 624 q 441 584 481 624 q 381 447 401 544 q 369 360 369 392 q 394 291 369 311 q 479 271 419 271 z "},"Ô":{"ha":1000,"x_min":21,"x_max":1013,"o":"m 590 1256 l 786 1256 l 965 956 l 742 956 l 667 1104 l 535 956 l 285 956 l 590 1256 m 418 -14 q 125 63 229 -14 q 21 306 21 139 q 38 447 21 368 q 231 801 90 694 q 615 908 372 908 q 910 833 807 908 q 1013 593 1013 758 q 996 447 1013 529 q 803 93 943 200 q 418 -14 664 -14 m 479 271 q 592 310 553 271 q 653 447 632 350 q 665 535 665 510 q 640 603 665 583 q 554 624 614 624 q 441 584 481 624 q 381 447 401 544 q 369 360 369 392 q 394 291 369 311 q 479 271 419 271 z "},"Ố":{"ha":1000,"x_min":21,"x_max":1260,"o":"m 1015 1378 l 1260 1378 l 1093 1139 l 861 1139 l 1015 1378 m 551 1189 l 794 1189 l 963 956 l 711 956 l 656 1061 l 560 956 l 282 956 l 551 1189 m 418 -14 q 125 63 229 -14 q 21 306 21 139 q 38 447 21 368 q 231 801 90 694 q 615 908 372 908 q 910 833 807 908 q 1013 593 1013 758 q 996 447 1013 529 q 803 93 943 200 q 418 -14 664 -14 m 479 271 q 592 310 553 271 q 653 447 632 350 q 665 535 665 510 q 640 603 665 583 q 554 624 614 624 q 441 584 481 624 q 381 447 401 544 q 369 360 369 392 q 394 291 369 311 q 479 271 419 271 z "},"Ộ":{"ha":1000,"x_min":21,"x_max":1013,"o":"m 590 1256 l 786 1256 l 965 956 l 742 956 l 667 1104 l 535 956 l 285 956 l 590 1256 m 418 -14 q 125 63 229 -14 q 21 306 21 139 q 38 447 21 368 q 231 801 90 694 q 615 908 372 908 q 910 833 807 908 q 1013 593 1013 758 q 996 447 1013 529 q 803 93 943 200 q 418 -14 664 -14 m 479 271 q 592 310 553 271 q 653 447 632 350 q 665 535 665 510 q 640 603 665 583 q 554 624 614 624 q 441 584 481 624 q 381 447 401 544 q 369 360 369 392 q 394 291 369 311 q 479 271 419 271 m 294 -100 l 511 -100 l 469 -296 l 253 -296 l 294 -100 z "},"Ồ":{"ha":1000,"x_min":21,"x_max":1013,"o":"m 167 1378 l 411 1378 l 464 1139 l 231 1139 l 167 1378 m 553 1189 l 796 1189 l 964 956 l 707 956 l 656 1061 l 556 956 l 283 956 l 553 1189 m 418 -14 q 125 63 229 -14 q 21 306 21 139 q 38 447 21 368 q 231 801 90 694 q 615 908 372 908 q 910 833 807 908 q 1013 593 1013 758 q 996 447 1013 529 q 803 93 943 200 q 418 -14 664 -14 m 479 271 q 592 310 553 271 q 653 447 632 350 q 665 535 665 510 q 640 603 665 583 q 554 624 614 624 q 441 584 481 624 q 381 447 401 544 q 369 360 369 392 q 394 291 369 311 q 479 271 419 271 z "},"Ổ":{"ha":1000,"x_min":21,"x_max":1214,"o":"m 885 1218 q 959 1229 939 1219 q 979 1254 979 1239 q 969 1267 979 1264 q 936 1271 958 1271 q 868 1257 907 1271 l 896 1385 q 1058 1401 960 1401 q 1174 1372 1133 1401 q 1214 1296 1214 1343 q 1211 1274 1214 1288 q 1169 1192 1200 1224 q 1088 1150 1138 1160 l 1078 1107 l 861 1107 l 885 1218 m 543 1189 l 786 1189 l 954 956 l 703 956 l 647 1061 l 551 956 l 274 956 l 543 1189 m 418 -14 q 125 63 229 -14 q 21 306 21 139 q 38 447 21 368 q 231 801 90 694 q 615 908 372 908 q 910 833 807 908 q 1013 593 1013 758 q 996 447 1013 529 q 803 93 943 200 q 418 -14 664 -14 m 479 271 q 592 310 553 271 q 653 447 632 350 q 665 535 665 510 q 640 603 665 583 q 554 624 614 624 q 441 584 481 624 q 381 447 401 544 q 369 360 369 392 q 394 291 369 311 q 479 271 419 271 z "},"Ỗ":{"ha":1000,"x_min":21,"x_max":1013,"o":"m 832 1251 q 769 1259 800 1251 q 696 1282 738 1267 q 629 1303 654 1296 q 578 1310 604 1310 q 428 1256 492 1310 l 464 1429 q 530 1462 490 1449 q 608 1475 569 1475 q 672 1467 642 1475 q 740 1444 701 1460 q 806 1424 779 1431 q 863 1417 833 1417 q 944 1432 907 1417 q 1003 1471 982 1447 l 967 1297 q 911 1265 950 1279 q 832 1251 872 1251 m 626 956 q 461 1004 524 956 q 399 1146 399 1053 q 407 1217 399 1179 l 583 1217 q 578 1181 578 1189 q 650 1118 578 1118 q 726 1144 700 1118 q 763 1217 751 1171 l 958 1217 q 844 1021 931 1086 q 626 956 757 956 m 418 -14 q 125 63 229 -14 q 21 306 21 139 q 38 447 21 368 q 231 801 90 694 q 615 908 372 908 q 910 833 807 908 q 1013 593 1013 758 q 996 447 1013 529 q 803 93 943 200 q 418 -14 664 -14 m 479 271 q 592 310 553 271 q 653 447 632 350 q 665 535 665 510 q 640 603 665 583 q 554 624 614 624 q 441 584 481 624 q 381 447 401 544 q 369 360 369 392 q 394 291 369 311 q 479 271 419 271 z "},"Ö":{"ha":1000,"x_min":21,"x_max":1013,"o":"m 404 1193 l 619 1193 l 578 997 l 363 997 l 404 1193 m 729 1193 l 946 1193 l 904 997 l 688 997 l 729 1193 m 418 -14 q 125 63 229 -14 q 21 306 21 139 q 38 447 21 368 q 231 801 90 694 q 615 908 372 908 q 910 833 807 908 q 1013 593 1013 758 q 996 447 1013 529 q 803 93 943 200 q 418 -14 664 -14 m 479 271 q 592 310 553 271 q 653 447 632 350 q 665 535 665 510 q 640 603 665 583 q 554 624 614 624 q 441 584 481 624 q 381 447 401 544 q 369 360 369 392 q 394 291 369 311 q 479 271 419 271 z "},"Ọ":{"ha":1000,"x_min":21,"x_max":1013,"o":"m 418 -14 q 125 63 229 -14 q 21 306 21 139 q 38 447 21 368 q 231 801 90 694 q 615 908 372 908 q 910 833 807 908 q 1013 593 1013 758 q 996 447 1013 529 q 803 93 943 200 q 418 -14 664 -14 m 479 271 q 592 310 553 271 q 653 447 632 350 q 665 535 665 510 q 640 603 665 583 q 554 624 614 624 q 441 584 481 624 q 381 447 401 544 q 369 360 369 392 q 394 291 369 311 q 479 271 419 271 m 293 -100 l 510 -100 l 468 -296 l 251 -296 l 293 -100 z "},"Ò":{"ha":1000,"x_min":21,"x_max":1013,"o":"m 431 1269 l 689 1269 l 756 956 l 510 956 l 431 1269 m 418 -14 q 125 63 229 -14 q 21 306 21 139 q 38 447 21 368 q 231 801 90 694 q 615 908 372 908 q 910 833 807 908 q 1013 593 1013 758 q 996 447 1013 529 q 803 93 943 200 q 418 -14 664 -14 m 479 271 q 592 310 553 271 q 653 447 632 350 q 665 535 665 510 q 640 603 665 583 q 554 624 614 624 q 441 584 481 624 q 381 447 401 544 q 369 360 369 392 q 394 291 369 311 q 479 271 419 271 z "},"Ỏ":{"ha":1000,"x_min":21,"x_max":1013,"o":"m 519 1068 q 649 1122 639 1075 q 639 1152 654 1143 q 588 1161 624 1161 q 507 1147 546 1161 l 535 1278 q 719 1299 614 1299 q 854 1265 807 1299 q 901 1178 901 1232 q 899 1150 901 1169 q 852 1057 885 1089 q 754 1006 819 1025 l 743 956 l 496 956 l 519 1068 m 418 -14 q 125 63 229 -14 q 21 306 21 139 q 38 447 21 368 q 231 801 90 694 q 615 908 372 908 q 910 833 807 908 q 1013 593 1013 758 q 996 447 1013 529 q 803 93 943 200 q 418 -14 664 -14 m 479 271 q 592 310 553 271 q 653 447 632 350 q 665 535 665 510 q 640 603 665 583 q 554 624 614 624 q 441 584 481 624 q 381 447 401 544 q 369 360 369 392 q 394 291 369 311 q 479 271 419 271 z "},"Ơ":{"ha":1140,"x_min":21,"x_max":1272,"o":"m 418 -14 q 125 63 229 -14 q 21 306 21 139 q 38 447 21 368 q 231 801 90 694 q 615 908 372 908 q 907 835 807 908 q 994 865 964 838 q 1038 956 1024 892 l 1272 956 q 1181 737 1240 811 q 1011 636 1121 663 q 1013 596 1013 624 q 996 447 1013 531 q 803 93 943 200 q 418 -14 664 -14 m 479 271 q 592 310 553 271 q 653 447 632 350 q 665 535 665 510 q 640 603 665 583 q 554 624 614 624 q 441 584 481 624 q 381 447 401 544 q 369 360 369 392 q 394 291 369 311 q 479 271 419 271 z "},"Ớ":{"ha":1140,"x_min":21,"x_max":1272,"o":"m 711 1269 l 969 1269 l 757 956 l 511 956 l 711 1269 m 418 -14 q 125 63 229 -14 q 21 306 21 139 q 38 447 21 368 q 231 801 90 694 q 615 908 372 908 q 907 835 807 908 q 994 865 964 838 q 1038 956 1024 892 l 1272 956 q 1181 737 1240 811 q 1011 636 1121 663 q 1013 596 1013 624 q 996 447 1013 531 q 803 93 943 200 q 418 -14 664 -14 m 479 271 q 592 310 553 271 q 653 447 632 350 q 665 535 665 510 q 640 603 665 583 q 554 624 614 624 q 441 584 481 624 q 381 447 401 544 q 369 360 369 392 q 394 291 369 311 q 479 271 419 271 z "},"Ợ":{"ha":1140,"x_min":21,"x_max":1272,"o":"m 418 -14 q 125 63 229 -14 q 21 306 21 139 q 38 447 21 368 q 231 801 90 694 q 615 908 372 908 q 907 835 807 908 q 994 865 964 838 q 1038 956 1024 892 l 1272 956 q 1181 737 1240 811 q 1011 636 1121 663 q 1013 596 1013 624 q 996 447 1013 531 q 803 93 943 200 q 418 -14 664 -14 m 479 271 q 592 310 553 271 q 653 447 632 350 q 665 535 665 510 q 640 603 665 583 q 554 624 614 624 q 441 584 481 624 q 381 447 401 544 q 369 360 369 392 q 394 291 369 311 q 479 271 419 271 m 296 -100 l 513 -100 l 471 -296 l 254 -296 l 296 -100 z "},"Ờ":{"ha":1140,"x_min":21,"x_max":1272,"o":"m 450 1269 l 708 1269 l 775 956 l 529 956 l 450 1269 m 418 -14 q 125 63 229 -14 q 21 306 21 139 q 38 447 21 368 q 231 801 90 694 q 615 908 372 908 q 907 835 807 908 q 994 865 964 838 q 1038 956 1024 892 l 1272 956 q 1181 737 1240 811 q 1011 636 1121 663 q 1013 596 1013 624 q 996 447 1013 531 q 803 93 943 200 q 418 -14 664 -14 m 479 271 q 592 310 553 271 q 653 447 632 350 q 665 535 665 510 q 640 603 665 583 q 554 624 614 624 q 441 584 481 624 q 381 447 401 544 q 369 360 369 392 q 394 291 369 311 q 479 271 419 271 z "},"Ở":{"ha":1140,"x_min":21,"x_max":1272,"o":"m 521 1068 q 650 1122 640 1075 q 640 1152 656 1143 q 589 1161 625 1161 q 508 1147 547 1161 l 536 1278 q 721 1299 615 1299 q 856 1265 808 1299 q 903 1178 903 1232 q 900 1150 903 1169 q 853 1057 886 1089 q 756 1006 821 1025 l 744 956 l 497 956 l 521 1068 m 418 -14 q 125 63 229 -14 q 21 306 21 139 q 38 447 21 368 q 231 801 90 694 q 615 908 372 908 q 907 835 807 908 q 994 865 964 838 q 1038 956 1024 892 l 1272 956 q 1181 737 1240 811 q 1011 636 1121 663 q 1013 596 1013 624 q 996 447 1013 531 q 803 93 943 200 q 418 -14 664 -14 m 479 271 q 592 310 553 271 q 653 447 632 350 q 665 535 665 510 q 640 603 665 583 q 554 624 614 624 q 441 584 481 624 q 381 447 401 544 q 369 360 369 392 q 394 291 369 311 q 479 271 419 271 z "},"Ỡ":{"ha":1140,"x_min":21,"x_max":1272,"o":"m 776 956 q 712 963 743 956 q 632 988 681 971 q 565 1009 593 1001 q 510 1017 538 1017 q 351 960 421 1017 l 393 1156 q 462 1190 419 1175 q 546 1204 504 1204 q 611 1197 581 1204 q 682 1174 642 1189 q 752 1151 725 1158 q 811 1143 779 1143 q 897 1159 857 1143 q 960 1200 936 1175 l 918 1004 q 859 970 900 985 q 776 956 818 956 m 418 -14 q 125 63 229 -14 q 21 306 21 139 q 38 447 21 368 q 231 801 90 694 q 615 908 372 908 q 907 835 807 908 q 994 865 964 838 q 1038 956 1024 892 l 1272 956 q 1181 737 1240 811 q 1011 636 1121 663 q 1013 596 1013 624 q 996 447 1013 531 q 803 93 943 200 q 418 -14 664 -14 m 479 271 q 592 310 553 271 q 653 447 632 350 q 665 535 665 510 q 640 603 665 583 q 554 624 614 624 q 441 584 481 624 q 381 447 401 544 q 369 360 369 392 q 394 291 369 311 q 479 271 419 271 z "},"Ő":{"ha":1000,"x_min":21,"x_max":1101,"o":"m 442 1238 l 726 1238 l 510 956 l 250 956 l 442 1238 m 815 1238 l 1101 1238 l 883 956 l 624 956 l 815 1238 m 418 -14 q 125 63 229 -14 q 21 306 21 139 q 38 447 21 368 q 231 801 90 694 q 615 908 372 908 q 910 833 807 908 q 1013 593 1013 758 q 996 447 1013 529 q 803 93 943 200 q 418 -14 664 -14 m 479 271 q 592 310 553 271 q 653 447 632 350 q 665 535 665 510 q 640 603 665 583 q 554 624 614 624 q 441 584 481 624 q 381 447 401 544 q 369 360 369 392 q 394 291 369 311 q 479 271 419 271 z "},"Ō":{"ha":1000,"x_min":21,"x_max":1013,"o":"m 428 1207 l 911 1207 l 869 1013 l 386 1013 l 428 1207 m 418 -14 q 125 63 229 -14 q 21 306 21 139 q 38 447 21 368 q 231 801 90 694 q 615 908 372 908 q 910 833 807 908 q 1013 593 1013 758 q 996 447 1013 529 q 803 93 943 200 q 418 -14 664 -14 m 479 271 q 592 310 553 271 q 653 447 632 350 q 665 535 665 510 q 640 603 665 583 q 554 624 614 624 q 441 584 481 624 q 381 447 401 544 q 369 360 369 392 q 394 291 369 311 q 479 271 419 271 z "},"Ø":{"ha":1000,"x_min":21,"x_max":1013,"o":"m 199 22 q 21 304 21 93 q 38 447 21 368 q 231 801 90 694 q 615 908 372 908 q 742 899 674 908 l 782 963 l 889 963 l 833 874 q 1013 593 1013 806 q 996 447 1013 529 q 803 93 943 200 q 418 -14 664 -14 q 289 -3 353 -14 l 246 -74 l 139 -74 l 199 22 m 576 631 q 556 632 569 632 q 437 590 478 632 q 374 447 396 549 q 363 365 363 396 q 375 306 363 329 l 576 631 m 478 263 q 597 304 556 263 q 660 447 638 346 q 669 529 669 492 q 657 590 669 567 l 454 263 l 478 263 z "},"Ǿ":{"ha":1000,"x_min":21,"x_max":1013,"o":"m 628 1269 l 886 1269 l 674 956 l 428 956 l 628 1269 m 199 22 q 21 304 21 93 q 38 447 21 368 q 231 801 90 694 q 615 908 372 908 q 742 899 674 908 l 782 963 l 889 963 l 833 874 q 1013 593 1013 806 q 996 447 1013 529 q 803 93 943 200 q 418 -14 664 -14 q 289 -3 353 -14 l 246 -74 l 139 -74 l 199 22 m 576 631 q 556 632 569 632 q 437 590 478 632 q 374 447 396 549 q 363 365 363 396 q 375 306 363 329 l 576 631 m 478 263 q 597 304 556 263 q 660 447 638 346 q 669 529 669 492 q 657 590 669 567 l 454 263 l 478 263 z "},"Õ":{"ha":1000,"x_min":21,"x_max":1013,"o":"m 781 990 q 716 998 747 990 q 636 1022 685 1006 q 569 1044 597 1036 q 514 1051 542 1051 q 356 994 425 1051 l 397 1190 q 466 1224 424 1210 q 550 1239 508 1239 q 615 1231 585 1239 q 686 1208 646 1224 q 756 1185 729 1193 q 815 1178 783 1178 q 901 1194 861 1178 q 964 1235 940 1210 l 922 1039 q 863 1005 904 1019 q 781 990 822 990 m 418 -14 q 125 63 229 -14 q 21 306 21 139 q 38 447 21 368 q 231 801 90 694 q 615 908 372 908 q 910 833 807 908 q 1013 593 1013 758 q 996 447 1013 529 q 803 93 943 200 q 418 -14 664 -14 m 479 271 q 592 310 553 271 q 653 447 632 350 q 665 535 665 510 q 640 603 665 583 q 554 624 614 624 q 441 584 481 624 q 381 447 401 544 q 369 360 369 392 q 394 291 369 311 q 479 271 419 271 z "},"Œ":{"ha":1376,"x_min":21,"x_max":1467,"o":"m 418 -14 q 125 63 229 -14 q 21 306 21 139 q 38 447 21 368 q 231 801 90 694 q 615 908 372 908 q 765 894 701 908 l 1467 894 l 1415 653 l 1036 653 l 1019 572 l 1346 572 l 1293 322 l 967 322 l 949 242 l 1328 242 l 1278 0 l 585 0 q 418 -14 511 -14 m 479 271 q 592 310 553 271 q 653 447 632 350 q 665 535 665 510 q 640 603 665 583 q 554 624 614 624 q 441 584 481 624 q 381 447 401 544 q 369 360 369 392 q 394 291 369 311 q 479 271 419 271 z "},"P":{"ha":883,"x_min":-29,"x_max":938,"o":"m 160 894 l 663 894 q 867 822 796 894 q 938 633 938 750 q 928 546 938 589 q 789 295 894 390 q 510 200 683 200 l 349 200 l 307 0 l -29 0 l 160 894 m 486 463 q 552 485 526 463 q 586 546 578 507 q 590 575 590 563 q 528 632 590 632 l 440 632 l 404 463 l 486 463 z "},"Þ":{"ha":883,"x_min":-29,"x_max":915,"o":"m 160 894 l 496 894 l 475 794 l 642 794 q 843 720 771 794 q 915 528 915 646 q 907 446 915 488 q 768 195 874 290 q 489 100 663 100 l 328 100 l 307 0 l -29 0 l 160 894 m 465 363 q 531 385 506 363 q 565 446 557 407 q 568 475 568 457 q 507 532 568 532 l 419 532 l 383 363 l 465 363 z "},"Q":{"ha":1000,"x_min":21,"x_max":1013,"o":"m 489 -239 q 328 -188 383 -239 q 272 -50 272 -137 q 276 -1 272 -26 q 21 304 21 50 q 38 447 21 368 q 231 801 90 694 q 615 908 372 908 q 910 833 807 908 q 1013 593 1013 758 q 996 447 1013 529 q 838 122 950 231 q 536 -7 725 14 q 554 -39 536 -31 q 614 -47 572 -47 q 718 -31 667 -47 l 678 -217 q 594 -233 646 -226 q 489 -239 542 -239 m 479 271 q 592 310 553 271 q 653 447 632 350 q 665 535 665 510 q 640 603 665 583 q 554 624 614 624 q 441 584 481 624 q 381 447 401 544 q 369 360 369 392 q 394 291 369 311 q 479 271 419 271 z "},"R":{"ha":911,"x_min":-29,"x_max":939,"o":"m 160 894 l 663 894 q 865 823 790 894 q 939 638 939 751 q 931 560 939 600 q 715 289 894 386 q 734 268 728 278 q 743 243 740 258 l 797 0 l 447 0 l 401 199 q 391 221 399 214 q 368 228 383 228 l 354 228 l 307 0 l -29 0 l 160 894 m 493 490 q 589 560 575 490 q 592 583 592 576 q 576 620 592 608 q 528 632 561 632 l 440 632 l 411 490 l 493 490 z "},"Ŕ":{"ha":911,"x_min":-29,"x_max":939,"o":"m 601 1269 l 860 1269 l 647 956 l 401 956 l 601 1269 m 160 894 l 663 894 q 865 823 790 894 q 939 638 939 751 q 931 560 939 600 q 715 289 894 386 q 734 268 728 278 q 743 243 740 258 l 797 0 l 447 0 l 401 199 q 391 221 399 214 q 368 228 383 228 l 354 228 l 307 0 l -29 0 l 160 894 m 493 490 q 589 560 575 490 q 592 583 592 576 q 576 620 592 608 q 528 632 561 632 l 440 632 l 411 490 l 493 490 z "},"Ř":{"ha":911,"x_min":-29,"x_max":951,"o":"m 271 1256 l 500 1256 l 571 1107 l 708 1256 l 951 1256 l 644 956 l 450 956 l 271 1256 m 160 894 l 663 894 q 865 823 790 894 q 939 638 939 751 q 931 560 939 600 q 715 289 894 386 q 734 268 728 278 q 743 243 740 258 l 797 0 l 447 0 l 401 199 q 391 221 399 214 q 368 228 383 228 l 354 228 l 307 0 l -29 0 l 160 894 m 493 490 q 589 560 575 490 q 592 583 592 576 q 576 620 592 608 q 528 632 561 632 l 440 632 l 411 490 l 493 490 z "},"Ŗ":{"ha":911,"x_min":-29,"x_max":939,"o":"m 160 894 l 663 894 q 865 823 790 894 q 939 638 939 751 q 931 560 939 600 q 715 289 894 386 q 734 268 728 278 q 743 243 740 258 l 797 0 l 447 0 l 401 199 q 391 221 399 214 q 368 228 383 228 l 354 228 l 307 0 l -29 0 l 160 894 m 493 490 q 589 560 575 490 q 592 583 592 576 q 576 620 592 608 q 528 632 561 632 l 440 632 l 411 490 l 493 490 m 244 -51 l 493 -51 l 329 -397 l 121 -397 l 244 -51 z "},"Ṛ":{"ha":911,"x_min":-29,"x_max":939,"o":"m 160 894 l 663 894 q 865 823 790 894 q 939 638 939 751 q 931 560 939 600 q 715 289 894 386 q 734 268 728 278 q 743 243 740 258 l 797 0 l 447 0 l 401 199 q 391 221 399 214 q 368 228 383 228 l 354 228 l 307 0 l -29 0 l 160 894 m 493 490 q 589 560 575 490 q 592 583 592 576 q 576 620 592 608 q 528 632 561 632 l 440 632 l 411 490 l 493 490 m 228 -100 l 444 -100 l 403 -296 l 186 -296 l 228 -100 z "},"Ṝ":{"ha":911,"x_min":-29,"x_max":939,"o":"m 349 1192 l 832 1192 l 790 997 l 307 997 l 349 1192 m 160 894 l 663 894 q 865 823 790 894 q 939 638 939 751 q 931 560 939 600 q 715 289 894 386 q 734 268 728 278 q 743 243 740 258 l 797 0 l 447 0 l 401 199 q 391 221 399 214 q 368 228 383 228 l 354 228 l 307 0 l -29 0 l 160 894 m 493 490 q 589 560 575 490 q 592 583 592 576 q 576 620 592 608 q 528 632 561 632 l 440 632 l 411 490 l 493 490 m 228 -100 l 444 -100 l 403 -296 l 186 -296 l 228 -100 z "},"Ṟ":{"ha":911,"x_min":-29,"x_max":939,"o":"m 160 894 l 663 894 q 865 823 790 894 q 939 638 939 751 q 931 560 939 600 q 715 289 894 386 q 734 268 728 278 q 743 243 740 258 l 797 0 l 447 0 l 401 199 q 391 221 399 214 q 368 228 383 228 l 354 228 l 307 0 l -29 0 l 160 894 m 493 490 q 589 560 575 490 q 592 583 592 576 q 576 620 592 608 q 528 632 561 632 l 440 632 l 411 490 l 493 490 m 94 -94 l 578 -94 l 536 -289 l 53 -289 l 94 -94 z "},"S":{"ha":778,"x_min":-39,"x_max":814,"o":"m 276 -14 q 97 2 181 -14 q -39 49 14 18 l 14 300 q 151 247 74 268 q 292 226 228 226 q 363 238 336 226 q 389 272 389 250 q 373 295 389 286 q 315 319 357 304 q 244 346 276 332 q 109 432 151 385 q 67 551 67 479 q 76 629 67 589 q 213 841 107 774 q 529 908 319 908 q 677 895 594 908 q 814 865 760 882 l 760 613 q 535 667 640 667 q 419 628 419 667 q 437 607 419 615 q 503 585 454 599 l 540 574 q 700 488 653 539 q 747 358 747 436 q 736 268 747 321 q 597 59 706 132 q 276 -14 489 -14 z "},"Ś":{"ha":778,"x_min":-39,"x_max":832,"o":"m 574 1269 l 832 1269 l 619 956 l 374 956 l 574 1269 m 276 -14 q 97 2 181 -14 q -39 49 14 18 l 14 300 q 151 247 74 268 q 292 226 228 226 q 363 238 336 226 q 389 272 389 250 q 373 295 389 286 q 315 319 357 304 q 244 346 276 332 q 109 432 151 385 q 67 551 67 479 q 76 629 67 589 q 213 841 107 774 q 529 908 319 908 q 677 895 594 908 q 814 865 760 882 l 760 613 q 535 667 640 667 q 419 628 419 667 q 437 607 419 615 q 503 585 454 599 l 540 574 q 700 488 653 539 q 747 358 747 436 q 736 268 747 321 q 597 59 706 132 q 276 -14 489 -14 z "},"Š":{"ha":778,"x_min":-39,"x_max":922,"o":"m 242 1256 l 471 1256 l 542 1107 l 679 1256 l 922 1256 l 615 956 l 421 956 l 242 1256 m 276 -14 q 97 2 181 -14 q -39 49 14 18 l 14 300 q 151 247 74 268 q 292 226 228 226 q 363 238 336 226 q 389 272 389 250 q 373 295 389 286 q 315 319 357 304 q 244 346 276 332 q 109 432 151 385 q 67 551 67 479 q 76 629 67 589 q 213 841 107 774 q 529 908 319 908 q 677 895 594 908 q 814 865 760 882 l 760 613 q 535 667 640 667 q 419 628 419 667 q 437 607 419 615 q 503 585 454 599 l 540 574 q 700 488 653 539 q 747 358 747 436 q 736 268 747 321 q 597 59 706 132 q 276 -14 489 -14 z "},"Ş":{"ha":778,"x_min":-39,"x_max":814,"o":"m 185 -333 q 119 -330 158 -333 q 65 -322 79 -326 l 89 -215 q 167 -226 125 -226 q 239 -214 213 -226 q 269 -178 265 -201 q 226 -139 279 -139 l 124 -139 l 186 -10 q -39 49 39 4 l 14 300 q 151 247 74 268 q 292 226 228 226 q 363 238 336 226 q 389 272 389 250 q 373 295 389 286 q 315 319 357 304 q 244 346 276 332 q 109 432 151 385 q 67 551 67 479 q 76 629 67 589 q 213 841 107 774 q 529 908 319 908 q 677 895 594 908 q 814 865 760 882 l 760 613 q 535 667 640 667 q 419 628 419 667 q 437 607 419 615 q 503 585 454 599 l 540 574 q 700 488 653 539 q 747 358 747 436 q 736 268 747 321 q 618 73 708 144 q 353 -11 528 1 l 331 -51 q 422 -80 389 -51 q 454 -154 454 -108 q 451 -185 454 -175 q 368 -294 436 -254 q 185 -333 300 -333 z "},"Ŝ":{"ha":778,"x_min":-39,"x_max":838,"o":"m 463 1256 l 658 1256 l 838 956 l 614 956 l 539 1104 l 407 956 l 157 956 l 463 1256 m 276 -14 q 97 2 181 -14 q -39 49 14 18 l 14 300 q 151 247 74 268 q 292 226 228 226 q 363 238 336 226 q 389 272 389 250 q 373 295 389 286 q 315 319 357 304 q 244 346 276 332 q 109 432 151 385 q 67 551 67 479 q 76 629 67 589 q 213 841 107 774 q 529 908 319 908 q 677 895 594 908 q 814 865 760 882 l 760 613 q 535 667 640 667 q 419 628 419 667 q 437 607 419 615 q 503 585 454 599 l 540 574 q 700 488 653 539 q 747 358 747 436 q 736 268 747 321 q 597 59 706 132 q 276 -14 489 -14 z "},"Ș":{"ha":778,"x_min":-39,"x_max":814,"o":"m 276 -14 q 97 2 181 -14 q -39 49 14 18 l 14 300 q 151 247 74 268 q 292 226 228 226 q 363 238 336 226 q 389 272 389 250 q 373 295 389 286 q 315 319 357 304 q 244 346 276 332 q 109 432 151 385 q 67 551 67 479 q 76 629 67 589 q 213 841 107 774 q 529 908 319 908 q 677 895 594 908 q 814 865 760 882 l 760 613 q 535 667 640 667 q 419 628 419 667 q 437 607 419 615 q 503 585 454 599 l 540 574 q 700 488 653 539 q 747 358 747 436 q 736 268 747 321 q 597 59 706 132 q 276 -14 489 -14 m 174 -51 l 451 -51 l 321 -335 l 65 -335 l 174 -51 z "},"Ṡ":{"ha":778,"x_min":-39,"x_max":814,"o":"m 446 1193 l 663 1193 l 621 997 l 406 997 l 446 1193 m 276 -14 q 97 2 181 -14 q -39 49 14 18 l 14 300 q 151 247 74 268 q 292 226 228 226 q 363 238 336 226 q 389 272 389 250 q 373 295 389 286 q 315 319 357 304 q 244 346 276 332 q 109 432 151 385 q 67 551 67 479 q 76 629 67 589 q 213 841 107 774 q 529 908 319 908 q 677 895 594 908 q 814 865 760 882 l 760 613 q 535 667 640 667 q 419 628 419 667 q 437 607 419 615 q 503 585 454 599 l 540 574 q 700 488 653 539 q 747 358 747 436 q 736 268 747 321 q 597 59 706 132 q 276 -14 489 -14 z "},"Ṣ":{"ha":778,"x_min":-39,"x_max":814,"o":"m 276 -14 q 97 2 181 -14 q -39 49 14 18 l 14 300 q 151 247 74 268 q 292 226 228 226 q 363 238 336 226 q 389 272 389 250 q 373 295 389 286 q 315 319 357 304 q 244 346 276 332 q 109 432 151 385 q 67 551 67 479 q 76 629 67 589 q 213 841 107 774 q 529 908 319 908 q 677 895 594 908 q 814 865 760 882 l 760 613 q 535 667 640 667 q 419 628 419 667 q 437 607 419 615 q 503 585 454 599 l 540 574 q 700 488 653 539 q 747 358 747 436 q 736 268 747 321 q 597 59 706 132 q 276 -14 489 -14 m 178 -100 l 394 -100 l 353 -296 l 136 -296 l 178 -100 z "},"ẞ":{"ha":913,"x_min":-36,"x_max":911,"o":"m 496 -14 q 395 -6 443 -14 q 324 17 347 3 l 368 226 q 406 217 382 221 q 450 214 431 214 q 509 228 490 214 q 528 272 528 242 q 513 301 528 292 q 463 311 497 311 l 388 311 l 419 460 l 597 596 q 578 626 600 614 q 511 639 557 639 q 396 553 415 639 l 279 0 l -36 0 l 82 557 q 240 815 117 721 q 569 908 363 908 q 751 874 674 908 q 870 777 829 839 q 911 636 911 715 q 903 568 911 604 l 715 425 l 735 425 q 832 386 796 425 q 868 281 868 347 q 863 229 868 253 q 743 47 838 107 q 496 -14 649 -14 z "},"Ə":{"ha":978,"x_min":17,"x_max":983,"o":"m 403 -14 q 122 69 226 -14 q 17 301 17 151 q 28 401 17 343 l 61 558 l 690 558 q 672 640 692 610 q 601 683 653 669 q 453 697 550 697 q 279 677 385 697 q 121 636 174 657 l 164 840 q 353 889 246 869 q 571 908 461 908 q 789 864 696 908 q 933 738 882 819 q 983 546 983 656 q 971 433 983 492 q 790 102 925 218 q 403 -14 654 -14 m 446 183 q 646 349 611 183 l 304 349 l 299 322 q 294 288 294 306 q 329 213 294 242 q 446 183 364 183 z "},"T":{"ha":778,"x_min":53,"x_max":896,"o":"m 281 653 l 53 653 l 104 894 l 896 894 l 844 653 l 617 653 l 479 0 l 143 0 l 281 653 z "},"Ŧ":{"ha":778,"x_min":53,"x_max":896,"o":"m 213 332 l 106 332 l 151 546 l 258 546 l 281 653 l 53 653 l 104 894 l 896 894 l 844 653 l 617 653 l 594 546 l 688 546 l 642 332 l 549 332 l 479 0 l 143 0 l 213 332 z "},"Ť":{"ha":778,"x_min":53,"x_max":918,"o":"m 238 1256 l 467 1256 l 538 1107 l 675 1256 l 918 1256 l 611 956 l 417 956 l 238 1256 m 281 653 l 53 653 l 104 894 l 896 894 l 844 653 l 617 653 l 479 0 l 143 0 l 281 653 z "},"Ţ":{"ha":778,"x_min":53,"x_max":896,"o":"m 217 -333 q 151 -330 190 -333 q 97 -322 111 -326 l 121 -215 q 199 -226 157 -226 q 271 -214 244 -226 q 301 -178 297 -201 q 258 -139 311 -139 l 156 -139 l 224 0 l 143 0 l 281 653 l 53 653 l 104 894 l 896 894 l 844 653 l 617 653 l 479 0 l 392 0 l 363 -51 q 453 -80 421 -51 q 486 -154 486 -108 q 483 -185 486 -175 q 400 -294 468 -254 q 217 -333 332 -333 z "},"Ț":{"ha":778,"x_min":53,"x_max":896,"o":"m 281 653 l 53 653 l 104 894 l 896 894 l 844 653 l 617 653 l 479 0 l 143 0 l 281 653 m 190 -51 l 439 -51 l 275 -397 l 67 -397 l 190 -51 z "},"Ṭ":{"ha":778,"x_min":53,"x_max":896,"o":"m 281 653 l 53 653 l 104 894 l 896 894 l 844 653 l 617 653 l 479 0 l 143 0 l 281 653 m 182 -72 l 399 -72 l 357 -268 l 140 -268 l 182 -72 z "},"Ṯ":{"ha":778,"x_min":14,"x_max":896,"o":"m 281 653 l 53 653 l 104 894 l 896 894 l 844 653 l 617 653 l 479 0 l 143 0 l 281 653 m 56 -67 l 539 -67 l 497 -261 l 14 -261 l 56 -67 z "},"U":{"ha":978,"x_min":31,"x_max":1047,"o":"m 407 -14 q 132 65 233 -14 q 31 278 31 143 q 39 358 31 317 l 153 894 l 489 894 l 383 396 q 375 336 375 361 q 397 285 375 299 q 468 271 418 271 q 561 300 531 271 q 606 396 592 329 l 711 894 l 1047 894 l 932 353 q 763 79 894 172 q 407 -14 631 -14 z "},"Ú":{"ha":978,"x_min":31,"x_max":1047,"o":"m 692 1269 l 950 1269 l 738 956 l 492 956 l 692 1269 m 407 -14 q 132 65 233 -14 q 31 278 31 143 q 39 358 31 317 l 153 894 l 489 894 l 383 396 q 375 336 375 361 q 397 285 375 299 q 468 271 418 271 q 561 300 531 271 q 606 396 592 329 l 711 894 l 1047 894 l 932 353 q 763 79 894 172 q 407 -14 631 -14 z "},"Ŭ":{"ha":978,"x_min":31,"x_max":1047,"o":"m 613 956 q 430 1013 496 956 q 364 1175 364 1069 q 374 1261 364 1218 l 578 1261 q 572 1215 572 1240 q 642 1139 572 1139 q 719 1173 690 1139 q 760 1261 747 1207 l 985 1261 q 853 1035 953 1114 q 613 956 754 956 m 407 -14 q 132 65 233 -14 q 31 278 31 143 q 39 358 31 317 l 153 894 l 489 894 l 383 396 q 375 336 375 361 q 397 285 375 299 q 468 271 418 271 q 561 300 531 271 q 606 396 592 329 l 711 894 l 1047 894 l 932 353 q 763 79 894 172 q 407 -14 631 -14 z "},"Ǔ":{"ha":978,"x_min":31,"x_max":1047,"o":"m 338 1256 l 567 1256 l 638 1107 l 775 1256 l 1018 1256 l 711 956 l 517 956 l 338 1256 m 407 -14 q 132 65 233 -14 q 31 278 31 143 q 39 358 31 317 l 153 894 l 489 894 l 383 396 q 375 336 375 361 q 397 285 375 299 q 468 271 418 271 q 561 300 531 271 q 606 396 592 329 l 711 894 l 1047 894 l 932 353 q 763 79 894 172 q 407 -14 631 -14 z "},"Û":{"ha":978,"x_min":31,"x_max":1047,"o":"m 579 1256 l 775 1256 l 954 956 l 731 956 l 656 1104 l 524 956 l 274 956 l 579 1256 m 407 -14 q 132 65 233 -14 q 31 278 31 143 q 39 358 31 317 l 153 894 l 489 894 l 383 396 q 375 336 375 361 q 397 285 375 299 q 468 271 418 271 q 561 300 531 271 q 606 396 592 329 l 711 894 l 1047 894 l 932 353 q 763 79 894 172 q 407 -14 631 -14 z "},"Ü":{"ha":978,"x_min":31,"x_max":1047,"o":"m 393 1193 l 608 1193 l 567 997 l 351 997 l 393 1193 m 718 1193 l 935 1193 l 893 997 l 676 997 l 718 1193 m 407 -14 q 132 65 233 -14 q 31 278 31 143 q 39 358 31 317 l 153 894 l 489 894 l 383 396 q 375 336 375 361 q 397 285 375 299 q 468 271 418 271 q 561 300 531 271 q 606 396 592 329 l 711 894 l 1047 894 l 932 353 q 763 79 894 172 q 407 -14 631 -14 z "},"Ǘ":{"ha":978,"x_min":31,"x_max":1047,"o":"m 668 1399 l 915 1399 l 771 1197 l 549 1197 l 668 1399 m 392 1154 l 603 1154 l 564 969 l 353 969 l 392 1154 m 710 1154 l 921 1154 l 882 969 l 671 969 l 710 1154 m 407 -14 q 132 65 233 -14 q 31 278 31 143 q 39 358 31 317 l 153 894 l 489 894 l 383 396 q 375 336 375 361 q 397 285 375 299 q 468 271 418 271 q 561 300 531 271 q 606 396 592 329 l 711 894 l 1047 894 l 932 353 q 763 79 894 172 q 407 -14 631 -14 z "},"Ǚ":{"ha":978,"x_min":31,"x_max":1047,"o":"m 388 1399 l 625 1399 l 682 1297 l 783 1399 l 1029 1399 l 782 1197 l 553 1197 l 388 1399 m 386 1154 l 597 1154 l 558 969 l 347 969 l 386 1154 m 704 1154 l 914 1154 l 875 969 l 665 969 l 704 1154 m 407 -14 q 132 65 233 -14 q 31 278 31 143 q 39 358 31 317 l 153 894 l 489 894 l 383 396 q 375 336 375 361 q 397 285 375 299 q 468 271 418 271 q 561 300 531 271 q 606 396 592 329 l 711 894 l 1047 894 l 932 353 q 763 79 894 172 q 407 -14 631 -14 z "},"Ǜ":{"ha":978,"x_min":31,"x_max":1047,"o":"m 510 1447 l 757 1447 l 793 1246 l 571 1246 l 510 1447 m 401 1203 l 613 1203 l 574 1018 l 363 1018 l 401 1203 m 719 1203 l 931 1203 l 892 1018 l 681 1018 l 719 1203 m 407 -14 q 132 65 233 -14 q 31 278 31 143 q 39 358 31 317 l 153 894 l 489 894 l 383 396 q 375 336 375 361 q 397 285 375 299 q 468 271 418 271 q 561 300 531 271 q 606 396 592 329 l 711 894 l 1047 894 l 932 353 q 763 79 894 172 q 407 -14 631 -14 z "},"Ǖ":{"ha":978,"x_min":31,"x_max":1047,"o":"m 472 1428 l 956 1428 l 914 1233 l 431 1233 l 472 1428 m 388 1164 l 603 1164 l 561 968 l 346 968 l 388 1164 m 713 1164 l 929 1164 l 888 968 l 671 968 l 713 1164 m 407 -14 q 132 65 233 -14 q 31 278 31 143 q 39 358 31 317 l 153 894 l 489 894 l 383 396 q 375 336 375 361 q 397 285 375 299 q 468 271 418 271 q 561 300 531 271 q 606 396 592 329 l 711 894 l 1047 894 l 932 353 q 763 79 894 172 q 407 -14 631 -14 z "},"Ụ":{"ha":978,"x_min":31,"x_max":1047,"o":"m 407 -14 q 132 65 233 -14 q 31 278 31 143 q 39 358 31 317 l 153 894 l 489 894 l 383 396 q 375 336 375 361 q 397 285 375 299 q 468 271 418 271 q 561 300 531 271 q 606 396 592 329 l 711 894 l 1047 894 l 932 353 q 763 79 894 172 q 407 -14 631 -14 m 282 -100 l 499 -100 l 457 -296 l 240 -296 l 282 -100 z "},"Ù":{"ha":978,"x_min":31,"x_max":1047,"o":"m 413 1269 l 671 1269 l 738 956 l 492 956 l 413 1269 m 407 -14 q 132 65 233 -14 q 31 278 31 143 q 39 358 31 317 l 153 894 l 489 894 l 383 396 q 375 336 375 361 q 397 285 375 299 q 468 271 418 271 q 561 300 531 271 q 606 396 592 329 l 711 894 l 1047 894 l 932 353 q 763 79 894 172 q 407 -14 631 -14 z "},"Ủ":{"ha":978,"x_min":31,"x_max":1047,"o":"m 514 1067 q 643 1121 633 1074 q 633 1151 649 1142 q 582 1160 618 1160 q 501 1146 540 1160 l 529 1276 q 714 1297 608 1297 q 849 1264 801 1297 q 896 1176 896 1231 q 893 1149 896 1168 q 847 1056 879 1088 q 749 1004 814 1024 l 738 954 l 490 954 l 514 1067 m 407 -14 q 132 65 233 -14 q 31 278 31 143 q 39 358 31 317 l 153 894 l 489 894 l 383 396 q 375 336 375 361 q 397 285 375 299 q 468 271 418 271 q 561 300 531 271 q 606 396 592 329 l 711 894 l 1047 894 l 932 353 q 763 79 894 172 q 407 -14 631 -14 z "},"Ư":{"ha":1264,"x_min":31,"x_max":1396,"o":"m 407 -14 q 132 65 233 -14 q 31 278 31 143 q 39 358 31 317 l 153 894 l 489 894 l 383 396 q 375 336 375 361 q 397 285 375 299 q 468 271 418 271 q 561 300 531 271 q 606 396 592 329 l 711 894 l 1047 894 l 1035 835 q 1123 863 1097 838 q 1161 956 1149 889 l 1396 956 q 1322 759 1369 831 q 1194 656 1274 688 q 989 621 1115 624 l 932 353 q 763 79 894 172 q 407 -14 631 -14 z "},"Ứ":{"ha":1264,"x_min":31,"x_max":1396,"o":"m 694 1269 l 953 1269 l 740 956 l 494 956 l 694 1269 m 407 -14 q 132 65 233 -14 q 31 278 31 143 q 39 358 31 317 l 153 894 l 489 894 l 383 396 q 375 336 375 361 q 397 285 375 299 q 468 271 418 271 q 561 300 531 271 q 606 396 592 329 l 711 894 l 1047 894 l 1035 835 q 1123 863 1097 838 q 1161 956 1149 889 l 1396 956 q 1322 759 1369 831 q 1194 656 1274 688 q 989 621 1115 624 l 932 353 q 763 79 894 172 q 407 -14 631 -14 z "},"Ự":{"ha":1264,"x_min":31,"x_max":1396,"o":"m 407 -14 q 132 65 233 -14 q 31 278 31 143 q 39 358 31 317 l 153 894 l 489 894 l 383 396 q 375 336 375 361 q 397 285 375 299 q 468 271 418 271 q 561 300 531 271 q 606 396 592 329 l 711 894 l 1047 894 l 1035 835 q 1123 863 1097 838 q 1161 956 1149 889 l 1396 956 q 1322 759 1369 831 q 1194 656 1274 688 q 989 621 1115 624 l 932 353 q 763 79 894 172 q 407 -14 631 -14 m 285 -100 l 501 -100 l 460 -296 l 243 -296 l 285 -100 z "},"Ừ":{"ha":1264,"x_min":31,"x_max":1396,"o":"m 424 1269 l 682 1269 l 749 956 l 503 956 l 424 1269 m 407 -14 q 132 65 233 -14 q 31 278 31 143 q 39 358 31 317 l 153 894 l 489 894 l 383 396 q 375 336 375 361 q 397 285 375 299 q 468 271 418 271 q 561 300 531 271 q 606 396 592 329 l 711 894 l 1047 894 l 1035 835 q 1123 863 1097 838 q 1161 956 1149 889 l 1396 956 q 1322 759 1369 831 q 1194 656 1274 688 q 989 621 1115 624 l 932 353 q 763 79 894 172 q 407 -14 631 -14 z "},"Ử":{"ha":1264,"x_min":31,"x_max":1396,"o":"m 517 1068 q 646 1122 636 1075 q 636 1152 651 1143 q 585 1161 621 1161 q 504 1147 543 1161 l 532 1278 q 717 1299 611 1299 q 851 1265 804 1299 q 899 1178 899 1232 q 896 1150 899 1169 q 849 1057 882 1089 q 751 1006 817 1025 l 740 956 l 493 956 l 517 1068 m 407 -14 q 132 65 233 -14 q 31 278 31 143 q 39 358 31 317 l 153 894 l 489 894 l 383 396 q 375 336 375 361 q 397 285 375 299 q 468 271 418 271 q 561 300 531 271 q 606 396 592 329 l 711 894 l 1047 894 l 1035 835 q 1123 863 1097 838 q 1161 956 1149 889 l 1396 956 q 1322 759 1369 831 q 1194 656 1274 688 q 989 621 1115 624 l 932 353 q 763 79 894 172 q 407 -14 631 -14 z "},"Ữ":{"ha":1264,"x_min":31,"x_max":1396,"o":"m 769 956 q 705 963 736 956 q 625 988 674 971 q 558 1009 586 1001 q 503 1017 531 1017 q 344 960 414 1017 l 386 1156 q 455 1190 413 1175 q 539 1204 497 1204 q 604 1197 574 1204 q 675 1174 635 1189 q 745 1151 718 1158 q 804 1143 772 1143 q 890 1159 850 1143 q 953 1200 929 1175 l 911 1004 q 852 970 893 985 q 769 956 811 956 m 407 -14 q 132 65 233 -14 q 31 278 31 143 q 39 358 31 317 l 153 894 l 489 894 l 383 396 q 375 336 375 361 q 397 285 375 299 q 468 271 418 271 q 561 300 531 271 q 606 396 592 329 l 711 894 l 1047 894 l 1035 835 q 1123 863 1097 838 q 1161 956 1149 889 l 1396 956 q 1322 759 1369 831 q 1194 656 1274 688 q 989 621 1115 624 l 932 353 q 763 79 894 172 q 407 -14 631 -14 z "},"Ű":{"ha":978,"x_min":31,"x_max":1129,"o":"m 469 1238 l 754 1238 l 538 956 l 278 956 l 469 1238 m 843 1238 l 1129 1238 l 911 956 l 651 956 l 843 1238 m 407 -14 q 132 65 233 -14 q 31 278 31 143 q 39 358 31 317 l 153 894 l 489 894 l 383 396 q 375 336 375 361 q 397 285 375 299 q 468 271 418 271 q 561 300 531 271 q 606 396 592 329 l 711 894 l 1047 894 l 932 353 q 763 79 894 172 q 407 -14 631 -14 z "},"Ū":{"ha":978,"x_min":31,"x_max":1047,"o":"m 425 1206 l 908 1206 l 867 1011 l 383 1011 l 425 1206 m 407 -14 q 132 65 233 -14 q 31 278 31 143 q 39 358 31 317 l 153 894 l 489 894 l 383 396 q 375 336 375 361 q 397 285 375 299 q 468 271 418 271 q 561 300 531 271 q 606 396 592 329 l 711 894 l 1047 894 l 932 353 q 763 79 894 172 q 407 -14 631 -14 z "},"Ų":{"ha":978,"x_min":31,"x_max":1047,"o":"m 344 -306 q 212 -278 258 -306 q 165 -194 165 -250 q 203 -85 165 -135 q 299 -4 242 -35 q 101 92 172 18 q 31 278 31 167 q 39 358 31 317 l 153 894 l 489 894 l 383 396 q 375 336 375 361 q 397 285 375 299 q 468 271 418 271 q 561 300 531 271 q 606 396 592 329 l 711 894 l 1047 894 l 932 353 q 786 98 897 190 q 490 -10 675 6 q 417 -106 428 -56 q 415 -117 415 -110 q 430 -142 415 -135 q 472 -149 444 -149 q 512 -144 490 -149 q 546 -133 533 -140 l 515 -281 q 438 -298 485 -290 q 344 -306 392 -306 z "},"Ů":{"ha":978,"x_min":31,"x_max":1047,"o":"m 614 956 q 486 999 532 956 q 440 1110 440 1042 q 444 1154 440 1132 q 530 1298 463 1242 q 699 1354 597 1354 q 828 1311 782 1354 q 875 1200 875 1268 q 869 1154 875 1185 q 783 1011 851 1067 q 614 956 715 956 m 640 1083 q 708 1110 683 1083 q 732 1172 732 1136 q 717 1210 732 1196 q 671 1225 701 1225 q 603 1199 628 1225 q 579 1136 579 1172 q 594 1098 579 1113 q 640 1083 610 1083 m 407 -14 q 132 65 233 -14 q 31 278 31 143 q 39 358 31 317 l 153 894 l 489 894 l 383 396 q 375 336 375 361 q 397 285 375 299 q 468 271 418 271 q 561 300 531 271 q 606 396 592 329 l 711 894 l 1047 894 l 932 353 q 763 79 894 172 q 407 -14 631 -14 z "},"Ũ":{"ha":978,"x_min":31,"x_max":1047,"o":"m 764 963 q 699 970 731 963 q 619 994 668 978 q 553 1016 581 1008 q 497 1024 525 1024 q 339 967 408 1024 l 381 1163 q 449 1197 407 1182 q 533 1211 492 1211 q 599 1203 568 1211 q 669 1181 629 1196 q 740 1158 713 1165 q 799 1150 767 1150 q 884 1166 844 1150 q 947 1207 924 1182 l 906 1011 q 847 977 888 992 q 764 963 806 963 m 407 -14 q 132 65 233 -14 q 31 278 31 143 q 39 358 31 317 l 153 894 l 489 894 l 383 396 q 375 336 375 361 q 397 285 375 299 q 468 271 418 271 q 561 300 531 271 q 606 396 592 329 l 711 894 l 1047 894 l 932 353 q 763 79 894 172 q 407 -14 631 -14 z "},"V":{"ha":1079,"x_min":132,"x_max":1169,"o":"m 132 894 l 472 894 l 535 397 l 810 894 l 1169 894 l 636 0 l 288 0 l 132 894 z "},"W":{"ha":1265,"x_min":132,"x_max":1356,"o":"m 132 894 l 460 894 l 456 553 l 547 743 l 579 894 l 853 894 l 881 551 l 1029 894 l 1356 894 l 960 0 l 676 0 l 643 353 l 454 0 l 151 0 l 132 894 z "},"Ẃ":{"ha":1265,"x_min":132,"x_max":1356,"o":"m 800 1269 l 1058 1269 l 846 956 l 600 956 l 800 1269 m 132 894 l 460 894 l 456 553 l 547 743 l 579 894 l 853 894 l 881 551 l 1029 894 l 1356 894 l 960 0 l 676 0 l 643 353 l 454 0 l 151 0 l 132 894 z "},"Ŵ":{"ha":1265,"x_min":132,"x_max":1356,"o":"m 728 1256 l 924 1256 l 1103 956 l 879 956 l 804 1104 l 672 956 l 422 956 l 728 1256 m 132 894 l 460 894 l 456 553 l 547 743 l 579 894 l 853 894 l 881 551 l 1029 894 l 1356 894 l 960 0 l 676 0 l 643 353 l 454 0 l 151 0 l 132 894 z "},"Ẅ":{"ha":1265,"x_min":132,"x_max":1356,"o":"m 542 1193 l 757 1193 l 715 997 l 500 997 l 542 1193 m 867 1193 l 1083 1193 l 1042 997 l 825 997 l 867 1193 m 132 894 l 460 894 l 456 553 l 547 743 l 579 894 l 853 894 l 881 551 l 1029 894 l 1356 894 l 960 0 l 676 0 l 643 353 l 454 0 l 151 0 l 132 894 z "},"Ẁ":{"ha":1265,"x_min":132,"x_max":1356,"o":"m 539 1269 l 797 1269 l 864 956 l 618 956 l 539 1269 m 132 894 l 460 894 l 456 553 l 547 743 l 579 894 l 853 894 l 881 551 l 1029 894 l 1356 894 l 960 0 l 676 0 l 643 353 l 454 0 l 151 0 l 132 894 z "},"X":{"ha":1124,"x_min":-57,"x_max":1197,"o":"m 378 457 l 149 894 l 550 894 l 638 729 l 796 894 l 1197 894 l 782 457 l 1025 0 l 618 0 l 522 182 l 350 0 l -57 0 l 378 457 z "},"Y":{"ha":1025,"x_min":132,"x_max":1115,"o":"m 335 325 l 132 894 l 472 894 l 554 610 l 756 894 l 1115 894 l 671 325 l 603 0 l 267 0 l 335 325 z "},"Ý":{"ha":1025,"x_min":132,"x_max":1115,"o":"m 714 1269 l 972 1269 l 760 956 l 514 956 l 714 1269 m 335 325 l 132 894 l 472 894 l 554 610 l 756 894 l 1115 894 l 671 325 l 603 0 l 267 0 l 335 325 z "},"Ŷ":{"ha":1025,"x_min":132,"x_max":1115,"o":"m 603 1256 l 799 1256 l 978 956 l 754 956 l 679 1104 l 547 956 l 297 956 l 603 1256 m 335 325 l 132 894 l 472 894 l 554 610 l 756 894 l 1115 894 l 671 325 l 603 0 l 267 0 l 335 325 z "},"Ÿ":{"ha":1025,"x_min":132,"x_max":1115,"o":"m 417 1193 l 632 1193 l 590 997 l 375 997 l 417 1193 m 742 1193 l 958 1193 l 917 997 l 700 997 l 742 1193 m 335 325 l 132 894 l 472 894 l 554 610 l 756 894 l 1115 894 l 671 325 l 603 0 l 267 0 l 335 325 z "},"Ẏ":{"ha":1025,"x_min":132,"x_max":1115,"o":"m 578 1193 l 794 1193 l 753 997 l 538 997 l 578 1193 m 335 325 l 132 894 l 472 894 l 554 610 l 756 894 l 1115 894 l 671 325 l 603 0 l 267 0 l 335 325 z "},"Ỵ":{"ha":1025,"x_min":132,"x_max":1115,"o":"m 335 325 l 132 894 l 472 894 l 554 610 l 756 894 l 1115 894 l 671 325 l 603 0 l 267 0 l 335 325 m 306 -100 l 522 -100 l 481 -296 l 264 -296 l 306 -100 z "},"Ỳ":{"ha":1025,"x_min":132,"x_max":1115,"o":"m 440 1269 l 699 1269 l 765 956 l 519 956 l 440 1269 m 335 325 l 132 894 l 472 894 l 554 610 l 756 894 l 1115 894 l 671 325 l 603 0 l 267 0 l 335 325 z "},"Ỷ":{"ha":1025,"x_min":132,"x_max":1115,"o":"m 540 1067 q 669 1121 660 1074 q 660 1151 675 1142 q 608 1160 644 1160 q 528 1146 567 1160 l 556 1276 q 740 1297 635 1297 q 875 1264 828 1297 q 922 1176 922 1231 q 919 1149 922 1168 q 873 1056 906 1088 q 775 1004 840 1024 l 764 954 l 517 954 l 540 1067 m 335 325 l 132 894 l 472 894 l 554 610 l 756 894 l 1115 894 l 671 325 l 603 0 l 267 0 l 335 325 z "},"Ỹ":{"ha":1025,"x_min":132,"x_max":1115,"o":"m 788 963 q 723 970 754 963 q 643 994 692 978 q 576 1016 604 1008 q 521 1024 549 1024 q 363 967 432 1024 l 404 1163 q 473 1197 431 1182 q 557 1211 515 1211 q 622 1203 592 1211 q 693 1181 653 1196 q 763 1158 736 1165 q 822 1150 790 1150 q 908 1166 868 1150 q 971 1207 947 1182 l 929 1011 q 870 977 911 992 q 788 963 829 963 m 335 325 l 132 894 l 472 894 l 554 610 l 756 894 l 1115 894 l 671 325 l 603 0 l 267 0 l 335 325 z "},"Z":{"ha":814,"x_min":-57,"x_max":903,"o":"m -22 165 l 401 619 l 93 619 l 151 894 l 903 894 l 863 704 l 444 256 l 776 256 l 722 0 l -57 0 l -22 165 z "},"Ź":{"ha":814,"x_min":-57,"x_max":903,"o":"m 592 1269 l 850 1269 l 638 956 l 392 956 l 592 1269 m -22 165 l 401 619 l 93 619 l 151 894 l 903 894 l 863 704 l 444 256 l 776 256 l 722 0 l -57 0 l -22 165 z "},"Ž":{"ha":814,"x_min":-57,"x_max":964,"o":"m 283 1256 l 513 1256 l 583 1107 l 721 1256 l 964 1256 l 657 956 l 463 956 l 283 1256 m -22 165 l 401 619 l 93 619 l 151 894 l 903 894 l 863 704 l 444 256 l 776 256 l 722 0 l -57 0 l -22 165 z "},"Ż":{"ha":814,"x_min":-57,"x_max":903,"o":"m 488 1193 l 704 1193 l 663 997 l 447 997 l 488 1193 m -22 165 l 401 619 l 93 619 l 151 894 l 903 894 l 863 704 l 444 256 l 776 256 l 722 0 l -57 0 l -22 165 z "},"Ẓ":{"ha":814,"x_min":-57,"x_max":903,"o":"m -22 165 l 401 619 l 93 619 l 151 894 l 903 894 l 863 704 l 444 256 l 776 256 l 722 0 l -57 0 l -22 165 m 229 -100 l 446 -100 l 404 -296 l 188 -296 l 229 -100 z "},"a":{"ha":872,"x_min":-6,"x_max":885,"o":"m 233 -14 q 57 40 119 -14 q -6 203 -6 94 q 6 300 -6 242 q 144 575 43 478 q 401 672 246 672 q 488 659 450 672 q 547 624 525 646 l 554 658 l 885 658 l 746 0 l 454 0 l 447 43 q 349 1 404 17 q 233 -14 293 -14 m 399 226 q 461 247 433 226 l 496 411 q 473 427 485 422 q 443 432 461 432 q 351 311 376 432 q 347 274 347 289 q 360 236 347 246 q 399 226 374 226 z "},"á":{"ha":872,"x_min":-6,"x_max":885,"o":"m 564 1039 l 822 1039 l 610 725 l 364 725 l 564 1039 m 233 -14 q 57 40 119 -14 q -6 203 -6 94 q 6 300 -6 242 q 144 575 43 478 q 401 672 246 672 q 488 659 450 672 q 547 624 525 646 l 554 658 l 885 658 l 746 0 l 454 0 l 447 43 q 349 1 404 17 q 233 -14 293 -14 m 399 226 q 461 247 433 226 l 496 411 q 473 427 485 422 q 443 432 461 432 q 351 311 376 432 q 347 274 347 289 q 360 236 347 246 q 399 226 374 226 z "},"ă":{"ha":872,"x_min":-6,"x_max":885,"o":"m 510 725 q 327 782 393 725 q 261 944 261 839 q 271 1031 261 988 l 475 1031 q 469 985 469 1010 q 539 908 469 908 q 616 942 588 908 q 657 1031 644 976 l 882 1031 q 751 804 850 883 q 510 725 651 725 m 233 -14 q 57 40 119 -14 q -6 203 -6 94 q 6 300 -6 242 q 144 575 43 478 q 401 672 246 672 q 488 659 450 672 q 547 624 525 646 l 554 658 l 885 658 l 746 0 l 454 0 l 447 43 q 349 1 404 17 q 233 -14 293 -14 m 399 226 q 461 247 433 226 l 496 411 q 473 427 485 422 q 443 432 461 432 q 351 311 376 432 q 347 274 347 289 q 360 236 347 246 q 399 226 374 226 z "},"ắ":{"ha":872,"x_min":-6,"x_max":885,"o":"m 629 1251 l 844 1251 l 681 1013 l 475 1013 l 629 1251 m 508 725 q 343 774 406 725 q 281 915 281 822 q 289 986 281 949 l 465 986 q 460 950 460 958 q 532 888 460 888 q 608 914 582 888 q 644 986 633 940 l 840 986 q 726 790 813 856 q 508 725 639 725 m 233 -14 q 57 40 119 -14 q -6 203 -6 94 q 6 300 -6 242 q 144 575 43 478 q 401 672 246 672 q 488 659 450 672 q 547 624 525 646 l 554 658 l 885 658 l 746 0 l 454 0 l 447 43 q 349 1 404 17 q 233 -14 293 -14 m 399 226 q 461 247 433 226 l 496 411 q 473 427 485 422 q 443 432 461 432 q 351 311 376 432 q 347 274 347 289 q 360 236 347 246 q 399 226 374 226 z "},"ặ":{"ha":872,"x_min":-6,"x_max":893,"o":"m 521 725 q 338 782 404 725 q 272 944 272 839 q 282 1031 272 988 l 486 1031 q 481 985 481 1010 q 550 908 481 908 q 627 942 599 908 q 668 1031 656 976 l 893 1031 q 762 804 861 883 q 521 725 663 725 m 233 -14 q 57 40 119 -14 q -6 203 -6 94 q 6 300 -6 242 q 144 575 43 478 q 401 672 246 672 q 488 659 450 672 q 547 624 525 646 l 554 658 l 885 658 l 746 0 l 454 0 l 447 43 q 349 1 404 17 q 233 -14 293 -14 m 399 226 q 461 247 433 226 l 496 411 q 473 427 485 422 q 443 432 461 432 q 351 311 376 432 q 347 274 347 289 q 360 236 347 246 q 399 226 374 226 m 242 -100 l 458 -100 l 417 -296 l 200 -296 l 242 -100 z "},"ằ":{"ha":872,"x_min":-6,"x_max":885,"o":"m 390 1251 l 607 1251 l 661 1013 l 456 1013 l 390 1251 m 504 725 q 339 774 401 725 q 276 915 276 822 q 285 986 276 949 l 461 986 q 456 950 456 958 q 528 888 456 888 q 603 914 578 888 q 640 986 629 940 l 836 986 q 722 790 808 856 q 504 725 635 725 m 233 -14 q 57 40 119 -14 q -6 203 -6 94 q 6 300 -6 242 q 144 575 43 478 q 401 672 246 672 q 488 659 450 672 q 547 624 525 646 l 554 658 l 885 658 l 746 0 l 454 0 l 447 43 q 349 1 404 17 q 233 -14 293 -14 m 399 226 q 461 247 433 226 l 496 411 q 473 427 485 422 q 443 432 461 432 q 351 311 376 432 q 347 274 347 289 q 360 236 347 246 q 399 226 374 226 z "},"ẳ":{"ha":872,"x_min":-6,"x_max":885,"o":"m 481 1101 q 567 1117 539 1103 q 594 1156 594 1132 q 581 1176 594 1171 q 540 1182 568 1182 q 469 1167 513 1182 l 494 1281 q 571 1293 525 1288 q 658 1299 617 1299 q 774 1269 733 1299 q 814 1194 814 1240 q 811 1171 814 1188 q 772 1095 800 1122 q 689 1051 744 1068 l 681 1014 l 463 1014 l 481 1101 m 511 725 q 346 774 408 725 q 283 915 283 822 q 292 986 283 949 l 468 986 q 463 950 463 958 q 535 888 463 888 q 610 914 585 888 q 647 986 636 940 l 843 986 q 728 790 815 856 q 511 725 642 725 m 233 -14 q 57 40 119 -14 q -6 203 -6 94 q 6 300 -6 242 q 144 575 43 478 q 401 672 246 672 q 488 659 450 672 q 547 624 525 646 l 554 658 l 885 658 l 746 0 l 454 0 l 447 43 q 349 1 404 17 q 233 -14 293 -14 m 399 226 q 461 247 433 226 l 496 411 q 473 427 485 422 q 443 432 461 432 q 351 311 376 432 q 347 274 347 289 q 360 236 347 246 q 399 226 374 226 z "},"ẵ":{"ha":872,"x_min":-6,"x_max":900,"o":"m 729 1021 q 666 1028 697 1021 q 593 1051 635 1036 q 526 1072 551 1065 q 475 1079 501 1079 q 325 1025 389 1079 l 361 1199 q 427 1231 388 1218 q 506 1244 467 1244 q 569 1237 539 1244 q 638 1214 599 1229 q 703 1193 676 1200 q 760 1186 731 1186 q 842 1201 804 1186 q 900 1240 879 1217 l 864 1067 q 808 1035 847 1049 q 729 1021 769 1021 m 524 725 q 358 774 421 725 q 296 915 296 822 q 304 986 296 949 l 481 986 q 475 950 475 958 q 547 888 475 888 q 623 914 597 888 q 660 986 649 940 l 856 986 q 741 790 828 856 q 524 725 654 725 m 233 -14 q 57 40 119 -14 q -6 203 -6 94 q 6 300 -6 242 q 144 575 43 478 q 401 672 246 672 q 488 659 450 672 q 547 624 525 646 l 554 658 l 885 658 l 746 0 l 454 0 l 447 43 q 349 1 404 17 q 233 -14 293 -14 m 399 226 q 461 247 433 226 l 496 411 q 473 427 485 422 q 443 432 461 432 q 351 311 376 432 q 347 274 347 289 q 360 236 347 246 q 399 226 374 226 z "},"ǎ":{"ha":872,"x_min":-6,"x_max":899,"o":"m 218 1025 l 447 1025 l 518 876 l 656 1025 l 899 1025 l 592 725 l 397 725 l 218 1025 m 233 -14 q 57 40 119 -14 q -6 203 -6 94 q 6 300 -6 242 q 144 575 43 478 q 401 672 246 672 q 488 659 450 672 q 547 624 525 646 l 554 658 l 885 658 l 746 0 l 454 0 l 447 43 q 349 1 404 17 q 233 -14 293 -14 m 399 226 q 461 247 433 226 l 496 411 q 473 427 485 422 q 443 432 461 432 q 351 311 376 432 q 347 274 347 289 q 360 236 347 246 q 399 226 374 226 z "},"â":{"ha":872,"x_min":-6,"x_max":885,"o":"m 463 1025 l 658 1025 l 838 725 l 614 725 l 539 874 l 407 725 l 157 725 l 463 1025 m 233 -14 q 57 40 119 -14 q -6 203 -6 94 q 6 300 -6 242 q 144 575 43 478 q 401 672 246 672 q 488 659 450 672 q 547 624 525 646 l 554 658 l 885 658 l 746 0 l 454 0 l 447 43 q 349 1 404 17 q 233 -14 293 -14 m 399 226 q 461 247 433 226 l 496 411 q 473 427 485 422 q 443 432 461 432 q 351 311 376 432 q 347 274 347 289 q 360 236 347 246 q 399 226 374 226 z "},"ấ":{"ha":872,"x_min":-6,"x_max":1142,"o":"m 897 1147 l 1142 1147 l 975 908 l 743 908 l 897 1147 m 433 958 l 676 958 l 844 725 l 593 725 l 538 831 l 442 725 l 164 725 l 433 958 m 233 -14 q 57 40 119 -14 q -6 203 -6 94 q 6 300 -6 242 q 144 575 43 478 q 401 672 246 672 q 488 659 450 672 q 547 624 525 646 l 554 658 l 885 658 l 746 0 l 454 0 l 447 43 q 349 1 404 17 q 233 -14 293 -14 m 399 226 q 461 247 433 226 l 496 411 q 473 427 485 422 q 443 432 461 432 q 351 311 376 432 q 347 274 347 289 q 360 236 347 246 q 399 226 374 226 z "},"ậ":{"ha":872,"x_min":-6,"x_max":885,"o":"m 467 1025 l 663 1025 l 842 725 l 618 725 l 543 874 l 411 725 l 161 725 l 467 1025 m 233 -14 q 57 40 119 -14 q -6 203 -6 94 q 6 300 -6 242 q 144 575 43 478 q 401 672 246 672 q 488 659 450 672 q 547 624 525 646 l 554 658 l 885 658 l 746 0 l 454 0 l 447 43 q 349 1 404 17 q 233 -14 293 -14 m 399 226 q 461 247 433 226 l 496 411 q 473 427 485 422 q 443 432 461 432 q 351 311 376 432 q 347 274 347 289 q 360 236 347 246 q 399 226 374 226 m 218 -100 l 435 -100 l 393 -296 l 176 -296 l 218 -100 z "},"ầ":{"ha":872,"x_min":-6,"x_max":885,"o":"m 42 1147 l 286 1147 l 339 908 l 106 908 l 42 1147 m 428 958 l 671 958 l 839 725 l 582 725 l 531 831 l 431 725 l 158 725 l 428 958 m 233 -14 q 57 40 119 -14 q -6 203 -6 94 q 6 300 -6 242 q 144 575 43 478 q 401 672 246 672 q 488 659 450 672 q 547 624 525 646 l 554 658 l 885 658 l 746 0 l 454 0 l 447 43 q 349 1 404 17 q 233 -14 293 -14 m 399 226 q 461 247 433 226 l 496 411 q 473 427 485 422 q 443 432 461 432 q 351 311 376 432 q 347 274 347 289 q 360 236 347 246 q 399 226 374 226 z "},"ẩ":{"ha":872,"x_min":-6,"x_max":1093,"o":"m 764 988 q 838 999 818 989 q 858 1024 858 1008 q 848 1037 858 1033 q 815 1040 838 1040 q 747 1026 786 1040 l 775 1154 q 938 1171 839 1171 q 1053 1142 1013 1171 q 1093 1065 1093 1113 q 1090 1043 1093 1057 q 1048 961 1079 993 q 967 919 1017 929 l 957 876 l 740 876 l 764 988 m 422 958 l 665 958 l 833 725 l 582 725 l 526 831 l 431 725 l 153 725 l 422 958 m 233 -14 q 57 40 119 -14 q -6 203 -6 94 q 6 300 -6 242 q 144 575 43 478 q 401 672 246 672 q 488 659 450 672 q 547 624 525 646 l 554 658 l 885 658 l 746 0 l 454 0 l 447 43 q 349 1 404 17 q 233 -14 293 -14 m 399 226 q 461 247 433 226 l 496 411 q 473 427 485 422 q 443 432 461 432 q 351 311 376 432 q 347 274 347 289 q 360 236 347 246 q 399 226 374 226 z "},"ẫ":{"ha":872,"x_min":-6,"x_max":885,"o":"m 697 979 q 634 987 665 979 q 561 1010 603 994 q 494 1031 519 1024 q 443 1038 469 1038 q 293 983 357 1038 l 332 1171 q 398 1203 358 1190 q 476 1217 438 1217 q 540 1209 510 1217 q 608 1186 569 1201 q 674 1165 647 1172 q 731 1158 701 1158 q 812 1174 774 1158 q 872 1213 850 1189 l 832 1025 q 776 993 814 1007 q 697 979 738 979 m 422 958 l 665 958 l 833 725 l 582 725 l 526 831 l 431 725 l 153 725 l 422 958 m 233 -14 q 57 40 119 -14 q -6 203 -6 94 q 6 300 -6 242 q 144 575 43 478 q 401 672 246 672 q 488 659 450 672 q 547 624 525 646 l 554 658 l 885 658 l 746 0 l 454 0 l 447 43 q 349 1 404 17 q 233 -14 293 -14 m 399 226 q 461 247 433 226 l 496 411 q 473 427 485 422 q 443 432 461 432 q 351 311 376 432 q 347 274 347 289 q 360 236 347 246 q 399 226 374 226 z "},"ä":{"ha":872,"x_min":-6,"x_max":885,"o":"m 294 963 l 510 963 l 468 767 l 253 767 l 294 963 m 619 963 l 836 963 l 794 767 l 578 767 l 619 963 m 233 -14 q 57 40 119 -14 q -6 203 -6 94 q 6 300 -6 242 q 144 575 43 478 q 401 672 246 672 q 488 659 450 672 q 547 624 525 646 l 554 658 l 885 658 l 746 0 l 454 0 l 447 43 q 349 1 404 17 q 233 -14 293 -14 m 399 226 q 461 247 433 226 l 496 411 q 473 427 485 422 q 443 432 461 432 q 351 311 376 432 q 347 274 347 289 q 360 236 347 246 q 399 226 374 226 z "},"ạ":{"ha":872,"x_min":-6,"x_max":885,"o":"m 233 -14 q 57 40 119 -14 q -6 203 -6 94 q 6 300 -6 242 q 144 575 43 478 q 401 672 246 672 q 488 659 450 672 q 547 624 525 646 l 554 658 l 885 658 l 746 0 l 454 0 l 447 43 q 349 1 404 17 q 233 -14 293 -14 m 399 226 q 461 247 433 226 l 496 411 q 473 427 485 422 q 443 432 461 432 q 351 311 376 432 q 347 274 347 289 q 360 236 347 246 q 399 226 374 226 m 218 -100 l 435 -100 l 393 -296 l 176 -296 l 218 -100 z "},"à":{"ha":872,"x_min":-6,"x_max":885,"o":"m 299 1039 l 557 1039 l 624 725 l 378 725 l 299 1039 m 233 -14 q 57 40 119 -14 q -6 203 -6 94 q 6 300 -6 242 q 144 575 43 478 q 401 672 246 672 q 488 659 450 672 q 547 624 525 646 l 554 658 l 885 658 l 746 0 l 454 0 l 447 43 q 349 1 404 17 q 233 -14 293 -14 m 399 226 q 461 247 433 226 l 496 411 q 473 427 485 422 q 443 432 461 432 q 351 311 376 432 q 347 274 347 289 q 360 236 347 246 q 399 226 374 226 z "},"ả":{"ha":872,"x_min":-6,"x_max":885,"o":"m 390 838 q 519 892 510 844 q 510 922 525 913 q 458 931 494 931 q 378 917 417 931 l 406 1047 q 590 1068 485 1068 q 725 1035 678 1068 q 772 947 772 1001 q 769 919 772 939 q 723 826 756 858 q 625 775 690 794 l 614 725 l 367 725 l 390 838 m 233 -14 q 57 40 119 -14 q -6 203 -6 94 q 6 300 -6 242 q 144 575 43 478 q 401 672 246 672 q 488 659 450 672 q 547 624 525 646 l 554 658 l 885 658 l 746 0 l 454 0 l 447 43 q 349 1 404 17 q 233 -14 293 -14 m 399 226 q 461 247 433 226 l 496 411 q 473 427 485 422 q 443 432 461 432 q 351 311 376 432 q 347 274 347 289 q 360 236 347 246 q 399 226 374 226 z "},"ɑ":{"ha":872,"x_min":-6,"x_max":885,"o":"m 233 -14 q 57 40 119 -14 q -6 203 -6 94 q 6 300 -6 242 q 144 575 43 478 q 401 672 246 672 q 488 659 450 672 q 547 624 525 646 l 554 658 l 885 658 l 746 0 l 454 0 l 447 43 q 349 1 404 17 q 233 -14 293 -14 m 399 226 q 461 247 433 226 l 496 411 q 473 427 485 422 q 443 432 461 432 q 351 311 376 432 q 347 274 347 289 q 360 236 347 246 q 399 226 374 226 z "},"ā":{"ha":872,"x_min":-6,"x_max":885,"o":"m 328 933 l 811 933 l 769 739 l 286 739 l 328 933 m 233 -14 q 57 40 119 -14 q -6 203 -6 94 q 6 300 -6 242 q 144 575 43 478 q 401 672 246 672 q 488 659 450 672 q 547 624 525 646 l 554 658 l 885 658 l 746 0 l 454 0 l 447 43 q 349 1 404 17 q 233 -14 293 -14 m 399 226 q 461 247 433 226 l 496 411 q 473 427 485 422 q 443 432 461 432 q 351 311 376 432 q 347 274 347 289 q 360 236 347 246 q 399 226 374 226 z "},"ą":{"ha":872,"x_min":-6,"x_max":885,"o":"m 657 0 q 567 -106 581 -49 q 565 -117 565 -110 q 580 -142 565 -135 q 622 -149 594 -149 q 662 -144 640 -149 q 696 -133 683 -140 l 665 -281 q 588 -298 635 -290 q 494 -306 542 -306 q 362 -278 408 -306 q 315 -194 315 -250 q 356 -81 315 -132 q 457 0 397 -31 l 454 0 l 447 43 q 349 1 404 17 q 233 -14 293 -14 q 57 40 119 -14 q -6 203 -6 94 q 6 300 -6 242 q 144 575 43 478 q 401 672 246 672 q 488 659 450 672 q 547 624 525 646 l 554 658 l 885 658 l 746 0 l 657 0 m 399 226 q 461 247 433 226 l 496 411 q 473 427 485 422 q 443 432 461 432 q 351 311 376 432 q 347 274 347 289 q 360 236 347 246 q 399 226 374 226 z "},"å":{"ha":872,"x_min":-6,"x_max":885,"o":"m 518 725 q 390 768 436 725 q 344 879 344 811 q 349 924 344 901 q 434 1067 367 1011 q 603 1124 501 1124 q 733 1081 686 1124 q 779 969 779 1038 q 774 924 779 954 q 688 781 756 836 q 518 725 619 725 m 544 853 q 612 879 588 853 q 636 942 636 906 q 621 980 636 965 q 575 994 606 994 q 508 968 532 994 q 483 906 483 942 q 499 867 483 882 q 544 853 514 853 m 233 -14 q 57 40 119 -14 q -6 203 -6 94 q 6 300 -6 242 q 144 575 43 478 q 401 672 246 672 q 488 659 450 672 q 547 624 525 646 l 554 658 l 885 658 l 746 0 l 454 0 l 447 43 q 349 1 404 17 q 233 -14 293 -14 m 399 226 q 461 247 433 226 l 496 411 q 473 427 485 422 q 443 432 461 432 q 351 311 376 432 q 347 274 347 289 q 360 236 347 246 q 399 226 374 226 z "},"ǻ":{"ha":872,"x_min":-6,"x_max":942,"o":"m 683 1393 l 942 1393 l 729 1143 l 483 1143 l 683 1393 m 494 711 q 367 754 413 711 q 321 865 321 797 q 325 910 321 888 q 410 1053 343 997 q 579 1110 478 1110 q 709 1067 663 1110 q 756 956 756 1024 q 750 910 756 940 q 664 767 732 822 q 494 711 596 711 m 521 839 q 588 865 564 839 q 613 928 613 892 q 597 966 613 951 q 551 981 582 981 q 484 954 508 981 q 460 892 460 928 q 475 853 460 868 q 521 839 490 839 m 233 -14 q 57 40 119 -14 q -6 203 -6 94 q 6 300 -6 242 q 144 575 43 478 q 401 672 246 672 q 488 659 450 672 q 547 624 525 646 l 554 658 l 885 658 l 746 0 l 454 0 l 447 43 q 349 1 404 17 q 233 -14 293 -14 m 399 226 q 461 247 433 226 l 496 411 q 473 427 485 422 q 443 432 461 432 q 351 311 376 432 q 347 274 347 289 q 360 236 347 246 q 399 226 374 226 z "},"ã":{"ha":872,"x_min":-6,"x_max":885,"o":"m 665 732 q 601 740 632 732 q 521 764 569 747 q 454 785 482 778 q 399 793 426 793 q 240 736 310 793 l 282 932 q 351 966 308 951 q 435 981 393 981 q 500 973 469 981 q 571 950 531 965 q 641 927 614 935 q 700 919 668 919 q 785 935 746 919 q 849 976 825 951 l 807 781 q 748 747 789 761 q 665 732 707 732 m 233 -14 q 57 40 119 -14 q -6 203 -6 94 q 6 300 -6 242 q 144 575 43 478 q 401 672 246 672 q 488 659 450 672 q 547 624 525 646 l 554 658 l 885 658 l 746 0 l 454 0 l 447 43 q 349 1 404 17 q 233 -14 293 -14 m 399 226 q 461 247 433 226 l 496 411 q 473 427 485 422 q 443 432 461 432 q 351 311 376 432 q 347 274 347 289 q 360 236 347 246 q 399 226 374 226 z "},"æ":{"ha":1235,"x_min":-19,"x_max":1218,"o":"m 225 -14 q 48 28 115 -14 q -19 156 -19 71 q -14 206 -19 182 q 319 431 33 431 l 467 431 l 468 438 q 444 465 472 454 q 358 476 415 476 q 240 467 304 476 q 119 442 176 458 l 158 622 q 298 658 217 644 q 457 672 379 672 q 576 655 521 672 q 663 607 631 638 q 775 654 708 636 q 906 672 842 672 q 1135 609 1053 672 q 1218 431 1218 546 q 1210 351 1218 393 l 1186 239 l 747 239 q 929 183 781 183 q 1048 193 988 183 q 1149 217 1108 203 l 1110 36 q 804 -14 996 -14 q 665 13 732 -14 q 561 86 597 40 q 425 11 501 36 q 225 -14 349 -14 m 935 407 l 938 419 q 939 431 939 424 q 924 462 939 450 q 875 474 908 474 q 813 456 836 474 q 783 407 790 438 l 935 407 m 336 169 q 418 200 388 169 l 431 261 l 369 261 q 320 251 338 261 q 297 215 303 240 q 296 203 296 211 q 336 169 296 169 z "},"ǽ":{"ha":1235,"x_min":-19,"x_max":1218,"o":"m 740 1039 l 999 1039 l 786 725 l 540 725 l 740 1039 m 225 -14 q 48 28 115 -14 q -19 156 -19 71 q -14 206 -19 182 q 319 431 33 431 l 467 431 l 468 438 q 444 465 472 454 q 358 476 415 476 q 240 467 304 476 q 119 442 176 458 l 158 622 q 298 658 217 644 q 457 672 379 672 q 576 655 521 672 q 663 607 631 638 q 775 654 708 636 q 906 672 842 672 q 1135 609 1053 672 q 1218 431 1218 546 q 1210 351 1218 393 l 1186 239 l 747 239 q 929 183 781 183 q 1048 193 988 183 q 1149 217 1108 203 l 1110 36 q 804 -14 996 -14 q 665 13 732 -14 q 561 86 597 40 q 425 11 501 36 q 225 -14 349 -14 m 935 407 l 938 419 q 939 431 939 424 q 924 462 939 450 q 875 474 908 474 q 813 456 836 474 q 783 407 790 438 l 935 407 m 336 169 q 418 200 388 169 l 431 261 l 369 261 q 320 251 338 261 q 297 215 303 240 q 296 203 296 211 q 336 169 296 169 z "},"b":{"ha":872,"x_min":-29,"x_max":857,"o":"m 458 -14 q 286 43 358 -14 l 263 0 l -29 0 l 169 936 l 506 936 l 444 647 q 515 665 474 658 q 592 672 556 672 q 857 443 857 672 q 844 335 857 396 q 711 72 807 158 q 458 -14 615 -14 m 413 226 q 466 249 444 226 q 500 329 488 272 q 506 378 506 356 q 493 419 506 407 q 457 432 481 432 q 424 427 439 432 q 393 411 410 422 l 358 247 q 383 231 371 236 q 413 226 394 226 z "},"c":{"ha":722,"x_min":3,"x_max":753,"o":"m 351 -14 q 99 53 194 -14 q 3 247 3 119 q 13 329 3 278 q 172 588 50 503 q 494 672 294 672 q 638 661 575 672 q 753 624 700 650 l 703 390 q 519 432 628 432 q 406 408 446 432 q 356 329 367 385 q 351 293 351 308 q 380 242 351 257 q 478 226 408 226 q 682 279 572 226 l 631 35 q 500 -3 567 8 q 351 -14 433 -14 z "},"ć":{"ha":722,"x_min":3,"x_max":817,"o":"m 558 1039 l 817 1039 l 604 725 l 358 725 l 558 1039 m 351 -14 q 99 53 194 -14 q 3 247 3 119 q 13 329 3 278 q 172 588 50 503 q 494 672 294 672 q 638 661 575 672 q 753 624 700 650 l 703 390 q 519 432 628 432 q 406 408 446 432 q 356 329 367 385 q 351 293 351 308 q 380 242 351 257 q 478 226 408 226 q 682 279 572 226 l 631 35 q 500 -3 567 8 q 351 -14 433 -14 z "},"č":{"ha":722,"x_min":3,"x_max":883,"o":"m 203 1025 l 432 1025 l 503 876 l 640 1025 l 883 1025 l 576 725 l 382 725 l 203 1025 m 351 -14 q 99 53 194 -14 q 3 247 3 119 q 13 329 3 278 q 172 588 50 503 q 494 672 294 672 q 638 661 575 672 q 753 624 700 650 l 703 390 q 519 432 628 432 q 406 408 446 432 q 356 329 367 385 q 351 293 351 308 q 380 242 351 257 q 478 226 408 226 q 682 279 572 226 l 631 35 q 500 -3 567 8 q 351 -14 433 -14 z "},"ç":{"ha":722,"x_min":3,"x_max":753,"o":"m 254 -333 q 188 -330 228 -333 q 135 -322 149 -326 l 158 -215 q 236 -226 194 -226 q 308 -214 282 -226 q 339 -178 335 -201 q 296 -139 349 -139 l 193 -139 l 257 -7 q 72 74 140 10 q 3 247 3 139 q 13 329 3 289 q 172 588 50 503 q 494 672 294 672 q 638 661 575 672 q 753 624 700 650 l 703 390 q 519 432 628 432 q 406 408 446 432 q 356 329 367 385 q 351 293 351 308 q 380 242 351 257 q 478 226 408 226 q 682 279 572 226 l 631 35 q 422 -11 536 -4 l 400 -51 q 491 -80 458 -51 q 524 -154 524 -108 q 521 -185 524 -175 q 438 -294 506 -254 q 254 -333 369 -333 z "},"ĉ":{"ha":722,"x_min":3,"x_max":800,"o":"m 425 1025 l 621 1025 l 800 725 l 576 725 l 501 874 l 369 725 l 119 725 l 425 1025 m 351 -14 q 99 53 194 -14 q 3 247 3 119 q 13 329 3 278 q 172 588 50 503 q 494 672 294 672 q 638 661 575 672 q 753 624 700 650 l 703 390 q 519 432 628 432 q 406 408 446 432 q 356 329 367 385 q 351 293 351 308 q 380 242 351 257 q 478 226 408 226 q 682 279 572 226 l 631 35 q 500 -3 567 8 q 351 -14 433 -14 z "},"ċ":{"ha":722,"x_min":3,"x_max":753,"o":"m 403 963 l 619 963 l 578 767 l 363 767 l 403 963 m 351 -14 q 99 53 194 -14 q 3 247 3 119 q 13 329 3 278 q 172 588 50 503 q 494 672 294 672 q 638 661 575 672 q 753 624 700 650 l 703 390 q 519 432 628 432 q 406 408 446 432 q 356 329 367 385 q 351 293 351 308 q 380 242 351 257 q 478 226 408 226 q 682 279 572 226 l 631 35 q 500 -3 567 8 q 351 -14 433 -14 z "},"d":{"ha":872,"x_min":0,"x_max":944,"o":"m 250 -14 q 67 47 135 -14 q 0 225 0 107 q 13 331 0 272 q 147 592 51 513 q 408 672 243 672 q 483 665 444 672 q 547 647 522 658 l 608 936 l 944 936 l 746 0 l 454 0 l 447 43 q 250 -14 356 -14 m 399 226 q 461 247 431 226 l 496 411 q 473 427 485 422 q 443 432 461 432 q 354 325 376 432 q 349 278 349 301 q 361 238 349 249 q 399 226 374 226 z "},"ð":{"ha":847,"x_min":-4,"x_max":917,"o":"m 335 -14 q 81 46 167 -14 q -4 217 -4 106 q 3 285 -4 256 q 126 501 35 432 q 388 569 218 569 q 473 560 429 569 q 540 535 517 550 l 544 553 q 554 618 554 594 q 551 643 554 626 l 414 589 l 429 665 l 497 692 q 415 701 469 701 q 310 690 361 701 q 200 654 258 678 l 244 865 q 518 908 363 908 q 790 807 703 908 l 917 857 l 900 781 l 828 751 q 857 606 857 693 q 846 497 857 547 l 817 360 q 663 78 775 171 q 335 -14 550 -14 m 379 203 q 453 225 426 203 q 490 299 479 247 l 500 343 q 411 368 453 368 q 335 347 361 368 q 301 285 310 326 q 299 260 299 268 q 379 203 299 203 z "},"ď":{"ha":1197,"x_min":0,"x_max":1406,"o":"m 250 -14 q 67 47 135 -14 q 0 225 0 107 q 13 331 0 272 q 147 592 51 513 q 408 672 243 672 q 483 665 444 672 q 547 647 522 658 l 608 936 l 944 936 l 746 0 l 454 0 l 447 43 q 250 -14 356 -14 m 1132 929 l 1406 929 l 1171 588 l 913 588 l 1132 929 m 399 226 q 461 247 431 226 l 496 411 q 473 427 485 422 q 443 432 461 432 q 354 325 376 432 q 349 278 349 301 q 361 238 349 249 q 399 226 374 226 z "},"đ":{"ha":876,"x_min":0,"x_max":981,"o":"m 940 703 l 894 703 l 746 0 l 454 0 l 447 43 q 250 -14 356 -14 q 67 47 135 -14 q 0 225 0 107 q 13 331 0 272 q 147 592 51 513 q 408 672 243 672 q 483 665 444 672 q 547 647 522 658 l 558 703 l 403 703 l 443 890 l 599 890 l 608 936 l 944 936 l 935 890 l 981 890 l 940 703 m 496 411 q 473 427 485 422 q 443 432 461 432 q 354 325 376 432 q 349 278 349 301 q 361 238 349 249 q 399 226 374 226 q 461 247 431 226 l 496 411 z "},"ḍ":{"ha":872,"x_min":0,"x_max":944,"o":"m 250 -14 q 67 47 135 -14 q 0 225 0 107 q 13 331 0 272 q 147 592 51 513 q 408 672 243 672 q 483 665 444 672 q 547 647 522 658 l 608 936 l 944 936 l 746 0 l 454 0 l 447 43 q 250 -14 356 -14 m 399 226 q 461 247 431 226 l 496 411 q 473 427 485 422 q 443 432 461 432 q 354 325 376 432 q 349 278 349 301 q 361 238 349 249 q 399 226 374 226 m 185 -100 l 401 -100 l 360 -296 l 143 -296 l 185 -100 z "},"ḏ":{"ha":872,"x_min":0,"x_max":944,"o":"m 250 -14 q 67 47 135 -14 q 0 225 0 107 q 13 331 0 272 q 147 592 51 513 q 408 672 243 672 q 483 665 444 672 q 547 647 522 658 l 608 936 l 944 936 l 746 0 l 454 0 l 447 43 q 250 -14 356 -14 m 399 226 q 461 247 431 226 l 496 411 q 473 427 485 422 q 443 432 461 432 q 354 325 376 432 q 349 278 349 301 q 361 238 349 249 q 399 226 374 226 m 171 -86 l 654 -86 l 613 -281 l 129 -281 l 171 -86 z "},"e":{"ha":788,"x_min":3,"x_max":769,"o":"m 349 -14 q 174 17 253 -14 q 49 110 94 49 q 3 256 3 171 q 11 326 3 289 q 151 583 47 494 q 458 672 256 672 q 622 640 551 672 q 731 549 693 607 q 769 415 769 490 q 763 351 769 389 l 739 239 l 300 239 q 358 197 317 211 q 482 183 399 183 q 601 193 540 183 q 701 217 661 203 l 663 36 q 349 -14 549 -14 m 488 407 l 490 419 q 492 432 492 424 q 428 474 492 474 q 336 407 353 474 l 488 407 z "},"é":{"ha":788,"x_min":3,"x_max":821,"o":"m 563 1039 l 821 1039 l 608 725 l 363 725 l 563 1039 m 349 -14 q 174 17 253 -14 q 49 110 94 49 q 3 256 3 171 q 11 326 3 289 q 151 583 47 494 q 458 672 256 672 q 622 640 551 672 q 731 549 693 607 q 769 415 769 490 q 763 351 769 389 l 739 239 l 300 239 q 358 197 317 211 q 482 183 399 183 q 601 193 540 183 q 701 217 661 203 l 663 36 q 349 -14 549 -14 m 488 407 l 490 419 q 492 432 492 424 q 428 474 492 474 q 336 407 353 474 l 488 407 z "},"ĕ":{"ha":788,"x_min":3,"x_max":851,"o":"m 479 725 q 297 782 363 725 q 231 944 231 839 q 240 1031 231 988 l 444 1031 q 439 985 439 1010 q 508 908 439 908 q 585 942 557 908 q 626 1031 614 976 l 851 1031 q 720 804 819 883 q 479 725 621 725 m 349 -14 q 174 17 253 -14 q 49 110 94 49 q 3 256 3 171 q 11 326 3 289 q 151 583 47 494 q 458 672 256 672 q 622 640 551 672 q 731 549 693 607 q 769 415 769 490 q 763 351 769 389 l 739 239 l 300 239 q 358 197 317 211 q 482 183 399 183 q 601 193 540 183 q 701 217 661 203 l 663 36 q 349 -14 549 -14 m 488 407 l 490 419 q 492 432 492 424 q 428 474 492 474 q 336 407 353 474 l 488 407 z "},"ě":{"ha":788,"x_min":3,"x_max":889,"o":"m 208 1025 l 438 1025 l 508 876 l 646 1025 l 889 1025 l 582 725 l 388 725 l 208 1025 m 349 -14 q 174 17 253 -14 q 49 110 94 49 q 3 256 3 171 q 11 326 3 289 q 151 583 47 494 q 458 672 256 672 q 622 640 551 672 q 731 549 693 607 q 769 415 769 490 q 763 351 769 389 l 739 239 l 300 239 q 358 197 317 211 q 482 183 399 183 q 601 193 540 183 q 701 217 661 203 l 663 36 q 349 -14 549 -14 m 488 407 l 490 419 q 492 432 492 424 q 428 474 492 474 q 336 407 353 474 l 488 407 z "},"ê":{"ha":788,"x_min":3,"x_max":817,"o":"m 442 1025 l 638 1025 l 817 725 l 593 725 l 518 874 l 386 725 l 136 725 l 442 1025 m 349 -14 q 174 17 253 -14 q 49 110 94 49 q 3 256 3 171 q 11 326 3 289 q 151 583 47 494 q 458 672 256 672 q 622 640 551 672 q 731 549 693 607 q 769 415 769 490 q 763 351 769 389 l 739 239 l 300 239 q 358 197 317 211 q 482 183 399 183 q 601 193 540 183 q 701 217 661 203 l 663 36 q 349 -14 549 -14 m 488 407 l 490 419 q 492 432 492 424 q 428 474 492 474 q 336 407 353 474 l 488 407 z "},"ế":{"ha":788,"x_min":3,"x_max":1129,"o":"m 885 1147 l 1129 1147 l 963 908 l 731 908 l 885 1147 m 421 958 l 664 958 l 832 725 l 581 725 l 525 831 l 429 725 l 151 725 l 421 958 m 349 -14 q 174 17 253 -14 q 49 110 94 49 q 3 256 3 171 q 11 326 3 289 q 151 583 47 494 q 458 672 256 672 q 622 640 551 672 q 731 549 693 607 q 769 415 769 490 q 763 351 769 389 l 739 239 l 300 239 q 358 197 317 211 q 482 183 399 183 q 601 193 540 183 q 701 217 661 203 l 663 36 q 349 -14 549 -14 m 488 407 l 490 419 q 492 432 492 424 q 428 474 492 474 q 336 407 353 474 l 488 407 z "},"ệ":{"ha":788,"x_min":3,"x_max":806,"o":"m 431 1025 l 626 1025 l 806 725 l 582 725 l 507 874 l 375 725 l 125 725 l 431 1025 m 349 -14 q 174 17 253 -14 q 49 110 94 49 q 3 256 3 171 q 11 326 3 289 q 151 583 47 494 q 458 672 256 672 q 622 640 551 672 q 731 549 693 607 q 769 415 769 490 q 763 351 769 389 l 739 239 l 300 239 q 358 197 317 211 q 482 183 399 183 q 601 193 540 183 q 701 217 661 203 l 663 36 q 349 -14 549 -14 m 488 407 l 490 419 q 492 432 492 424 q 428 474 492 474 q 336 407 353 474 l 488 407 m 183 -100 l 400 -100 l 358 -296 l 142 -296 l 183 -100 z "},"ề":{"ha":788,"x_min":3,"x_max":829,"o":"m 32 1147 l 276 1147 l 329 908 l 96 908 l 32 1147 m 418 958 l 661 958 l 829 725 l 572 725 l 521 831 l 421 725 l 149 725 l 418 958 m 349 -14 q 174 17 253 -14 q 49 110 94 49 q 3 256 3 171 q 11 326 3 289 q 151 583 47 494 q 458 672 256 672 q 622 640 551 672 q 731 549 693 607 q 769 415 769 490 q 763 351 769 389 l 739 239 l 300 239 q 358 197 317 211 q 482 183 399 183 q 601 193 540 183 q 701 217 661 203 l 663 36 q 349 -14 549 -14 m 488 407 l 490 419 q 492 432 492 424 q 428 474 492 474 q 336 407 353 474 l 488 407 z "},"ể":{"ha":788,"x_min":3,"x_max":1079,"o":"m 750 988 q 824 999 804 989 q 844 1024 844 1008 q 834 1037 844 1033 q 801 1040 824 1040 q 733 1026 772 1040 l 761 1154 q 924 1171 825 1171 q 1039 1142 999 1171 q 1079 1065 1079 1113 q 1076 1043 1079 1057 q 1034 961 1065 993 q 953 919 1003 929 l 943 876 l 726 876 l 750 988 m 408 958 l 651 958 l 819 725 l 568 725 l 513 831 l 417 725 l 139 725 l 408 958 m 349 -14 q 174 17 253 -14 q 49 110 94 49 q 3 256 3 171 q 11 326 3 289 q 151 583 47 494 q 458 672 256 672 q 622 640 551 672 q 731 549 693 607 q 769 415 769 490 q 763 351 769 389 l 739 239 l 300 239 q 358 197 317 211 q 482 183 399 183 q 601 193 540 183 q 701 217 661 203 l 663 36 q 349 -14 549 -14 m 488 407 l 490 419 q 492 432 492 424 q 428 474 492 474 q 336 407 353 474 l 488 407 z "},"ễ":{"ha":788,"x_min":3,"x_max":858,"o":"m 683 979 q 620 987 651 979 q 547 1010 589 994 q 481 1031 506 1024 q 429 1038 456 1038 q 279 983 343 1038 l 318 1171 q 384 1203 344 1190 q 463 1217 424 1217 q 526 1209 496 1217 q 594 1186 556 1201 q 660 1165 633 1172 q 717 1158 688 1158 q 798 1174 760 1158 q 858 1213 836 1189 l 818 1025 q 762 993 800 1007 q 683 979 724 979 m 408 958 l 651 958 l 819 725 l 568 725 l 513 831 l 417 725 l 139 725 l 408 958 m 349 -14 q 174 17 253 -14 q 49 110 94 49 q 3 256 3 171 q 11 326 3 289 q 151 583 47 494 q 458 672 256 672 q 622 640 551 672 q 731 549 693 607 q 769 415 769 490 q 763 351 769 389 l 739 239 l 300 239 q 358 197 317 211 q 482 183 399 183 q 601 193 540 183 q 701 217 661 203 l 663 36 q 349 -14 549 -14 m 488 407 l 490 419 q 492 432 492 424 q 428 474 492 474 q 336 407 353 474 l 488 407 z "},"ë":{"ha":788,"x_min":3,"x_max":797,"o":"m 256 963 l 471 963 l 429 767 l 214 767 l 256 963 m 581 963 l 797 963 l 756 767 l 539 767 l 581 963 m 349 -14 q 174 17 253 -14 q 49 110 94 49 q 3 256 3 171 q 11 326 3 289 q 151 583 47 494 q 458 672 256 672 q 622 640 551 672 q 731 549 693 607 q 769 415 769 490 q 763 351 769 389 l 739 239 l 300 239 q 358 197 317 211 q 482 183 399 183 q 601 193 540 183 q 701 217 661 203 l 663 36 q 349 -14 549 -14 m 488 407 l 490 419 q 492 432 492 424 q 428 474 492 474 q 336 407 353 474 l 488 407 z "},"ė":{"ha":788,"x_min":3,"x_max":769,"o":"m 419 963 l 636 963 l 594 767 l 379 767 l 419 963 m 349 -14 q 174 17 253 -14 q 49 110 94 49 q 3 256 3 171 q 11 326 3 289 q 151 583 47 494 q 458 672 256 672 q 622 640 551 672 q 731 549 693 607 q 769 415 769 490 q 763 351 769 389 l 739 239 l 300 239 q 358 197 317 211 q 482 183 399 183 q 601 193 540 183 q 701 217 661 203 l 663 36 q 349 -14 549 -14 m 488 407 l 490 419 q 492 432 492 424 q 428 474 492 474 q 336 407 353 474 l 488 407 z "},"ẹ":{"ha":788,"x_min":3,"x_max":769,"o":"m 349 -14 q 174 17 253 -14 q 49 110 94 49 q 3 256 3 171 q 11 326 3 289 q 151 583 47 494 q 458 672 256 672 q 622 640 551 672 q 731 549 693 607 q 769 415 769 490 q 763 351 769 389 l 739 239 l 300 239 q 358 197 317 211 q 482 183 399 183 q 601 193 540 183 q 701 217 661 203 l 663 36 q 349 -14 549 -14 m 488 407 l 490 419 q 492 432 492 424 q 428 474 492 474 q 336 407 353 474 l 488 407 m 208 -100 l 425 -100 l 383 -296 l 167 -296 l 208 -100 z "},"è":{"ha":788,"x_min":3,"x_max":769,"o":"m 275 1039 l 533 1039 l 600 725 l 354 725 l 275 1039 m 349 -14 q 174 17 253 -14 q 49 110 94 49 q 3 256 3 171 q 11 326 3 289 q 151 583 47 494 q 458 672 256 672 q 622 640 551 672 q 731 549 693 607 q 769 415 769 490 q 763 351 769 389 l 739 239 l 300 239 q 358 197 317 211 q 482 183 399 183 q 601 193 540 183 q 701 217 661 203 l 663 36 q 349 -14 549 -14 m 488 407 l 490 419 q 492 432 492 424 q 428 474 492 474 q 336 407 353 474 l 488 407 z "},"ẻ":{"ha":788,"x_min":3,"x_max":769,"o":"m 381 838 q 510 892 500 844 q 500 922 515 913 q 449 931 485 931 q 368 917 407 931 l 396 1047 q 581 1068 475 1068 q 715 1035 668 1068 q 763 947 763 1001 q 760 919 763 939 q 713 826 746 858 q 615 775 681 794 l 604 725 l 357 725 l 381 838 m 349 -14 q 174 17 253 -14 q 49 110 94 49 q 3 256 3 171 q 11 326 3 289 q 151 583 47 494 q 458 672 256 672 q 622 640 551 672 q 731 549 693 607 q 769 415 769 490 q 763 351 769 389 l 739 239 l 300 239 q 358 197 317 211 q 482 183 399 183 q 601 193 540 183 q 701 217 661 203 l 663 36 q 349 -14 549 -14 m 488 407 l 490 419 q 492 432 492 424 q 428 474 492 474 q 336 407 353 474 l 488 407 z "},"ē":{"ha":788,"x_min":3,"x_max":769,"o":"m 282 975 l 765 975 l 724 781 l 240 781 l 282 975 m 349 -14 q 174 17 253 -14 q 49 110 94 49 q 3 256 3 171 q 11 326 3 289 q 151 583 47 494 q 458 672 256 672 q 622 640 551 672 q 731 549 693 607 q 769 415 769 490 q 763 351 769 389 l 739 239 l 300 239 q 358 197 317 211 q 482 183 399 183 q 601 193 540 183 q 701 217 661 203 l 663 36 q 349 -14 549 -14 m 488 407 l 490 419 q 492 432 492 424 q 428 474 492 474 q 336 407 353 474 l 488 407 z "},"ę":{"ha":788,"x_min":3,"x_max":769,"o":"m 458 672 q 622 640 551 672 q 731 549 693 607 q 769 415 769 490 q 763 351 769 389 l 739 239 l 300 239 q 358 197 317 211 q 482 183 399 183 q 601 193 540 183 q 701 217 661 203 l 663 36 q 492 -6 594 4 q 411 -106 425 -54 q 410 -117 410 -110 q 424 -142 410 -135 q 467 -149 439 -149 q 506 -144 485 -149 q 540 -133 528 -140 l 510 -281 q 433 -298 479 -290 q 339 -306 386 -306 q 206 -278 253 -306 q 160 -194 160 -250 q 194 -90 160 -137 q 283 -10 229 -42 q 81 74 158 6 q 3 256 3 143 q 11 326 3 289 q 151 583 47 494 q 458 672 256 672 m 490 419 q 492 432 492 424 q 428 474 492 474 q 336 407 353 474 l 488 407 l 490 419 z "},"ẽ":{"ha":788,"x_min":3,"x_max":818,"o":"m 635 732 q 570 740 601 732 q 490 764 539 747 q 424 785 451 778 q 368 793 396 793 q 210 736 279 793 l 251 932 q 320 966 278 951 q 404 981 363 981 q 469 973 439 981 q 540 950 500 965 q 610 927 583 935 q 669 919 638 919 q 755 935 715 919 q 818 976 794 951 l 776 781 q 717 747 758 761 q 635 732 676 732 m 349 -14 q 174 17 253 -14 q 49 110 94 49 q 3 256 3 171 q 11 326 3 289 q 151 583 47 494 q 458 672 256 672 q 622 640 551 672 q 731 549 693 607 q 769 415 769 490 q 763 351 769 389 l 739 239 l 300 239 q 358 197 317 211 q 482 183 399 183 q 601 193 540 183 q 701 217 661 203 l 663 36 q 349 -14 549 -14 m 488 407 l 490 419 q 492 432 492 424 q 428 474 492 474 q 336 407 353 474 l 488 407 z "},"f":{"ha":521,"x_min":-7,"x_max":672,"o":"m 81 417 l 3 417 l 54 658 l 132 658 l 136 679 q 244 888 164 817 q 476 958 325 958 q 672 921 593 958 l 629 713 q 549 726 592 726 q 496 712 515 726 q 471 671 476 697 l 468 658 l 611 658 l 546 417 l 417 417 l 329 0 l -7 0 l 81 417 z "},"g":{"ha":872,"x_min":-4,"x_max":885,"o":"m 194 -244 q 89 -240 157 -244 q -4 -231 21 -236 l 43 -12 q 113 -25 68 -19 q 189 -31 158 -31 q 353 -19 299 -31 q 414 21 408 -7 l 417 33 q 345 15 386 22 q 268 8 304 8 q 68 61 138 8 q -1 221 -1 114 q 10 315 -1 269 q 151 581 49 489 q 400 672 254 672 q 497 658 457 672 q 569 615 536 643 l 593 658 l 885 658 l 767 100 q 681 -90 743 -14 q 500 -205 618 -165 q 194 -244 382 -244 m 399 226 q 432 231 418 226 q 461 247 446 236 l 496 411 q 475 427 485 422 q 447 432 465 432 q 391 405 415 432 q 354 321 367 378 q 347 274 347 289 q 360 236 347 246 q 399 226 374 226 z "},"ğ":{"ha":872,"x_min":-4,"x_max":885,"o":"m 493 725 q 310 782 376 725 q 244 944 244 839 q 254 1031 244 988 l 458 1031 q 453 985 453 1010 q 522 908 453 908 q 599 942 571 908 q 640 1031 628 976 l 865 1031 q 734 804 833 883 q 493 725 635 725 m 194 -244 q 89 -240 157 -244 q -4 -231 21 -236 l 43 -12 q 113 -25 68 -19 q 189 -31 158 -31 q 353 -19 299 -31 q 414 21 408 -7 l 417 33 q 345 15 386 22 q 268 8 304 8 q 68 61 138 8 q -1 221 -1 114 q 10 315 -1 269 q 151 581 49 489 q 400 672 254 672 q 497 658 457 672 q 569 615 536 643 l 593 658 l 885 658 l 767 100 q 681 -90 743 -14 q 500 -205 618 -165 q 194 -244 382 -244 m 399 226 q 432 231 418 226 q 461 247 446 236 l 496 411 q 475 427 485 422 q 447 432 465 432 q 391 405 415 432 q 354 321 367 378 q 347 274 347 289 q 360 236 347 246 q 399 226 374 226 z "},"ǧ":{"ha":872,"x_min":-4,"x_max":890,"o":"m 210 1025 l 439 1025 l 510 876 l 647 1025 l 890 1025 l 583 725 l 389 725 l 210 1025 m 194 -244 q 89 -240 157 -244 q -4 -231 21 -236 l 43 -12 q 113 -25 68 -19 q 189 -31 158 -31 q 353 -19 299 -31 q 414 21 408 -7 l 417 33 q 345 15 386 22 q 268 8 304 8 q 68 61 138 8 q -1 221 -1 114 q 10 315 -1 269 q 151 581 49 489 q 400 672 254 672 q 497 658 457 672 q 569 615 536 643 l 593 658 l 885 658 l 767 100 q 681 -90 743 -14 q 500 -205 618 -165 q 194 -244 382 -244 m 399 226 q 432 231 418 226 q 461 247 446 236 l 496 411 q 475 427 485 422 q 447 432 465 432 q 391 405 415 432 q 354 321 367 378 q 347 274 347 289 q 360 236 347 246 q 399 226 374 226 z "},"ĝ":{"ha":872,"x_min":-4,"x_max":885,"o":"m 460 1025 l 656 1025 l 835 725 l 611 725 l 536 874 l 404 725 l 154 725 l 460 1025 m 194 -244 q 89 -240 157 -244 q -4 -231 21 -236 l 43 -12 q 113 -25 68 -19 q 189 -31 158 -31 q 353 -19 299 -31 q 414 21 408 -7 l 417 33 q 345 15 386 22 q 268 8 304 8 q 68 61 138 8 q -1 221 -1 114 q 10 315 -1 269 q 151 581 49 489 q 400 672 254 672 q 497 658 457 672 q 569 615 536 643 l 593 658 l 885 658 l 767 100 q 681 -90 743 -14 q 500 -205 618 -165 q 194 -244 382 -244 m 399 226 q 432 231 418 226 q 461 247 446 236 l 496 411 q 475 427 485 422 q 447 432 465 432 q 391 405 415 432 q 354 321 367 378 q 347 274 347 289 q 360 236 347 246 q 399 226 374 226 z "},"ģ":{"ha":872,"x_min":-4,"x_max":885,"o":"m 513 1071 l 721 1071 l 597 725 l 349 725 l 513 1071 m 194 -244 q 89 -240 157 -244 q -4 -231 21 -236 l 43 -12 q 113 -25 68 -19 q 189 -31 158 -31 q 353 -19 299 -31 q 414 21 408 -7 l 417 33 q 345 15 386 22 q 268 8 304 8 q 68 61 138 8 q -1 221 -1 114 q 10 315 -1 269 q 151 581 49 489 q 400 672 254 672 q 497 658 457 672 q 569 615 536 643 l 593 658 l 885 658 l 767 100 q 681 -90 743 -14 q 500 -205 618 -165 q 194 -244 382 -244 m 399 226 q 432 231 418 226 q 461 247 446 236 l 496 411 q 475 427 485 422 q 447 432 465 432 q 391 405 415 432 q 354 321 367 378 q 347 274 347 289 q 360 236 347 246 q 399 226 374 226 z "},"ġ":{"ha":872,"x_min":-4,"x_max":885,"o":"m 415 935 l 632 935 l 590 739 l 375 739 l 415 935 m 194 -244 q 89 -240 157 -244 q -4 -231 21 -236 l 43 -12 q 113 -25 68 -19 q 189 -31 158 -31 q 353 -19 299 -31 q 414 21 408 -7 l 417 33 q 345 15 386 22 q 268 8 304 8 q 68 61 138 8 q -1 221 -1 114 q 10 315 -1 269 q 151 581 49 489 q 400 672 254 672 q 497 658 457 672 q 569 615 536 643 l 593 658 l 885 658 l 767 100 q 681 -90 743 -14 q 500 -205 618 -165 q 194 -244 382 -244 m 399 226 q 432 231 418 226 q 461 247 446 236 l 496 411 q 475 427 485 422 q 447 432 465 432 q 391 405 415 432 q 354 321 367 378 q 347 274 347 289 q 360 236 347 246 q 399 226 374 226 z "},"ḡ":{"ha":872,"x_min":-4,"x_max":885,"o":"m 278 961 l 761 961 l 719 767 l 236 767 l 278 961 m 194 -244 q 89 -240 157 -244 q -4 -231 21 -236 l 43 -12 q 113 -25 68 -19 q 189 -31 158 -31 q 353 -19 299 -31 q 414 21 408 -7 l 417 33 q 345 15 386 22 q 268 8 304 8 q 68 61 138 8 q -1 221 -1 114 q 10 315 -1 269 q 151 581 49 489 q 400 672 254 672 q 497 658 457 672 q 569 615 536 643 l 593 658 l 885 658 l 767 100 q 681 -90 743 -14 q 500 -205 618 -165 q 194 -244 382 -244 m 399 226 q 432 231 418 226 q 461 247 446 236 l 496 411 q 475 427 485 422 q 447 432 465 432 q 391 405 415 432 q 354 321 367 378 q 347 274 347 289 q 360 236 347 246 q 399 226 374 226 z "},"h":{"ha":869,"x_min":-29,"x_max":844,"o":"m 169 936 l 506 936 l 440 633 q 524 661 475 650 q 621 672 572 672 q 788 624 731 672 q 844 483 844 575 q 836 406 844 447 l 750 0 l 414 0 l 493 378 q 494 394 494 385 q 458 425 494 425 q 423 417 443 425 q 390 397 403 408 l 307 0 l -29 0 l 169 936 z "},"ħ":{"ha":883,"x_min":-15,"x_max":858,"o":"m 138 722 l 89 722 l 118 858 l 167 858 l 183 936 l 519 936 l 503 858 l 624 858 l 594 722 l 474 722 l 454 633 q 538 661 489 650 q 635 672 586 672 q 801 624 744 672 q 858 483 858 575 q 850 406 858 447 l 764 0 l 428 0 l 507 378 q 508 394 508 385 q 472 425 508 425 q 437 417 457 425 q 404 397 417 408 l 321 0 l -15 0 l 138 722 z "},"ḫ":{"ha":869,"x_min":-29,"x_max":844,"o":"m 169 936 l 506 936 l 440 633 q 524 661 475 650 q 621 672 572 672 q 788 624 731 672 q 844 483 844 575 q 836 406 844 447 l 750 0 l 414 0 l 493 378 q 494 394 494 385 q 458 425 494 425 q 423 417 443 425 q 390 397 403 408 l 307 0 l -29 0 l 169 936 m 292 -361 q 108 -304 174 -361 q 42 -140 42 -247 q 51 -56 42 -99 l 257 -56 q 251 -101 251 -76 q 321 -178 251 -178 q 402 -144 372 -178 q 438 -56 432 -110 l 663 -56 q 538 -283 631 -206 q 292 -361 446 -361 z "},"ĥ":{"ha":869,"x_min":-29,"x_max":872,"o":"m 497 1289 l 693 1289 l 872 989 l 649 989 l 574 1138 l 442 989 l 192 989 l 497 1289 m 169 936 l 506 936 l 440 633 q 524 661 475 650 q 621 672 572 672 q 788 624 731 672 q 844 483 844 575 q 836 406 844 447 l 750 0 l 414 0 l 493 378 q 494 394 494 385 q 458 425 494 425 q 423 417 443 425 q 390 397 403 408 l 307 0 l -29 0 l 169 936 z "},"ḥ":{"ha":869,"x_min":-29,"x_max":844,"o":"m 169 936 l 506 936 l 440 633 q 524 661 475 650 q 621 672 572 672 q 788 624 731 672 q 844 483 844 575 q 836 406 844 447 l 750 0 l 414 0 l 493 378 q 494 394 494 385 q 458 425 494 425 q 423 417 443 425 q 390 397 403 408 l 307 0 l -29 0 l 169 936 m 224 -100 l 440 -100 l 399 -296 l 182 -296 l 224 -100 z "},"i":{"ha":525,"x_min":58,"x_max":599,"o":"m 239 944 l 599 944 l 550 713 l 190 713 l 239 944 m 150 417 l 58 417 l 138 658 l 538 658 l 399 0 l 63 0 l 150 417 z "},"ı":{"ha":525,"x_min":58,"x_max":538,"o":"m 150 417 l 58 417 l 138 658 l 538 658 l 399 0 l 63 0 l 150 417 z "},"í":{"ha":525,"x_min":58,"x_max":697,"o":"m 439 1039 l 697 1039 l 485 725 l 239 725 l 439 1039 m 150 417 l 58 417 l 138 658 l 538 658 l 399 0 l 63 0 l 150 417 z "},"ĭ":{"ha":525,"x_min":58,"x_max":725,"o":"m 353 725 q 169 782 235 725 q 103 944 103 839 q 113 1031 103 988 l 318 1031 q 313 985 313 1010 q 382 908 313 908 q 459 942 431 908 q 500 1031 488 976 l 725 1031 q 594 804 693 883 q 353 725 494 725 m 150 417 l 58 417 l 138 658 l 538 658 l 399 0 l 63 0 l 150 417 z "},"ǐ":{"ha":525,"x_min":58,"x_max":775,"o":"m 94 1025 l 324 1025 l 394 876 l 532 1025 l 775 1025 l 468 725 l 274 725 l 94 1025 m 150 417 l 58 417 l 138 658 l 538 658 l 399 0 l 63 0 l 150 417 z "},"î":{"ha":525,"x_min":19,"x_max":700,"o":"m 325 1025 l 521 1025 l 700 725 l 476 725 l 401 874 l 269 725 l 19 725 l 325 1025 m 150 417 l 58 417 l 138 658 l 538 658 l 399 0 l 63 0 l 150 417 z "},"ï":{"ha":525,"x_min":58,"x_max":671,"o":"m 129 963 l 344 963 l 303 767 l 88 767 l 129 963 m 454 963 l 671 963 l 629 767 l 413 767 l 454 963 m 150 417 l 58 417 l 138 658 l 538 658 l 399 0 l 63 0 l 150 417 z "},"ị":{"ha":525,"x_min":58,"x_max":599,"o":"m 239 944 l 599 944 l 550 713 l 190 713 l 239 944 m 150 417 l 58 417 l 138 658 l 538 658 l 399 0 l 63 0 l 150 417 m 103 -100 l 319 -100 l 278 -296 l 61 -296 l 103 -100 z "},"ì":{"ha":525,"x_min":58,"x_max":538,"o":"m 175 1039 l 433 1039 l 500 725 l 254 725 l 175 1039 m 150 417 l 58 417 l 138 658 l 538 658 l 399 0 l 63 0 l 150 417 z "},"ỉ":{"ha":525,"x_min":58,"x_max":642,"o":"m 260 838 q 389 892 379 844 q 379 922 394 913 q 328 931 364 931 q 247 917 286 931 l 275 1047 q 460 1068 354 1068 q 594 1035 547 1068 q 642 947 642 1001 q 639 919 642 939 q 592 826 625 858 q 494 775 560 794 l 483 725 l 236 725 l 260 838 m 150 417 l 58 417 l 138 658 l 538 658 l 399 0 l 63 0 l 150 417 z "},"ĳ":{"ha":992,"x_min":58,"x_max":1065,"o":"m 239 944 l 599 944 l 550 713 l 190 713 l 239 944 m 706 944 l 1065 944 l 1017 713 l 657 713 l 706 944 m 150 417 l 58 417 l 138 658 l 538 658 l 399 0 l 63 0 l 150 417 m 515 -325 q 321 -287 400 -325 l 364 -79 q 444 -93 401 -93 q 521 -37 507 -93 l 617 417 l 525 417 l 604 658 l 1004 658 l 851 -60 q 747 -255 825 -185 q 515 -325 668 -325 z "},"ī":{"ha":525,"x_min":58,"x_max":651,"o":"m 167 1014 l 651 1014 l 610 819 l 125 819 l 167 1014 m 150 417 l 58 417 l 138 658 l 538 658 l 399 0 l 63 0 l 150 417 z "},"į":{"ha":525,"x_min":-7,"x_max":599,"o":"m 239 944 l 599 944 l 550 713 l 190 713 l 239 944 m 172 -306 q 40 -278 86 -306 q -7 -194 -7 -250 q 34 -81 -7 -132 q 135 0 75 -31 l 63 0 l 150 417 l 58 417 l 138 658 l 538 658 l 399 0 l 335 0 q 244 -106 258 -49 q 243 -117 243 -110 q 258 -142 243 -135 q 300 -149 272 -149 q 340 -144 318 -149 q 374 -133 361 -140 l 343 -281 q 266 -298 313 -290 q 172 -306 219 -306 z "},"ĩ":{"ha":525,"x_min":58,"x_max":683,"o":"m 500 771 q 435 778 467 771 q 356 803 404 786 q 289 824 317 817 q 233 832 261 832 q 75 775 144 832 l 117 971 q 185 1005 143 990 q 269 1019 228 1019 q 335 1012 304 1019 q 406 989 365 1004 q 476 966 449 974 q 535 958 503 958 q 620 974 581 958 q 683 1015 660 990 l 642 819 q 583 785 624 800 q 500 771 542 771 m 150 417 l 58 417 l 138 658 l 538 658 l 399 0 l 63 0 l 150 417 z "},"j":{"ha":524,"x_min":-147,"x_max":597,"o":"m 238 944 l 597 944 l 549 713 l 189 713 l 238 944 m 47 -325 q -147 -287 -68 -325 l -104 -79 q -24 -93 -67 -93 q 53 -37 39 -93 l 149 417 l 57 417 l 136 658 l 536 658 l 383 -60 q 278 -255 357 -185 q 47 -325 200 -325 z "},"ȷ":{"ha":522,"x_min":-147,"x_max":536,"o":"m 49 -325 q -147 -287 -68 -325 l -104 -79 q -24 -93 -67 -93 q 54 -37 40 -93 l 149 417 l 58 417 l 136 658 l 536 658 l 383 -60 q 274 -253 358 -182 q 49 -325 190 -325 z "},"ĵ":{"ha":522,"x_min":-147,"x_max":689,"o":"m 314 1025 l 510 1025 l 689 725 l 465 725 l 390 874 l 258 725 l 8 725 l 314 1025 m 49 -325 q -147 -287 -68 -325 l -104 -79 q -24 -93 -67 -93 q 54 -37 40 -93 l 149 417 l 58 417 l 136 658 l 536 658 l 383 -60 q 274 -253 358 -182 q 49 -325 190 -325 z "},"k":{"ha":918,"x_min":-29,"x_max":944,"o":"m 169 936 l 506 936 l 418 526 l 567 658 l 944 658 l 625 374 l 819 0 l 464 0 l 379 199 l 342 164 l 307 0 l -29 0 l 169 936 z "},"ķ":{"ha":918,"x_min":-29,"x_max":944,"o":"m 169 936 l 506 936 l 418 526 l 567 658 l 944 658 l 625 374 l 819 0 l 464 0 l 379 199 l 342 164 l 307 0 l -29 0 l 169 936 m 228 -51 l 476 -51 l 313 -397 l 104 -397 l 228 -51 z "},"ĸ":{"ha":918,"x_min":-29,"x_max":944,"o":"m 110 658 l 446 658 l 415 513 l 567 658 l 944 658 l 622 360 l 819 0 l 464 0 l 376 185 l 338 150 l 307 0 l -29 0 l 110 658 z "},"l":{"ha":510,"x_min":10,"x_max":506,"o":"m 231 -14 q 65 27 119 -14 q 10 151 10 68 q 18 225 10 186 l 169 936 l 506 936 l 364 269 q 361 249 361 253 q 370 226 361 233 q 401 218 379 218 q 474 231 440 218 l 429 22 q 337 -6 378 3 q 231 -14 296 -14 z "},"ĺ":{"ha":510,"x_min":10,"x_max":700,"o":"m 442 1364 l 700 1364 l 488 1050 l 242 1050 l 442 1364 m 231 -14 q 65 27 119 -14 q 10 151 10 68 q 18 225 10 186 l 169 936 l 506 936 l 364 269 q 361 249 361 253 q 370 226 361 233 q 401 218 379 218 q 474 231 440 218 l 429 22 q 337 -6 378 3 q 231 -14 296 -14 z "},"ľ":{"ha":510,"x_min":10,"x_max":617,"o":"m 368 1319 l 617 1319 l 453 974 l 244 974 l 368 1319 m 231 -14 q 65 27 119 -14 q 10 151 10 68 q 18 225 10 186 l 169 936 l 506 936 l 364 269 q 361 249 361 253 q 370 226 361 233 q 401 218 379 218 q 474 231 440 218 l 429 22 q 337 -6 378 3 q 231 -14 296 -14 z "},"ļ":{"ha":510,"x_min":-29,"x_max":506,"o":"m 231 -14 q 65 27 119 -14 q 10 151 10 68 q 18 225 10 186 l 169 936 l 506 936 l 364 269 q 361 249 361 253 q 370 226 361 233 q 401 218 379 218 q 474 231 440 218 l 429 22 q 337 -6 378 3 q 231 -14 296 -14 m 94 -51 l 343 -51 l 179 -397 l -29 -397 l 94 -51 z "},"ŀ":{"ha":571,"x_min":10,"x_max":710,"o":"m 231 -14 q 65 27 119 -14 q 10 151 10 68 q 18 225 10 186 l 169 936 l 506 936 l 364 269 q 361 249 361 253 q 370 226 361 233 q 401 218 379 218 q 474 231 440 218 l 429 22 q 337 -6 378 3 q 231 -14 296 -14 m 493 626 l 710 626 l 668 431 l 451 431 l 493 626 z "},"ḷ":{"ha":510,"x_min":10,"x_max":506,"o":"m 231 -14 q 65 27 119 -14 q 10 151 10 68 q 18 225 10 186 l 169 936 l 506 936 l 364 269 q 361 249 361 253 q 370 226 361 233 q 401 218 379 218 q 474 231 440 218 l 429 22 q 337 -6 378 3 q 231 -14 296 -14 m 68 -100 l 285 -100 l 243 -296 l 26 -296 l 68 -100 z "},"ḹ":{"ha":510,"x_min":10,"x_max":639,"o":"m 156 1208 l 639 1208 l 597 1014 l 114 1014 l 156 1208 m 231 -14 q 65 27 119 -14 q 10 151 10 68 q 18 225 10 186 l 169 936 l 506 936 l 364 269 q 361 249 361 253 q 370 226 361 233 q 401 218 379 218 q 474 231 440 218 l 429 22 q 337 -6 378 3 q 231 -14 296 -14 m 68 -100 l 285 -100 l 243 -296 l 26 -296 l 68 -100 z "},"ḻ":{"ha":510,"x_min":-112,"x_max":506,"o":"m 231 -14 q 65 27 119 -14 q 10 151 10 68 q 18 225 10 186 l 169 936 l 506 936 l 364 269 q 361 249 361 253 q 370 226 361 233 q 401 218 379 218 q 474 231 440 218 l 429 22 q 337 -6 378 3 q 231 -14 296 -14 m -71 -103 l 413 -103 l 371 -297 l -112 -297 l -71 -103 z "},"ł":{"ha":510,"x_min":-60,"x_max":554,"o":"m 231 -14 q 65 27 119 -14 q 10 151 10 68 q 18 225 10 186 l 36 314 l -60 275 l -10 510 l 86 549 l 169 936 l 506 936 l 454 696 l 554 736 l 504 501 l 404 461 l 364 269 q 361 249 361 253 q 370 226 361 233 q 401 218 379 218 q 474 231 440 218 l 429 22 q 337 -6 378 3 q 231 -14 296 -14 z "},"m":{"ha":1207,"x_min":-29,"x_max":1185,"o":"m 110 658 l 421 658 l 419 618 q 633 672 528 672 q 769 611 736 672 q 881 657 824 642 q 1006 672 938 672 q 1139 628 1093 672 q 1185 503 1185 585 q 1176 424 1185 468 l 1088 0 l 758 0 l 839 383 l 842 401 q 835 419 842 414 q 810 425 828 425 q 767 407 786 425 l 681 0 l 371 0 l 453 392 q 454 406 454 397 q 431 425 454 425 q 378 400 403 425 l 293 0 l -29 0 l 110 658 z "},"ṃ":{"ha":1207,"x_min":-29,"x_max":1185,"o":"m 110 658 l 421 658 l 419 618 q 633 672 528 672 q 769 611 736 672 q 881 657 824 642 q 1006 672 938 672 q 1139 628 1093 672 q 1185 503 1185 585 q 1176 424 1185 468 l 1088 0 l 758 0 l 839 383 l 842 401 q 835 419 842 414 q 810 425 828 425 q 767 407 786 425 l 681 0 l 371 0 l 453 392 q 454 406 454 397 q 431 425 454 425 q 378 400 403 425 l 293 0 l -29 0 l 110 658 m 413 -100 l 629 -100 l 588 -296 l 371 -296 l 413 -100 z "},"n":{"ha":869,"x_min":-29,"x_max":849,"o":"m 110 658 l 425 658 l 425 621 q 533 657 468 642 q 667 672 599 672 q 802 631 756 672 q 849 506 849 589 q 839 424 849 467 l 750 0 l 414 0 l 494 381 q 496 394 496 386 q 458 425 496 425 q 423 417 443 425 q 390 397 403 408 l 307 0 l -29 0 l 110 658 z "},"ń":{"ha":869,"x_min":-29,"x_max":849,"o":"m 531 1039 l 789 1039 l 576 725 l 331 725 l 531 1039 m 110 658 l 425 658 l 425 621 q 533 657 468 642 q 667 672 599 672 q 802 631 756 672 q 849 506 849 589 q 839 424 849 467 l 750 0 l 414 0 l 494 381 q 496 394 496 386 q 458 425 496 425 q 423 417 443 425 q 390 397 403 408 l 307 0 l -29 0 l 110 658 z "},"ŉ":{"ha":876,"x_min":-189,"x_max":856,"o":"m -65 889 l 183 889 l 19 543 l -189 543 l -65 889 m 117 658 l 432 658 l 432 621 q 540 657 475 642 q 674 672 606 672 q 809 631 763 672 q 856 506 856 589 q 846 424 856 467 l 757 0 l 421 0 l 501 381 q 503 394 503 386 q 465 425 503 425 q 430 417 450 425 q 397 397 410 408 l 314 0 l -22 0 l 117 658 z "},"ň":{"ha":869,"x_min":-29,"x_max":885,"o":"m 204 1025 l 433 1025 l 504 876 l 642 1025 l 885 1025 l 578 725 l 383 725 l 204 1025 m 110 658 l 425 658 l 425 621 q 533 657 468 642 q 667 672 599 672 q 802 631 756 672 q 849 506 849 589 q 839 424 849 467 l 750 0 l 414 0 l 494 381 q 496 394 496 386 q 458 425 496 425 q 423 417 443 425 q 390 397 403 408 l 307 0 l -29 0 l 110 658 z "},"ņ":{"ha":869,"x_min":-29,"x_max":849,"o":"m 110 658 l 425 658 l 425 621 q 533 657 468 642 q 667 672 599 672 q 802 631 756 672 q 849 506 849 589 q 839 424 849 467 l 750 0 l 414 0 l 494 381 q 496 394 496 386 q 458 425 496 425 q 423 417 443 425 q 390 397 403 408 l 307 0 l -29 0 l 110 658 m 242 -51 l 490 -51 l 326 -397 l 118 -397 l 242 -51 z "},"ṅ":{"ha":869,"x_min":-29,"x_max":849,"o":"m 442 963 l 658 963 l 617 767 l 401 767 l 442 963 m 110 658 l 425 658 l 425 621 q 533 657 468 642 q 667 672 599 672 q 802 631 756 672 q 849 506 849 589 q 839 424 849 467 l 750 0 l 414 0 l 494 381 q 496 394 496 386 q 458 425 496 425 q 423 417 443 425 q 390 397 403 408 l 307 0 l -29 0 l 110 658 z "},"ṇ":{"ha":869,"x_min":-29,"x_max":849,"o":"m 110 658 l 425 658 l 425 621 q 533 657 468 642 q 667 672 599 672 q 802 631 756 672 q 849 506 849 589 q 839 424 849 467 l 750 0 l 414 0 l 494 381 q 496 394 496 386 q 458 425 496 425 q 423 417 443 425 q 390 397 403 408 l 307 0 l -29 0 l 110 658 m 229 -100 l 446 -100 l 404 -296 l 188 -296 l 229 -100 z "},"ŋ":{"ha":869,"x_min":-29,"x_max":846,"o":"m 400 -325 q 204 -287 283 -325 l 247 -79 q 328 -93 285 -93 q 406 -37 392 -93 l 494 381 q 496 394 496 386 q 458 425 496 425 q 423 417 443 425 q 390 397 403 408 l 307 0 l -29 0 l 110 658 l 425 658 l 425 621 q 533 657 468 642 q 667 672 599 672 q 799 623 753 672 q 846 492 846 574 q 839 424 846 453 l 736 -60 q 631 -255 710 -185 q 400 -325 551 -325 z "},"ṉ":{"ha":869,"x_min":-29,"x_max":849,"o":"m 110 658 l 425 658 l 425 621 q 533 657 468 642 q 667 672 599 672 q 802 631 756 672 q 849 506 849 589 q 839 424 849 467 l 750 0 l 414 0 l 494 381 q 496 394 496 386 q 458 425 496 425 q 423 417 443 425 q 390 397 403 408 l 307 0 l -29 0 l 110 658 m 103 -94 l 586 -94 l 544 -289 l 61 -289 l 103 -94 z "},"ñ":{"ha":869,"x_min":-29,"x_max":849,"o":"m 656 732 q 591 740 622 732 q 511 764 560 747 q 444 785 472 778 q 389 793 417 793 q 231 736 300 793 l 272 932 q 341 966 299 951 q 425 981 383 981 q 490 973 460 981 q 561 950 521 965 q 631 927 604 935 q 690 919 658 919 q 776 935 736 919 q 839 976 815 951 l 797 781 q 738 747 779 761 q 656 732 697 732 m 110 658 l 425 658 l 425 621 q 533 657 468 642 q 667 672 599 672 q 802 631 756 672 q 849 506 849 589 q 839 424 849 467 l 750 0 l 414 0 l 494 381 q 496 394 496 386 q 458 425 496 425 q 423 417 443 425 q 390 397 403 408 l 307 0 l -29 0 l 110 658 z "},"o":{"ha":871,"x_min":3,"x_max":851,"o":"m 353 -14 q 94 51 185 -14 q 3 242 3 115 q 13 329 3 285 q 168 587 50 501 q 499 672 286 672 q 760 608 669 672 q 851 417 851 543 q 842 329 851 374 q 687 71 804 156 q 353 -14 569 -14 m 404 226 q 464 249 442 226 q 499 329 486 272 q 504 376 504 356 q 490 419 504 407 q 449 432 476 432 q 390 409 413 432 q 356 329 368 386 q 350 281 350 303 q 363 239 350 251 q 404 226 376 226 z "},"ó":{"ha":871,"x_min":3,"x_max":851,"o":"m 558 1039 l 817 1039 l 604 725 l 358 725 l 558 1039 m 353 -14 q 94 51 185 -14 q 3 242 3 115 q 13 329 3 285 q 168 587 50 501 q 499 672 286 672 q 760 608 669 672 q 851 417 851 543 q 842 329 851 374 q 687 71 804 156 q 353 -14 569 -14 m 404 226 q 464 249 442 226 q 499 329 486 272 q 504 376 504 356 q 490 419 504 407 q 449 432 476 432 q 390 409 413 432 q 356 329 368 386 q 350 281 350 303 q 363 239 350 251 q 404 226 376 226 z "},"ŏ":{"ha":871,"x_min":3,"x_max":882,"o":"m 510 725 q 327 782 393 725 q 261 944 261 839 q 271 1031 261 988 l 475 1031 q 469 985 469 1010 q 539 908 469 908 q 616 942 588 908 q 657 1031 644 976 l 882 1031 q 751 804 850 883 q 510 725 651 725 m 353 -14 q 94 51 185 -14 q 3 242 3 115 q 13 329 3 285 q 168 587 50 501 q 499 672 286 672 q 760 608 669 672 q 851 417 851 543 q 842 329 851 374 q 687 71 804 156 q 353 -14 569 -14 m 404 226 q 464 249 442 226 q 499 329 486 272 q 504 376 504 356 q 490 419 504 407 q 449 432 476 432 q 390 409 413 432 q 356 329 368 386 q 350 281 350 303 q 363 239 350 251 q 404 226 376 226 z "},"ǒ":{"ha":871,"x_min":3,"x_max":915,"o":"m 235 1025 l 464 1025 l 535 876 l 672 1025 l 915 1025 l 608 725 l 414 725 l 235 1025 m 353 -14 q 94 51 185 -14 q 3 242 3 115 q 13 329 3 285 q 168 587 50 501 q 499 672 286 672 q 760 608 669 672 q 851 417 851 543 q 842 329 851 374 q 687 71 804 156 q 353 -14 569 -14 m 404 226 q 464 249 442 226 q 499 329 486 272 q 504 376 504 356 q 490 419 504 407 q 449 432 476 432 q 390 409 413 432 q 356 329 368 386 q 350 281 350 303 q 363 239 350 251 q 404 226 376 226 z "},"ô":{"ha":871,"x_min":3,"x_max":851,"o":"m 476 1025 l 672 1025 l 851 725 l 628 725 l 553 874 l 421 725 l 171 725 l 476 1025 m 353 -14 q 94 51 185 -14 q 3 242 3 115 q 13 329 3 285 q 168 587 50 501 q 499 672 286 672 q 760 608 669 672 q 851 417 851 543 q 842 329 851 374 q 687 71 804 156 q 353 -14 569 -14 m 404 226 q 464 249 442 226 q 499 329 486 272 q 504 376 504 356 q 490 419 504 407 q 449 432 476 432 q 390 409 413 432 q 356 329 368 386 q 350 281 350 303 q 363 239 350 251 q 404 226 376 226 z "},"ố":{"ha":871,"x_min":3,"x_max":1139,"o":"m 894 1147 l 1139 1147 l 972 908 l 740 908 l 894 1147 m 431 958 l 674 958 l 842 725 l 590 725 l 535 831 l 439 725 l 161 725 l 431 958 m 353 -14 q 94 51 185 -14 q 3 242 3 115 q 13 329 3 285 q 168 587 50 501 q 499 672 286 672 q 760 608 669 672 q 851 417 851 543 q 842 329 851 374 q 687 71 804 156 q 353 -14 569 -14 m 404 226 q 464 249 442 226 q 499 329 486 272 q 504 376 504 356 q 490 419 504 407 q 449 432 476 432 q 390 409 413 432 q 356 329 368 386 q 350 281 350 303 q 363 239 350 251 q 404 226 376 226 z "},"ộ":{"ha":871,"x_min":3,"x_max":851,"o":"m 476 1025 l 672 1025 l 851 725 l 628 725 l 553 874 l 421 725 l 171 725 l 476 1025 m 353 -14 q 94 51 185 -14 q 3 242 3 115 q 13 329 3 285 q 168 587 50 501 q 499 672 286 672 q 760 608 669 672 q 851 417 851 543 q 842 329 851 374 q 687 71 804 156 q 353 -14 569 -14 m 404 226 q 464 249 442 226 q 499 329 486 272 q 504 376 504 356 q 490 419 504 407 q 449 432 476 432 q 390 409 413 432 q 356 329 368 386 q 350 281 350 303 q 363 239 350 251 q 404 226 376 226 m 229 -100 l 446 -100 l 404 -296 l 188 -296 l 229 -100 z "},"ồ":{"ha":871,"x_min":3,"x_max":856,"o":"m 58 1147 l 303 1147 l 356 908 l 122 908 l 58 1147 m 444 958 l 688 958 l 856 725 l 599 725 l 547 831 l 447 725 l 175 725 l 444 958 m 353 -14 q 94 51 185 -14 q 3 242 3 115 q 13 329 3 285 q 168 587 50 501 q 499 672 286 672 q 760 608 669 672 q 851 417 851 543 q 842 329 851 374 q 687 71 804 156 q 353 -14 569 -14 m 404 226 q 464 249 442 226 q 499 329 486 272 q 504 376 504 356 q 490 419 504 407 q 449 432 476 432 q 390 409 413 432 q 356 329 368 386 q 350 281 350 303 q 363 239 350 251 q 404 226 376 226 z "},"ổ":{"ha":871,"x_min":3,"x_max":1110,"o":"m 781 988 q 855 999 835 989 q 875 1024 875 1008 q 865 1037 875 1033 q 832 1040 854 1040 q 764 1026 803 1040 l 792 1154 q 954 1171 856 1171 q 1069 1142 1029 1171 q 1110 1065 1110 1113 q 1107 1043 1110 1057 q 1065 961 1096 993 q 983 919 1033 929 l 974 876 l 757 876 l 781 988 m 439 958 l 682 958 l 850 725 l 599 725 l 543 831 l 447 725 l 169 725 l 439 958 m 353 -14 q 94 51 185 -14 q 3 242 3 115 q 13 329 3 285 q 168 587 50 501 q 499 672 286 672 q 760 608 669 672 q 851 417 851 543 q 842 329 851 374 q 687 71 804 156 q 353 -14 569 -14 m 404 226 q 464 249 442 226 q 499 329 486 272 q 504 376 504 356 q 490 419 504 407 q 449 432 476 432 q 390 409 413 432 q 356 329 368 386 q 350 281 350 303 q 363 239 350 251 q 404 226 376 226 z "},"ỗ":{"ha":871,"x_min":3,"x_max":888,"o":"m 717 1021 q 653 1028 685 1021 q 581 1051 622 1036 q 514 1072 539 1065 q 463 1079 489 1079 q 313 1025 376 1079 l 349 1199 q 415 1231 375 1218 q 493 1244 454 1244 q 556 1237 526 1244 q 625 1214 586 1229 q 691 1193 664 1200 q 747 1186 718 1186 q 829 1201 792 1186 q 888 1240 867 1217 l 851 1067 q 796 1035 835 1049 q 717 1021 757 1021 m 511 725 q 346 774 408 725 q 283 915 283 822 q 292 986 283 949 l 468 986 q 463 950 463 958 q 535 888 463 888 q 610 914 585 888 q 647 986 636 940 l 843 986 q 728 790 815 856 q 511 725 642 725 m 353 -14 q 94 51 185 -14 q 3 242 3 115 q 13 329 3 285 q 168 587 50 501 q 499 672 286 672 q 760 608 669 672 q 851 417 851 543 q 842 329 851 374 q 687 71 804 156 q 353 -14 569 -14 m 404 226 q 464 249 442 226 q 499 329 486 272 q 504 376 504 356 q 490 419 504 407 q 449 432 476 432 q 390 409 413 432 q 356 329 368 386 q 350 281 350 303 q 363 239 350 251 q 404 226 376 226 z "},"ö":{"ha":871,"x_min":3,"x_max":851,"o":"m 290 963 l 506 963 l 464 767 l 249 767 l 290 963 m 615 963 l 832 963 l 790 767 l 574 767 l 615 963 m 353 -14 q 94 51 185 -14 q 3 242 3 115 q 13 329 3 285 q 168 587 50 501 q 499 672 286 672 q 760 608 669 672 q 851 417 851 543 q 842 329 851 374 q 687 71 804 156 q 353 -14 569 -14 m 404 226 q 464 249 442 226 q 499 329 486 272 q 504 376 504 356 q 490 419 504 407 q 449 432 476 432 q 390 409 413 432 q 356 329 368 386 q 350 281 350 303 q 363 239 350 251 q 404 226 376 226 z "},"ọ":{"ha":871,"x_min":3,"x_max":851,"o":"m 353 -14 q 94 51 185 -14 q 3 242 3 115 q 13 329 3 285 q 168 587 50 501 q 499 672 286 672 q 760 608 669 672 q 851 417 851 543 q 842 329 851 374 q 687 71 804 156 q 353 -14 569 -14 m 404 226 q 464 249 442 226 q 499 329 486 272 q 504 376 504 356 q 490 419 504 407 q 449 432 476 432 q 390 409 413 432 q 356 329 368 386 q 350 281 350 303 q 363 239 350 251 q 404 226 376 226 m 229 -100 l 446 -100 l 404 -296 l 188 -296 l 229 -100 z "},"ò":{"ha":871,"x_min":3,"x_max":851,"o":"m 304 1039 l 563 1039 l 629 725 l 383 725 l 304 1039 m 353 -14 q 94 51 185 -14 q 3 242 3 115 q 13 329 3 285 q 168 587 50 501 q 499 672 286 672 q 760 608 669 672 q 851 417 851 543 q 842 329 851 374 q 687 71 804 156 q 353 -14 569 -14 m 404 226 q 464 249 442 226 q 499 329 486 272 q 504 376 504 356 q 490 419 504 407 q 449 432 476 432 q 390 409 413 432 q 356 329 368 386 q 350 281 350 303 q 363 239 350 251 q 404 226 376 226 z "},"ỏ":{"ha":871,"x_min":3,"x_max":851,"o":"m 415 838 q 544 892 535 844 q 535 922 550 913 q 483 931 519 931 q 403 917 442 931 l 431 1047 q 615 1068 510 1068 q 750 1035 703 1068 q 797 947 797 1001 q 794 919 797 939 q 748 826 781 858 q 650 775 715 794 l 639 725 l 392 725 l 415 838 m 353 -14 q 94 51 185 -14 q 3 242 3 115 q 13 329 3 285 q 168 587 50 501 q 499 672 286 672 q 760 608 669 672 q 851 417 851 543 q 842 329 851 374 q 687 71 804 156 q 353 -14 569 -14 m 404 226 q 464 249 442 226 q 499 329 486 272 q 504 376 504 356 q 490 419 504 407 q 449 432 476 432 q 390 409 413 432 q 356 329 368 386 q 350 281 350 303 q 363 239 350 251 q 404 226 376 226 z "},"ơ":{"ha":1065,"x_min":3,"x_max":1151,"o":"m 353 -14 q 94 51 185 -14 q 3 242 3 115 q 13 329 3 285 q 168 587 50 501 q 499 672 286 672 q 757 610 665 672 q 847 622 817 610 q 893 663 878 635 q 917 744 908 690 l 1151 744 q 1049 508 1118 588 q 851 406 981 428 q 842 329 849 364 q 687 71 804 156 q 353 -14 569 -14 m 404 226 q 464 249 442 226 q 499 329 486 272 q 504 376 504 356 q 490 419 504 407 q 449 432 476 432 q 390 409 413 432 q 356 329 368 386 q 350 281 350 303 q 363 239 350 251 q 404 226 376 226 z "},"ớ":{"ha":1065,"x_min":3,"x_max":1151,"o":"m 586 1039 l 844 1039 l 632 725 l 386 725 l 586 1039 m 353 -14 q 94 51 185 -14 q 3 242 3 115 q 13 329 3 285 q 168 587 50 501 q 499 672 286 672 q 757 610 665 672 q 847 622 817 610 q 893 663 878 635 q 917 744 908 690 l 1151 744 q 1049 508 1118 588 q 851 406 981 428 q 842 329 849 364 q 687 71 804 156 q 353 -14 569 -14 m 404 226 q 464 249 442 226 q 499 329 486 272 q 504 376 504 356 q 490 419 504 407 q 449 432 476 432 q 390 409 413 432 q 356 329 368 386 q 350 281 350 303 q 363 239 350 251 q 404 226 376 226 z "},"ợ":{"ha":1065,"x_min":3,"x_max":1151,"o":"m 353 -14 q 94 51 185 -14 q 3 242 3 115 q 13 329 3 285 q 168 587 50 501 q 499 672 286 672 q 757 610 665 672 q 847 622 817 610 q 893 663 878 635 q 917 744 908 690 l 1151 744 q 1049 508 1118 588 q 851 406 981 428 q 842 329 849 364 q 687 71 804 156 q 353 -14 569 -14 m 404 226 q 464 249 442 226 q 499 329 486 272 q 504 376 504 356 q 490 419 504 407 q 449 432 476 432 q 390 409 413 432 q 356 329 368 386 q 350 281 350 303 q 363 239 350 251 q 404 226 376 226 m 229 -100 l 446 -100 l 404 -296 l 188 -296 l 229 -100 z "},"ờ":{"ha":1065,"x_min":3,"x_max":1151,"o":"m 321 1039 l 579 1039 l 646 725 l 400 725 l 321 1039 m 353 -14 q 94 51 185 -14 q 3 242 3 115 q 13 329 3 285 q 168 587 50 501 q 499 672 286 672 q 757 610 665 672 q 847 622 817 610 q 893 663 878 635 q 917 744 908 690 l 1151 744 q 1049 508 1118 588 q 851 406 981 428 q 842 329 849 364 q 687 71 804 156 q 353 -14 569 -14 m 404 226 q 464 249 442 226 q 499 329 486 272 q 504 376 504 356 q 490 419 504 407 q 449 432 476 432 q 390 409 413 432 q 356 329 368 386 q 350 281 350 303 q 363 239 350 251 q 404 226 376 226 z "},"ở":{"ha":1065,"x_min":3,"x_max":1151,"o":"m 407 838 q 536 892 526 844 q 526 922 542 913 q 475 931 511 931 q 394 917 433 931 l 422 1047 q 607 1068 501 1068 q 742 1035 694 1068 q 789 947 789 1001 q 786 919 789 939 q 740 826 772 858 q 642 775 707 794 l 631 725 l 383 725 l 407 838 m 353 -14 q 94 51 185 -14 q 3 242 3 115 q 13 329 3 285 q 168 587 50 501 q 499 672 286 672 q 757 610 665 672 q 847 622 817 610 q 893 663 878 635 q 917 744 908 690 l 1151 744 q 1049 508 1118 588 q 851 406 981 428 q 842 329 849 364 q 687 71 804 156 q 353 -14 569 -14 m 404 226 q 464 249 442 226 q 499 329 486 272 q 504 376 504 356 q 490 419 504 407 q 449 432 476 432 q 390 409 413 432 q 356 329 368 386 q 350 281 350 303 q 363 239 350 251 q 404 226 376 226 z "},"ỡ":{"ha":1065,"x_min":3,"x_max":1151,"o":"m 668 725 q 603 733 635 725 q 524 757 572 740 q 457 778 485 771 q 401 786 429 786 q 243 729 313 786 l 285 925 q 353 959 311 944 q 438 974 396 974 q 503 966 472 974 q 574 943 533 958 q 644 920 617 928 q 703 913 671 913 q 788 928 749 913 q 851 969 828 944 l 810 774 q 751 740 792 754 q 668 725 710 725 m 353 -14 q 94 51 185 -14 q 3 242 3 115 q 13 329 3 285 q 168 587 50 501 q 499 672 286 672 q 757 610 665 672 q 847 622 817 610 q 893 663 878 635 q 917 744 908 690 l 1151 744 q 1049 508 1118 588 q 851 406 981 428 q 842 329 849 364 q 687 71 804 156 q 353 -14 569 -14 m 404 226 q 464 249 442 226 q 499 329 486 272 q 504 376 504 356 q 490 419 504 407 q 449 432 476 432 q 390 409 413 432 q 356 329 368 386 q 350 281 350 303 q 363 239 350 251 q 404 226 376 226 z "},"ő":{"ha":871,"x_min":3,"x_max":1006,"o":"m 346 1007 l 631 1007 l 414 725 l 154 725 l 346 1007 m 719 1007 l 1006 1007 l 788 725 l 528 725 l 719 1007 m 353 -14 q 94 51 185 -14 q 3 242 3 115 q 13 329 3 285 q 168 587 50 501 q 499 672 286 672 q 760 608 669 672 q 851 417 851 543 q 842 329 851 374 q 687 71 804 156 q 353 -14 569 -14 m 404 226 q 464 249 442 226 q 499 329 486 272 q 504 376 504 356 q 490 419 504 407 q 449 432 476 432 q 390 409 413 432 q 356 329 368 386 q 350 281 350 303 q 363 239 350 251 q 404 226 376 226 z "},"ō":{"ha":871,"x_min":3,"x_max":851,"o":"m 308 975 l 792 975 l 750 781 l 267 781 l 308 975 m 353 -14 q 94 51 185 -14 q 3 242 3 115 q 13 329 3 285 q 168 587 50 501 q 499 672 286 672 q 760 608 669 672 q 851 417 851 543 q 842 329 851 374 q 687 71 804 156 q 353 -14 569 -14 m 404 226 q 464 249 442 226 q 499 329 486 272 q 504 376 504 356 q 490 419 504 407 q 449 432 476 432 q 390 409 413 432 q 356 329 368 386 q 350 281 350 303 q 363 239 350 251 q 404 226 376 226 z "},"ø":{"ha":871,"x_min":3,"x_max":851,"o":"m 175 10 q 3 240 3 68 q 13 329 3 285 q 168 587 50 501 q 499 672 286 672 q 582 667 529 672 l 624 733 l 731 733 l 678 647 q 807 562 763 619 q 851 417 851 504 q 842 329 851 372 q 687 71 804 156 q 353 -14 569 -14 q 269 -8 322 -14 l 229 -75 l 122 -75 l 175 10 m 454 460 q 374 430 406 460 q 326 329 342 400 q 319 276 319 303 q 322 249 319 265 l 454 460 m 399 199 q 480 228 447 199 q 528 329 513 258 q 533 382 533 357 q 531 411 533 403 l 399 199 z "},"ǿ":{"ha":871,"x_min":3,"x_max":851,"o":"m 463 1039 l 721 1039 l 508 725 l 263 725 l 463 1039 m 175 10 q 3 240 3 68 q 13 329 3 285 q 168 587 50 501 q 499 672 286 672 q 582 667 529 672 l 624 733 l 731 733 l 678 647 q 807 562 763 619 q 851 417 851 504 q 842 329 851 372 q 687 71 804 156 q 353 -14 569 -14 q 269 -8 322 -14 l 229 -75 l 122 -75 l 175 10 m 454 460 q 374 430 406 460 q 326 329 342 400 q 319 276 319 303 q 322 249 319 265 l 454 460 m 399 199 q 480 228 447 199 q 528 329 513 258 q 533 382 533 357 q 531 411 533 403 l 399 199 z "},"õ":{"ha":871,"x_min":3,"x_max":851,"o":"m 667 760 q 602 767 633 760 q 522 792 571 775 q 456 813 483 806 q 400 821 428 821 q 242 764 311 821 l 283 960 q 352 994 310 979 q 436 1008 394 1008 q 501 1001 471 1008 q 572 978 532 993 q 642 955 615 963 q 701 947 669 947 q 787 963 747 947 q 850 1004 826 979 l 808 808 q 749 774 790 789 q 667 760 708 760 m 353 -14 q 94 51 185 -14 q 3 242 3 115 q 13 329 3 285 q 168 587 50 501 q 499 672 286 672 q 760 608 669 672 q 851 417 851 543 q 842 329 851 374 q 687 71 804 156 q 353 -14 569 -14 m 404 226 q 464 249 442 226 q 499 329 486 272 q 504 376 504 356 q 490 419 504 407 q 449 432 476 432 q 390 409 413 432 q 356 329 368 386 q 350 281 350 303 q 363 239 350 251 q 404 226 376 226 z "},"œ":{"ha":1325,"x_min":3,"x_max":1307,"o":"m 353 -14 q 94 51 185 -14 q 3 242 3 115 q 13 329 3 285 q 168 587 50 501 q 499 672 286 672 q 743 618 654 672 q 996 672 843 672 q 1160 640 1089 672 q 1269 549 1231 607 q 1307 415 1307 490 q 1300 351 1307 389 l 1276 239 l 838 239 q 895 197 854 211 q 1019 183 936 183 q 1138 193 1078 183 q 1239 217 1199 203 l 1200 36 q 886 -14 1086 -14 q 651 49 743 -14 q 353 -14 538 -14 m 1025 407 l 1028 419 q 1029 432 1029 424 q 965 474 1029 474 q 874 407 890 474 l 1025 407 m 404 226 q 464 249 442 226 q 499 329 486 272 q 504 376 504 356 q 490 419 504 407 q 449 432 476 432 q 390 409 413 432 q 356 329 368 386 q 350 281 350 303 q 363 239 350 251 q 404 226 376 226 z "},"p":{"ha":872,"x_min":-87,"x_max":853,"o":"m 110 658 l 401 658 l 408 615 q 500 658 453 643 q 604 672 547 672 q 789 610 725 672 q 853 428 853 547 q 843 328 853 378 q 713 69 813 153 q 446 -14 613 -14 q 372 -7 410 -14 q 308 11 333 0 l 247 -278 l -87 -278 l 110 658 m 413 226 q 467 251 444 226 q 501 333 489 276 q 507 381 507 357 q 494 421 507 410 q 457 432 482 432 q 425 427 439 432 q 393 411 411 422 l 358 247 q 382 231 369 236 q 413 226 394 226 z "},"þ":{"ha":872,"x_min":-92,"x_max":853,"o":"m 176 972 l 513 972 l 444 647 q 519 665 472 657 q 604 672 567 672 q 790 608 726 672 q 853 426 853 543 q 843 328 853 376 q 712 69 811 153 q 446 -14 613 -14 q 372 -7 410 -14 q 308 11 333 0 l 243 -300 l -92 -300 l 176 972 m 413 226 q 467 251 444 226 q 501 333 489 276 q 507 381 507 357 q 494 421 507 410 q 457 432 482 432 q 425 427 439 432 q 393 411 411 422 l 358 247 q 382 231 369 236 q 413 226 394 226 z "},"q":{"ha":983,"x_min":1,"x_max":885,"o":"m 594 -336 q 437 -288 492 -336 q 382 -157 382 -240 q 389 -97 382 -132 l 411 11 q 340 -7 382 0 q 263 -14 299 -14 q 69 46 138 -14 q 1 226 1 106 q 13 328 1 268 q 149 586 46 500 q 400 672 251 672 q 497 658 457 672 q 569 615 536 643 l 593 658 l 885 658 l 733 -53 q 731 -74 731 -69 q 739 -97 731 -89 q 765 -104 747 -104 q 836 -92 803 -104 l 793 -300 q 701 -328 742 -319 q 594 -336 660 -336 m 399 226 q 432 231 418 226 q 461 247 446 236 l 496 411 q 475 427 485 422 q 447 432 465 432 q 391 410 414 432 q 357 333 368 389 q 350 282 350 299 q 399 226 350 226 z "},"r":{"ha":596,"x_min":-29,"x_max":667,"o":"m 110 658 l 439 658 l 439 621 q 544 657 482 642 q 667 672 606 672 l 615 425 q 494 417 560 425 q 390 397 429 410 l 307 0 l -29 0 l 110 658 z "},"ŕ":{"ha":596,"x_min":-29,"x_max":667,"o":"m 360 1039 l 618 1039 l 406 725 l 160 725 l 360 1039 m 110 658 l 439 658 l 439 621 q 544 657 482 642 q 667 672 606 672 l 615 425 q 494 417 560 425 q 390 397 429 410 l 307 0 l -29 0 l 110 658 z "},"ř":{"ha":596,"x_min":-29,"x_max":717,"o":"m 36 1025 l 265 1025 l 336 876 l 474 1025 l 717 1025 l 410 725 l 215 725 l 36 1025 m 110 658 l 439 658 l 439 621 q 544 657 482 642 q 667 672 606 672 l 615 425 q 494 417 560 425 q 390 397 429 410 l 307 0 l -29 0 l 110 658 z "},"ŗ":{"ha":596,"x_min":-126,"x_max":667,"o":"m 110 658 l 439 658 l 439 621 q 544 657 482 642 q 667 672 606 672 l 615 425 q 494 417 560 425 q 390 397 429 410 l 307 0 l -29 0 l 110 658 m -3 -51 l 246 -51 l 82 -397 l -126 -397 l -3 -51 z "},"ṛ":{"ha":596,"x_min":-33,"x_max":667,"o":"m 110 658 l 439 658 l 439 621 q 544 657 482 642 q 667 672 606 672 l 615 425 q 494 417 560 425 q 390 397 429 410 l 307 0 l -29 0 l 110 658 m 8 -100 l 225 -100 l 183 -296 l -33 -296 l 8 -100 z "},"ṝ":{"ha":596,"x_min":-33,"x_max":667,"o":"m 175 961 l 658 961 l 617 767 l 133 767 l 175 961 m 110 658 l 439 658 l 439 621 q 544 657 482 642 q 667 672 606 672 l 615 425 q 494 417 560 425 q 390 397 429 410 l 307 0 l -29 0 l 110 658 m 8 -100 l 225 -100 l 183 -296 l -33 -296 l 8 -100 z "},"ṟ":{"ha":596,"x_min":-164,"x_max":667,"o":"m 110 658 l 439 658 l 439 621 q 544 657 482 642 q 667 672 606 672 l 615 425 q 494 417 560 425 q 390 397 429 410 l 307 0 l -29 0 l 110 658 m -122 -94 l 361 -94 l 319 -289 l -164 -289 l -122 -94 z "},"s":{"ha":704,"x_min":-44,"x_max":704,"o":"m 250 -14 q 77 -1 158 -14 q -44 33 -4 13 l 0 246 q 110 206 42 221 q 228 190 179 190 q 286 192 269 190 q 306 206 303 194 q 292 221 307 214 q 243 236 276 228 q 168 260 185 253 q 65 321 97 288 q 33 407 33 354 q 39 457 33 433 q 158 619 63 565 q 440 672 253 672 q 586 663 507 672 q 704 639 665 653 l 660 428 q 570 457 619 446 q 482 468 521 468 q 409 465 435 468 q 381 450 383 463 q 394 437 379 443 q 443 422 408 431 q 508 406 481 414 q 621 347 586 381 q 656 260 656 313 q 649 206 656 238 q 250 -14 601 -14 z "},"ś":{"ha":704,"x_min":-44,"x_max":731,"o":"m 472 1039 l 731 1039 l 518 725 l 272 725 l 472 1039 m 250 -14 q 77 -1 158 -14 q -44 33 -4 13 l 0 246 q 110 206 42 221 q 228 190 179 190 q 286 192 269 190 q 306 206 303 194 q 292 221 307 214 q 243 236 276 228 q 168 260 185 253 q 65 321 97 288 q 33 407 33 354 q 39 457 33 433 q 158 619 63 565 q 440 672 253 672 q 586 663 507 672 q 704 639 665 653 l 660 428 q 570 457 619 446 q 482 468 521 468 q 409 465 435 468 q 381 450 383 463 q 394 437 379 443 q 443 422 408 431 q 508 406 481 414 q 621 347 586 381 q 656 260 656 313 q 649 206 656 238 q 250 -14 601 -14 z "},"š":{"ha":704,"x_min":-44,"x_max":814,"o":"m 133 1025 l 363 1025 l 433 876 l 571 1025 l 814 1025 l 507 725 l 313 725 l 133 1025 m 250 -14 q 77 -1 158 -14 q -44 33 -4 13 l 0 246 q 110 206 42 221 q 228 190 179 190 q 286 192 269 190 q 306 206 303 194 q 292 221 307 214 q 243 236 276 228 q 168 260 185 253 q 65 321 97 288 q 33 407 33 354 q 39 457 33 433 q 158 619 63 565 q 440 672 253 672 q 586 663 507 672 q 704 639 665 653 l 660 428 q 570 457 619 446 q 482 468 521 468 q 409 465 435 468 q 381 450 383 463 q 394 437 379 443 q 443 422 408 431 q 508 406 481 414 q 621 347 586 381 q 656 260 656 313 q 649 206 656 238 q 250 -14 601 -14 z "},"ş":{"ha":704,"x_min":-44,"x_max":704,"o":"m 157 -333 q 91 -330 131 -333 q 38 -322 51 -326 l 61 -215 q 139 -226 97 -226 q 211 -214 185 -226 q 242 -178 238 -201 q 199 -139 251 -139 l 96 -139 l 158 -10 q -44 33 15 1 l 0 246 q 110 206 42 221 q 228 190 179 190 q 286 192 269 190 q 306 206 303 194 q 292 221 307 214 q 243 236 276 228 q 168 260 185 253 q 65 321 97 288 q 33 407 33 354 q 39 457 33 433 q 158 619 63 565 q 440 672 253 672 q 586 663 507 672 q 704 639 665 653 l 660 428 q 570 457 619 446 q 482 468 521 468 q 409 465 435 468 q 381 450 383 463 q 394 437 379 443 q 443 422 408 431 q 508 406 481 414 q 621 347 586 381 q 656 260 656 313 q 649 206 656 238 q 325 -10 607 11 l 303 -51 q 394 -80 361 -51 q 426 -154 426 -108 q 424 -185 426 -175 q 340 -294 408 -254 q 157 -333 272 -333 z "},"ŝ":{"ha":704,"x_min":-44,"x_max":764,"o":"m 389 1025 l 585 1025 l 764 725 l 540 725 l 465 874 l 333 725 l 83 725 l 389 1025 m 250 -14 q 77 -1 158 -14 q -44 33 -4 13 l 0 246 q 110 206 42 221 q 228 190 179 190 q 286 192 269 190 q 306 206 303 194 q 292 221 307 214 q 243 236 276 228 q 168 260 185 253 q 65 321 97 288 q 33 407 33 354 q 39 457 33 433 q 158 619 63 565 q 440 672 253 672 q 586 663 507 672 q 704 639 665 653 l 660 428 q 570 457 619 446 q 482 468 521 468 q 409 465 435 468 q 381 450 383 463 q 394 437 379 443 q 443 422 408 431 q 508 406 481 414 q 621 347 586 381 q 656 260 656 313 q 649 206 656 238 q 250 -14 601 -14 z "},"ș":{"ha":704,"x_min":-44,"x_max":704,"o":"m 250 -14 q 77 -1 158 -14 q -44 33 -4 13 l 0 246 q 110 206 42 221 q 228 190 179 190 q 286 192 269 190 q 306 206 303 194 q 292 221 307 214 q 243 236 276 228 q 168 260 185 253 q 65 321 97 288 q 33 407 33 354 q 39 457 33 433 q 158 619 63 565 q 440 672 253 672 q 586 663 507 672 q 704 639 665 653 l 660 428 q 570 457 619 446 q 482 468 521 468 q 409 465 435 468 q 381 450 383 463 q 394 437 379 443 q 443 422 408 431 q 508 406 481 414 q 621 347 586 381 q 656 260 656 313 q 649 206 656 238 q 250 -14 601 -14 m 132 -51 l 410 -51 l 279 -335 l 24 -335 l 132 -51 z "},"ṡ":{"ha":704,"x_min":-44,"x_max":704,"o":"m 342 963 l 558 963 l 517 767 l 301 767 l 342 963 m 250 -14 q 77 -1 158 -14 q -44 33 -4 13 l 0 246 q 110 206 42 221 q 228 190 179 190 q 286 192 269 190 q 306 206 303 194 q 292 221 307 214 q 243 236 276 228 q 168 260 185 253 q 65 321 97 288 q 33 407 33 354 q 39 457 33 433 q 158 619 63 565 q 440 672 253 672 q 586 663 507 672 q 704 639 665 653 l 660 428 q 570 457 619 446 q 482 468 521 468 q 409 465 435 468 q 381 450 383 463 q 394 437 379 443 q 443 422 408 431 q 508 406 481 414 q 621 347 586 381 q 656 260 656 313 q 649 206 656 238 q 250 -14 601 -14 z "},"ṣ":{"ha":704,"x_min":-44,"x_max":704,"o":"m 250 -14 q 77 -1 158 -14 q -44 33 -4 13 l 0 246 q 110 206 42 221 q 228 190 179 190 q 286 192 269 190 q 306 206 303 194 q 292 221 307 214 q 243 236 276 228 q 168 260 185 253 q 65 321 97 288 q 33 407 33 354 q 39 457 33 433 q 158 619 63 565 q 440 672 253 672 q 586 663 507 672 q 704 639 665 653 l 660 428 q 570 457 619 446 q 482 468 521 468 q 409 465 435 468 q 381 450 383 463 q 394 437 379 443 q 443 422 408 431 q 508 406 481 414 q 621 347 586 381 q 656 260 656 313 q 649 206 656 238 q 250 -14 601 -14 m 151 -100 l 368 -100 l 326 -296 l 110 -296 l 151 -100 z "},"ß":{"ha":913,"x_min":-36,"x_max":926,"o":"m 496 -14 q 395 -6 443 -14 q 324 17 347 3 l 369 231 q 408 222 383 225 q 451 218 432 218 q 531 288 517 218 q 532 303 532 293 q 469 343 532 343 l 394 343 l 439 551 l 497 551 q 603 624 586 551 q 604 638 604 629 q 522 689 604 689 q 442 663 471 689 q 406 597 414 638 l 279 0 l -36 0 l 96 622 q 250 887 135 801 q 565 972 365 972 q 769 936 688 972 q 888 840 850 900 q 926 706 926 779 q 919 642 926 676 q 796 453 892 514 q 856 401 836 431 q 875 322 875 372 q 871 271 875 300 q 496 -14 828 -14 z "},"ə":{"ha":788,"x_min":-1,"x_max":768,"o":"m 300 -14 q 82 54 165 -14 q -1 236 -1 122 q 7 307 -1 269 l 32 419 l 471 419 q 447 453 461 442 q 397 469 432 464 q 296 475 363 475 q 172 465 236 475 q 69 442 108 456 l 108 622 q 253 659 165 646 q 435 672 342 672 q 673 607 578 672 q 768 413 768 542 q 758 332 768 383 q 613 78 724 171 q 300 -14 501 -14 m 343 185 q 405 203 382 185 q 435 251 428 221 l 283 251 l 281 239 q 279 228 279 235 q 294 197 279 208 q 343 185 310 185 z "},"t":{"ha":550,"x_min":3,"x_max":604,"o":"m 271 -14 q 100 39 160 -14 q 40 186 40 92 q 49 258 40 221 l 82 417 l 3 417 l 54 658 l 133 658 l 161 788 l 511 856 l 469 658 l 604 658 l 546 417 l 418 417 l 389 276 q 388 260 388 271 q 442 218 388 218 q 528 232 486 218 l 483 24 q 271 -14 388 -14 z "},"ŧ":{"ha":550,"x_min":-32,"x_max":604,"o":"m 271 -14 q 39 174 39 -14 q 47 251 39 210 l -32 251 l 4 421 l 82 421 l 89 450 l 10 450 l 54 658 l 133 658 l 161 788 l 511 856 l 469 658 l 604 658 l 553 450 l 425 450 l 418 421 l 553 421 l 517 251 l 386 251 q 442 218 393 218 q 528 232 486 218 l 483 24 q 271 -14 388 -14 z "},"ť":{"ha":778,"x_min":3,"x_max":961,"o":"m 713 1121 l 961 1121 l 797 775 l 589 775 l 713 1121 m 271 -14 q 100 39 160 -14 q 40 186 40 92 q 49 258 40 221 l 82 417 l 3 417 l 54 658 l 133 658 l 161 788 l 511 856 l 469 658 l 604 658 l 546 417 l 418 417 l 389 276 q 388 260 388 271 q 442 218 388 218 q 528 232 486 218 l 483 24 q 271 -14 388 -14 z "},"ţ":{"ha":550,"x_min":3,"x_max":604,"o":"m 186 -333 q 120 -330 160 -333 q 67 -322 81 -326 l 90 -215 q 168 -226 126 -226 q 240 -214 214 -226 q 271 -178 267 -201 q 228 -139 281 -139 l 125 -139 l 190 -4 q 78 62 117 13 q 40 186 40 111 q 49 258 40 219 l 82 417 l 3 417 l 54 658 l 133 658 l 161 788 l 511 856 l 469 658 l 604 658 l 546 417 l 418 417 l 389 276 q 388 260 388 271 q 442 218 388 218 q 528 232 486 218 l 483 24 q 356 -8 428 0 l 332 -51 q 423 -80 390 -51 q 456 -154 456 -108 q 453 -185 456 -175 q 369 -294 438 -254 q 186 -333 301 -333 z "},"ț":{"ha":550,"x_min":3,"x_max":604,"o":"m 271 -14 q 100 39 160 -14 q 40 186 40 92 q 49 258 40 221 l 82 417 l 3 417 l 54 658 l 133 658 l 161 788 l 511 856 l 469 658 l 604 658 l 546 417 l 418 417 l 389 276 q 388 260 388 271 q 442 218 388 218 q 528 232 486 218 l 483 24 q 271 -14 388 -14 m 136 -51 l 385 -51 l 221 -397 l 13 -397 l 136 -51 z "},"ẗ":{"ha":567,"x_min":19,"x_max":694,"o":"m 153 1093 l 368 1093 l 326 897 l 111 897 l 153 1093 m 478 1093 l 694 1093 l 653 897 l 436 897 l 478 1093 m 288 -14 q 117 39 176 -14 q 57 186 57 92 q 65 258 57 221 l 99 417 l 19 417 l 71 658 l 150 658 l 178 788 l 528 856 l 486 658 l 621 658 l 563 417 l 435 417 l 406 276 q 404 260 404 271 q 458 218 404 218 q 544 232 503 218 l 500 24 q 288 -14 404 -14 z "},"ṭ":{"ha":550,"x_min":3,"x_max":604,"o":"m 271 -14 q 100 39 160 -14 q 40 186 40 92 q 49 258 40 221 l 82 417 l 3 417 l 54 658 l 133 658 l 161 788 l 511 856 l 469 658 l 604 658 l 546 417 l 418 417 l 389 276 q 388 260 388 271 q 442 218 388 218 q 528 232 486 218 l 483 24 q 271 -14 388 -14 m 106 -72 l 322 -72 l 281 -268 l 64 -268 l 106 -72 z "},"ṯ":{"ha":550,"x_min":-97,"x_max":604,"o":"m 271 -14 q 100 39 160 -14 q 40 186 40 92 q 49 258 40 221 l 82 417 l 3 417 l 54 658 l 133 658 l 161 788 l 511 856 l 469 658 l 604 658 l 546 417 l 418 417 l 389 276 q 388 260 388 271 q 442 218 388 218 q 528 232 486 218 l 483 24 q 271 -14 388 -14 m -56 -67 l 428 -67 l 386 -261 l -97 -261 l -56 -67 z "},"u":{"ha":869,"x_min":6,"x_max":882,"o":"m 201 -14 q 58 34 111 -14 q 6 171 6 82 q 14 242 6 204 l 103 658 l 439 658 l 358 278 q 357 263 357 272 q 394 233 357 233 q 430 242 410 233 q 461 261 450 250 l 546 658 l 882 658 l 743 0 l 428 0 l 428 38 q 325 0 385 14 q 201 -14 265 -14 z "},"ú":{"ha":869,"x_min":6,"x_max":882,"o":"m 553 1039 l 811 1039 l 599 725 l 353 725 l 553 1039 m 201 -14 q 58 34 111 -14 q 6 171 6 82 q 14 242 6 204 l 103 658 l 439 658 l 358 278 q 357 263 357 272 q 394 233 357 233 q 430 242 410 233 q 461 261 450 250 l 546 658 l 882 658 l 743 0 l 428 0 l 428 38 q 325 0 385 14 q 201 -14 265 -14 z "},"ŭ":{"ha":869,"x_min":6,"x_max":886,"o":"m 514 725 q 331 782 397 725 q 265 944 265 839 q 275 1031 265 988 l 479 1031 q 474 985 474 1010 q 543 908 474 908 q 620 942 592 908 q 661 1031 649 976 l 886 1031 q 755 804 854 883 q 514 725 656 725 m 201 -14 q 58 34 111 -14 q 6 171 6 82 q 14 242 6 204 l 103 658 l 439 658 l 358 278 q 357 263 357 272 q 394 233 357 233 q 430 242 410 233 q 461 261 450 250 l 546 658 l 882 658 l 743 0 l 428 0 l 428 38 q 325 0 385 14 q 201 -14 265 -14 z "},"ǔ":{"ha":869,"x_min":6,"x_max":908,"o":"m 228 1025 l 457 1025 l 528 876 l 665 1025 l 908 1025 l 601 725 l 407 725 l 228 1025 m 201 -14 q 58 34 111 -14 q 6 171 6 82 q 14 242 6 204 l 103 658 l 439 658 l 358 278 q 357 263 357 272 q 394 233 357 233 q 430 242 410 233 q 461 261 450 250 l 546 658 l 882 658 l 743 0 l 428 0 l 428 38 q 325 0 385 14 q 201 -14 265 -14 z "},"û":{"ha":869,"x_min":6,"x_max":882,"o":"m 471 1025 l 667 1025 l 846 725 l 622 725 l 547 874 l 415 725 l 165 725 l 471 1025 m 201 -14 q 58 34 111 -14 q 6 171 6 82 q 14 242 6 204 l 103 658 l 439 658 l 358 278 q 357 263 357 272 q 394 233 357 233 q 430 242 410 233 q 461 261 450 250 l 546 658 l 882 658 l 743 0 l 428 0 l 428 38 q 325 0 385 14 q 201 -14 265 -14 z "},"ü":{"ha":869,"x_min":6,"x_max":882,"o":"m 289 963 l 504 963 l 463 767 l 247 767 l 289 963 m 614 963 l 831 963 l 789 767 l 572 767 l 614 963 m 201 -14 q 58 34 111 -14 q 6 171 6 82 q 14 242 6 204 l 103 658 l 439 658 l 358 278 q 357 263 357 272 q 394 233 357 233 q 430 242 410 233 q 461 261 450 250 l 546 658 l 882 658 l 743 0 l 428 0 l 428 38 q 325 0 385 14 q 201 -14 265 -14 z "},"ǘ":{"ha":869,"x_min":6,"x_max":882,"o":"m 565 1207 l 813 1207 l 668 1006 l 446 1006 l 565 1207 m 289 963 l 500 963 l 461 778 l 250 778 l 289 963 m 607 963 l 818 963 l 779 778 l 568 778 l 607 963 m 201 -14 q 58 34 111 -14 q 6 171 6 82 q 14 242 6 204 l 103 658 l 439 658 l 358 278 q 357 263 357 272 q 394 233 357 233 q 430 242 410 233 q 461 261 450 250 l 546 658 l 882 658 l 743 0 l 428 0 l 428 38 q 325 0 385 14 q 201 -14 265 -14 z "},"ǚ":{"ha":869,"x_min":6,"x_max":926,"o":"m 285 1168 l 522 1168 l 579 1067 l 681 1168 l 926 1168 l 679 967 l 450 967 l 285 1168 m 283 924 l 494 924 l 456 739 l 244 739 l 283 924 m 601 924 l 811 924 l 772 739 l 563 739 l 601 924 m 201 -14 q 58 34 111 -14 q 6 171 6 82 q 14 242 6 204 l 103 658 l 439 658 l 358 278 q 357 263 357 272 q 394 233 357 233 q 430 242 410 233 q 461 261 450 250 l 546 658 l 882 658 l 743 0 l 428 0 l 428 38 q 325 0 385 14 q 201 -14 265 -14 z "},"ǜ":{"ha":869,"x_min":6,"x_max":882,"o":"m 408 1207 l 656 1207 l 692 1006 l 469 1006 l 408 1207 m 300 963 l 511 963 l 472 778 l 261 778 l 300 963 m 618 963 l 829 963 l 790 778 l 579 778 l 618 963 m 201 -14 q 58 34 111 -14 q 6 171 6 82 q 14 242 6 204 l 103 658 l 439 658 l 358 278 q 357 263 357 272 q 394 233 357 233 q 430 242 410 233 q 461 261 450 250 l 546 658 l 882 658 l 743 0 l 428 0 l 428 38 q 325 0 385 14 q 201 -14 265 -14 z "},"ǖ":{"ha":869,"x_min":6,"x_max":882,"o":"m 369 1194 l 853 1194 l 811 1000 l 328 1000 l 369 1194 m 285 935 l 500 935 l 458 739 l 243 739 l 285 935 m 610 935 l 826 935 l 785 739 l 568 739 l 610 935 m 201 -14 q 58 34 111 -14 q 6 171 6 82 q 14 242 6 204 l 103 658 l 439 658 l 358 278 q 357 263 357 272 q 394 233 357 233 q 430 242 410 233 q 461 261 450 250 l 546 658 l 882 658 l 743 0 l 428 0 l 428 38 q 325 0 385 14 q 201 -14 265 -14 z "},"ụ":{"ha":869,"x_min":6,"x_max":882,"o":"m 201 -14 q 58 34 111 -14 q 6 171 6 82 q 14 242 6 204 l 103 658 l 439 658 l 358 278 q 357 263 357 272 q 394 233 357 233 q 430 242 410 233 q 461 261 450 250 l 546 658 l 882 658 l 743 0 l 428 0 l 428 38 q 325 0 385 14 q 201 -14 265 -14 m 222 -100 l 439 -100 l 397 -296 l 181 -296 l 222 -100 z "},"ù":{"ha":869,"x_min":6,"x_max":882,"o":"m 336 1039 l 594 1039 l 661 725 l 415 725 l 336 1039 m 201 -14 q 58 34 111 -14 q 6 171 6 82 q 14 242 6 204 l 103 658 l 439 658 l 358 278 q 357 263 357 272 q 394 233 357 233 q 430 242 410 233 q 461 261 450 250 l 546 658 l 882 658 l 743 0 l 428 0 l 428 38 q 325 0 385 14 q 201 -14 265 -14 z "},"ủ":{"ha":869,"x_min":6,"x_max":882,"o":"m 411 838 q 540 892 531 844 q 531 922 546 913 q 479 931 515 931 q 399 917 438 931 l 426 1047 q 611 1068 506 1068 q 746 1035 699 1068 q 793 947 793 1001 q 790 919 793 939 q 744 826 776 858 q 646 775 711 794 l 635 725 l 388 725 l 411 838 m 201 -14 q 58 34 111 -14 q 6 171 6 82 q 14 242 6 204 l 103 658 l 439 658 l 358 278 q 357 263 357 272 q 394 233 357 233 q 430 242 410 233 q 461 261 450 250 l 546 658 l 882 658 l 743 0 l 428 0 l 428 38 q 325 0 385 14 q 201 -14 265 -14 z "},"ư":{"ha":1121,"x_min":6,"x_max":1221,"o":"m 201 -14 q 58 34 111 -14 q 6 171 6 82 q 14 242 6 204 l 103 658 l 439 658 l 358 278 q 357 263 357 272 q 394 233 357 233 q 430 242 410 233 q 461 261 450 250 l 546 658 l 882 658 l 872 611 q 951 645 926 617 q 986 744 975 674 l 1221 744 q 1149 548 1196 622 q 1024 438 1101 474 q 826 396 946 401 l 743 0 l 428 0 l 428 38 q 325 0 385 14 q 201 -14 265 -14 z "},"ứ":{"ha":1121,"x_min":6,"x_max":1221,"o":"m 578 1039 l 836 1039 l 624 725 l 378 725 l 578 1039 m 201 -14 q 58 34 111 -14 q 6 171 6 82 q 14 242 6 204 l 103 658 l 439 658 l 358 278 q 357 263 357 272 q 394 233 357 233 q 430 242 410 233 q 461 261 450 250 l 546 658 l 882 658 l 872 611 q 951 645 926 617 q 986 744 975 674 l 1221 744 q 1149 548 1196 622 q 1024 438 1101 474 q 826 396 946 401 l 743 0 l 428 0 l 428 38 q 325 0 385 14 q 201 -14 265 -14 z "},"ự":{"ha":1121,"x_min":6,"x_max":1221,"o":"m 201 -14 q 58 34 111 -14 q 6 171 6 82 q 14 242 6 204 l 103 658 l 439 658 l 358 278 q 357 263 357 272 q 394 233 357 233 q 430 242 410 233 q 461 261 450 250 l 546 658 l 882 658 l 872 611 q 951 645 926 617 q 986 744 975 674 l 1221 744 q 1149 548 1196 622 q 1024 438 1101 474 q 826 396 946 401 l 743 0 l 428 0 l 428 38 q 325 0 385 14 q 201 -14 265 -14 m 226 -100 l 443 -100 l 401 -296 l 185 -296 l 226 -100 z "},"ừ":{"ha":1121,"x_min":6,"x_max":1221,"o":"m 311 1039 l 569 1039 l 636 725 l 390 725 l 311 1039 m 201 -14 q 58 34 111 -14 q 6 171 6 82 q 14 242 6 204 l 103 658 l 439 658 l 358 278 q 357 263 357 272 q 394 233 357 233 q 430 242 410 233 q 461 261 450 250 l 546 658 l 882 658 l 872 611 q 951 645 926 617 q 986 744 975 674 l 1221 744 q 1149 548 1196 622 q 1024 438 1101 474 q 826 396 946 401 l 743 0 l 428 0 l 428 38 q 325 0 385 14 q 201 -14 265 -14 z "},"ử":{"ha":1121,"x_min":6,"x_max":1221,"o":"m 411 838 q 540 892 531 844 q 531 922 546 913 q 479 931 515 931 q 399 917 438 931 l 426 1047 q 611 1068 506 1068 q 746 1035 699 1068 q 793 947 793 1001 q 790 919 793 939 q 744 826 776 858 q 646 775 711 794 l 635 725 l 388 725 l 411 838 m 201 -14 q 58 34 111 -14 q 6 171 6 82 q 14 242 6 204 l 103 658 l 439 658 l 358 278 q 357 263 357 272 q 394 233 357 233 q 430 242 410 233 q 461 261 450 250 l 546 658 l 882 658 l 872 611 q 951 645 926 617 q 986 744 975 674 l 1221 744 q 1149 548 1196 622 q 1024 438 1101 474 q 826 396 946 401 l 743 0 l 428 0 l 428 38 q 325 0 385 14 q 201 -14 265 -14 z "},"ữ":{"ha":1121,"x_min":6,"x_max":1221,"o":"m 656 725 q 591 733 622 725 q 511 757 560 740 q 444 778 472 771 q 389 786 417 786 q 231 729 300 786 l 272 925 q 341 959 299 944 q 425 974 383 974 q 490 966 460 974 q 561 943 521 958 q 631 920 604 928 q 690 913 658 913 q 776 928 736 913 q 839 969 815 944 l 797 774 q 738 740 779 754 q 656 725 697 725 m 201 -14 q 58 34 111 -14 q 6 171 6 82 q 14 242 6 204 l 103 658 l 439 658 l 358 278 q 357 263 357 272 q 394 233 357 233 q 430 242 410 233 q 461 261 450 250 l 546 658 l 882 658 l 872 611 q 951 645 926 617 q 986 744 975 674 l 1221 744 q 1149 548 1196 622 q 1024 438 1101 474 q 826 396 946 401 l 743 0 l 428 0 l 428 38 q 325 0 385 14 q 201 -14 265 -14 z "},"ű":{"ha":869,"x_min":6,"x_max":993,"o":"m 333 1007 l 618 1007 l 401 725 l 142 725 l 333 1007 m 707 1007 l 993 1007 l 775 725 l 515 725 l 707 1007 m 201 -14 q 58 34 111 -14 q 6 171 6 82 q 14 242 6 204 l 103 658 l 439 658 l 358 278 q 357 263 357 272 q 394 233 357 233 q 430 242 410 233 q 461 261 450 250 l 546 658 l 882 658 l 743 0 l 428 0 l 428 38 q 325 0 385 14 q 201 -14 265 -14 z "},"ū":{"ha":869,"x_min":6,"x_max":882,"o":"m 325 975 l 808 975 l 767 781 l 283 781 l 325 975 m 201 -14 q 58 34 111 -14 q 6 171 6 82 q 14 242 6 204 l 103 658 l 439 658 l 358 278 q 357 263 357 272 q 394 233 357 233 q 430 242 410 233 q 461 261 450 250 l 546 658 l 882 658 l 743 0 l 428 0 l 428 38 q 325 0 385 14 q 201 -14 265 -14 z "},"ų":{"ha":869,"x_min":6,"x_max":882,"o":"m 467 -306 q 334 -278 381 -306 q 288 -194 288 -250 q 328 -81 288 -132 q 428 0 369 -31 l 428 38 q 325 0 385 14 q 201 -14 265 -14 q 58 34 111 -14 q 6 171 6 82 q 14 242 6 204 l 103 658 l 439 658 l 358 278 q 357 263 357 272 q 394 233 357 233 q 430 242 410 233 q 461 261 450 250 l 546 658 l 882 658 l 743 0 l 629 0 q 539 -106 553 -49 q 538 -117 538 -110 q 552 -142 538 -135 q 594 -149 567 -149 q 634 -144 613 -149 q 668 -133 656 -140 l 638 -281 q 560 -298 607 -290 q 467 -306 514 -306 z "},"ů":{"ha":869,"x_min":6,"x_max":882,"o":"m 507 725 q 379 768 425 725 q 333 879 333 811 q 338 924 333 901 q 423 1067 356 1011 q 592 1124 490 1124 q 722 1081 675 1124 q 768 969 768 1038 q 763 924 768 954 q 676 781 744 836 q 507 725 608 725 m 533 853 q 601 879 576 853 q 625 942 625 906 q 610 980 625 965 q 564 994 594 994 q 497 968 521 994 q 472 906 472 942 q 488 867 472 882 q 533 853 503 853 m 201 -14 q 58 34 111 -14 q 6 171 6 82 q 14 242 6 204 l 103 658 l 439 658 l 358 278 q 357 263 357 272 q 394 233 357 233 q 430 242 410 233 q 461 261 450 250 l 546 658 l 882 658 l 743 0 l 428 0 l 428 38 q 325 0 385 14 q 201 -14 265 -14 z "},"ũ":{"ha":869,"x_min":6,"x_max":882,"o":"m 651 732 q 587 740 618 732 q 507 764 556 747 q 440 785 468 778 q 385 793 413 793 q 226 736 296 793 l 268 932 q 337 966 294 951 q 421 981 379 981 q 486 973 456 981 q 557 950 517 965 q 627 927 600 935 q 686 919 654 919 q 772 935 732 919 q 835 976 811 951 l 793 781 q 734 747 775 761 q 651 732 693 732 m 201 -14 q 58 34 111 -14 q 6 171 6 82 q 14 242 6 204 l 103 658 l 439 658 l 358 278 q 357 263 357 272 q 394 233 357 233 q 430 242 410 233 q 461 261 450 250 l 546 658 l 882 658 l 743 0 l 428 0 l 428 38 q 325 0 385 14 q 201 -14 265 -14 z "},"v":{"ha":913,"x_min":82,"x_max":953,"o":"m 82 658 l 422 658 l 443 356 l 593 658 l 953 658 l 553 0 l 204 0 l 82 658 z "},"w":{"ha":1131,"x_min":82,"x_max":1171,"o":"m 82 658 l 401 658 l 410 433 l 478 556 l 499 658 l 740 658 l 751 433 l 851 658 l 1171 658 l 857 0 l 571 0 l 543 213 l 426 0 l 118 0 l 82 658 z "},"ẃ":{"ha":1131,"x_min":82,"x_max":1171,"o":"m 711 1039 l 969 1039 l 757 725 l 511 725 l 711 1039 m 82 658 l 401 658 l 410 433 l 478 556 l 499 658 l 740 658 l 751 433 l 851 658 l 1171 658 l 857 0 l 571 0 l 543 213 l 426 0 l 118 0 l 82 658 z "},"ŵ":{"ha":1131,"x_min":82,"x_max":1171,"o":"m 608 1025 l 804 1025 l 983 725 l 760 725 l 685 874 l 553 725 l 303 725 l 608 1025 m 82 658 l 401 658 l 410 433 l 478 556 l 499 658 l 740 658 l 751 433 l 851 658 l 1171 658 l 857 0 l 571 0 l 543 213 l 426 0 l 118 0 l 82 658 z "},"ẅ":{"ha":1131,"x_min":82,"x_max":1171,"o":"m 422 963 l 638 963 l 596 767 l 381 767 l 422 963 m 747 963 l 964 963 l 922 767 l 706 767 l 747 963 m 82 658 l 401 658 l 410 433 l 478 556 l 499 658 l 740 658 l 751 433 l 851 658 l 1171 658 l 857 0 l 571 0 l 543 213 l 426 0 l 118 0 l 82 658 z "},"ẁ":{"ha":1131,"x_min":82,"x_max":1171,"o":"m 433 1039 l 692 1039 l 758 725 l 513 725 l 433 1039 m 82 658 l 401 658 l 410 433 l 478 556 l 499 658 l 740 658 l 751 433 l 851 658 l 1171 658 l 857 0 l 571 0 l 543 213 l 426 0 l 118 0 l 82 658 z "},"x":{"ha":919,"x_min":-57,"x_max":949,"o":"m 269 335 l 93 658 l 456 658 l 503 572 l 586 658 l 949 658 l 635 335 l 821 0 l 454 0 l 401 94 l 310 0 l -57 0 l 269 335 z "},"y":{"ha":869,"x_min":-7,"x_max":882,"o":"m 192 -244 q 86 -240 154 -244 q -7 -231 18 -236 l 40 -12 q 110 -25 67 -19 q 186 -31 153 -31 q 360 -11 297 -31 q 428 38 422 8 l 433 60 q 330 22 389 36 q 207 8 271 8 q 65 58 117 8 q 13 196 13 108 q 19 264 13 235 l 103 658 l 439 658 l 363 300 q 361 288 361 296 q 400 256 361 256 q 435 264 415 256 q 467 283 456 272 l 546 658 l 882 658 l 765 108 q 597 -155 729 -65 q 192 -244 465 -244 z "},"ý":{"ha":869,"x_min":-7,"x_max":882,"o":"m 582 1039 l 840 1039 l 628 725 l 382 725 l 582 1039 m 192 -244 q 86 -240 154 -244 q -7 -231 18 -236 l 40 -12 q 110 -25 67 -19 q 186 -31 153 -31 q 360 -11 297 -31 q 428 38 422 8 l 433 60 q 330 22 389 36 q 207 8 271 8 q 65 58 117 8 q 13 196 13 108 q 19 264 13 235 l 103 658 l 439 658 l 363 300 q 361 288 361 296 q 400 256 361 256 q 435 264 415 256 q 467 283 456 272 l 546 658 l 882 658 l 765 108 q 597 -155 729 -65 q 192 -244 465 -244 z "},"ŷ":{"ha":869,"x_min":-7,"x_max":882,"o":"m 474 1025 l 669 1025 l 849 725 l 625 725 l 550 874 l 418 725 l 168 725 l 474 1025 m 192 -244 q 86 -240 154 -244 q -7 -231 18 -236 l 40 -12 q 110 -25 67 -19 q 186 -31 153 -31 q 360 -11 297 -31 q 428 38 422 8 l 433 60 q 330 22 389 36 q 207 8 271 8 q 65 58 117 8 q 13 196 13 108 q 19 264 13 235 l 103 658 l 439 658 l 363 300 q 361 288 361 296 q 400 256 361 256 q 435 264 415 256 q 467 283 456 272 l 546 658 l 882 658 l 765 108 q 597 -155 729 -65 q 192 -244 465 -244 z "},"ÿ":{"ha":869,"x_min":-7,"x_max":893,"o":"m 351 1001 l 567 1001 l 525 806 l 310 806 l 351 1001 m 676 1001 l 893 1001 l 851 806 l 635 806 l 676 1001 m 192 -244 q 86 -240 154 -244 q -7 -231 18 -236 l 40 -12 q 110 -25 67 -19 q 186 -31 153 -31 q 360 -11 297 -31 q 428 38 422 8 l 433 60 q 330 22 389 36 q 207 8 271 8 q 65 58 117 8 q 13 196 13 108 q 19 264 13 235 l 103 658 l 439 658 l 363 300 q 361 288 361 296 q 400 256 361 256 q 435 264 415 256 q 467 283 456 272 l 546 658 l 882 658 l 765 108 q 597 -155 729 -65 q 192 -244 465 -244 z "},"ẏ":{"ha":869,"x_min":-7,"x_max":882,"o":"m 449 963 l 665 963 l 624 767 l 408 767 l 449 963 m 192 -244 q 86 -240 154 -244 q -7 -231 18 -236 l 40 -12 q 110 -25 67 -19 q 186 -31 153 -31 q 360 -11 297 -31 q 428 38 422 8 l 433 60 q 330 22 389 36 q 207 8 271 8 q 65 58 117 8 q 13 196 13 108 q 19 264 13 235 l 103 658 l 439 658 l 363 300 q 361 288 361 296 q 400 256 361 256 q 435 264 415 256 q 467 283 456 272 l 546 658 l 882 658 l 765 108 q 597 -155 729 -65 q 192 -244 465 -244 z "},"ỵ":{"ha":869,"x_min":-7,"x_max":901,"o":"m 192 -244 q 86 -240 154 -244 q -7 -231 18 -236 l 40 -12 q 110 -25 67 -19 q 186 -31 153 -31 q 360 -11 297 -31 q 428 38 422 8 l 433 60 q 330 22 389 36 q 207 8 271 8 q 65 58 117 8 q 13 196 13 108 q 19 264 13 235 l 103 658 l 439 658 l 363 300 q 361 288 361 296 q 400 256 361 256 q 435 264 415 256 q 467 283 456 272 l 546 658 l 882 658 l 765 108 q 597 -155 729 -65 q 192 -244 465 -244 m 685 -100 l 901 -100 l 860 -296 l 643 -296 l 685 -100 z "},"ỳ":{"ha":869,"x_min":-7,"x_max":882,"o":"m 303 1039 l 561 1039 l 628 725 l 382 725 l 303 1039 m 192 -244 q 86 -240 154 -244 q -7 -231 18 -236 l 40 -12 q 110 -25 67 -19 q 186 -31 153 -31 q 360 -11 297 -31 q 428 38 422 8 l 433 60 q 330 22 389 36 q 207 8 271 8 q 65 58 117 8 q 13 196 13 108 q 19 264 13 235 l 103 658 l 439 658 l 363 300 q 361 288 361 296 q 400 256 361 256 q 435 264 415 256 q 467 283 456 272 l 546 658 l 882 658 l 765 108 q 597 -155 729 -65 q 192 -244 465 -244 z "},"ỷ":{"ha":869,"x_min":-7,"x_max":882,"o":"m 414 838 q 543 892 533 844 q 533 922 549 913 q 482 931 518 931 q 401 917 440 931 l 429 1047 q 614 1068 508 1068 q 749 1035 701 1068 q 796 947 796 1001 q 793 919 796 939 q 747 826 779 858 q 649 775 714 794 l 638 725 l 390 725 l 414 838 m 192 -244 q 86 -240 154 -244 q -7 -231 18 -236 l 40 -12 q 110 -25 67 -19 q 186 -31 153 -31 q 360 -11 297 -31 q 428 38 422 8 l 433 60 q 330 22 389 36 q 207 8 271 8 q 65 58 117 8 q 13 196 13 108 q 19 264 13 235 l 103 658 l 439 658 l 363 300 q 361 288 361 296 q 400 256 361 256 q 435 264 415 256 q 467 283 456 272 l 546 658 l 882 658 l 765 108 q 597 -155 729 -65 q 192 -244 465 -244 z "},"ỹ":{"ha":869,"x_min":-7,"x_max":882,"o":"m 657 732 q 592 740 624 732 q 513 764 561 747 q 446 785 474 778 q 390 793 418 793 q 232 736 301 793 l 274 932 q 342 966 300 951 q 426 981 385 981 q 492 973 461 981 q 563 950 522 965 q 633 927 606 935 q 692 919 660 919 q 777 935 738 919 q 840 976 817 951 l 799 781 q 740 747 781 761 q 657 732 699 732 m 192 -244 q 86 -240 154 -244 q -7 -231 18 -236 l 40 -12 q 110 -25 67 -19 q 186 -31 153 -31 q 360 -11 297 -31 q 428 38 422 8 l 433 60 q 330 22 389 36 q 207 8 271 8 q 65 58 117 8 q 13 196 13 108 q 19 264 13 235 l 103 658 l 439 658 l 363 300 q 361 288 361 296 q 400 256 361 256 q 435 264 415 256 q 467 283 456 272 l 546 658 l 882 658 l 765 108 q 597 -155 729 -65 q 192 -244 465 -244 z "},"z":{"ha":703,"x_min":-57,"x_max":732,"o":"m -21 176 l 249 401 l 35 401 l 89 658 l 732 658 l 690 464 l 433 242 l 654 242 l 604 0 l -57 0 l -21 176 z "},"ź":{"ha":703,"x_min":-57,"x_max":750,"o":"m 492 1039 l 750 1039 l 538 725 l 292 725 l 492 1039 m -21 176 l 249 401 l 35 401 l 89 658 l 732 658 l 690 464 l 433 242 l 654 242 l 604 0 l -57 0 l -21 176 z "},"ž":{"ha":703,"x_min":-57,"x_max":814,"o":"m 133 1025 l 363 1025 l 433 876 l 571 1025 l 814 1025 l 507 725 l 313 725 l 133 1025 m -21 176 l 249 401 l 35 401 l 89 658 l 732 658 l 690 464 l 433 242 l 654 242 l 604 0 l -57 0 l -21 176 z "},"ż":{"ha":703,"x_min":-57,"x_max":732,"o":"m 361 963 l 578 963 l 536 767 l 321 767 l 361 963 m -21 176 l 249 401 l 35 401 l 89 658 l 732 658 l 690 464 l 433 242 l 654 242 l 604 0 l -57 0 l -21 176 z "},"ẓ":{"ha":703,"x_min":-57,"x_max":732,"o":"m -21 176 l 249 401 l 35 401 l 89 658 l 732 658 l 690 464 l 433 242 l 654 242 l 604 0 l -57 0 l -21 176 m 124 -100 l 340 -100 l 299 -296 l 82 -296 l 124 -100 z "},"ﬁ":{"ha":861,"x_min":-7,"x_max":874,"o":"m 81 417 l 3 417 l 54 658 l 132 658 l 135 672 q 524 958 193 958 q 729 926 653 958 l 685 713 q 604 726 650 726 q 471 667 481 726 l 468 658 l 874 658 l 735 0 l 399 0 l 486 417 l 417 417 l 329 0 l -7 0 l 81 417 z "},"ﬂ":{"ha":861,"x_min":-7,"x_max":931,"o":"m 81 417 l 3 417 l 54 658 l 132 658 l 135 672 q 258 883 161 808 q 524 958 354 958 q 717 928 629 958 l 931 928 l 735 0 l 406 0 l 493 417 l 410 417 l 322 0 l -7 0 l 81 417 m 550 658 l 564 725 q 490 712 513 725 q 461 667 468 699 l 458 658 l 550 658 z "},"ª":{"ha":460,"x_min":76,"x_max":525,"o":"m 183 528 q 106 550 135 528 q 76 617 76 572 q 81 650 76 632 q 265 774 106 774 l 347 774 l 349 778 q 335 794 350 788 q 288 800 319 800 q 154 781 224 800 l 175 881 q 256 901 208 893 q 349 908 304 908 q 481 877 436 908 q 525 789 525 846 q 521 754 525 774 l 475 536 l 311 536 l 307 561 q 183 528 260 528 m 275 629 q 319 646 300 629 l 328 681 l 294 681 q 267 675 276 681 q 254 656 257 669 q 253 647 253 653 q 275 629 253 629 z "},"º":{"ha":501,"x_min":89,"x_max":560,"o":"m 283 528 q 141 565 193 528 q 89 672 89 601 q 94 718 89 685 q 181 861 115 814 q 365 908 246 908 q 510 873 461 908 q 560 769 560 838 q 554 718 560 742 q 469 575 535 622 q 283 528 404 528 m 313 661 q 346 674 333 661 q 364 718 358 688 q 368 744 368 733 q 336 775 368 775 q 303 763 315 775 q 285 718 292 750 q 282 693 282 699 q 290 669 282 676 q 313 661 297 661 z "},"ⁿ":{"ha":479,"x_min":64,"x_max":547,"o":"m 140 900 l 314 900 l 313 881 q 374 901 338 893 q 444 908 410 908 q 521 883 494 908 q 547 811 547 857 q 543 771 547 794 l 494 536 l 310 536 l 354 747 l 354 753 q 333 771 354 771 q 293 757 314 771 l 247 536 l 64 536 l 140 900 z "},"Δ":{"ha":878,"x_min":-57,"x_max":815,"o":"m -21 174 l 417 894 l 681 894 l 815 172 l 779 0 l -57 0 l -21 174 m 522 254 l 475 503 l 322 254 l 522 254 z "},"Ω":{"ha":1033,"x_min":-47,"x_max":1057,"o":"m 4 243 l 119 243 q 43 435 43 318 q 51 515 43 474 q 250 848 97 731 q 643 965 403 965 q 951 881 846 965 q 1057 638 1057 796 q 1043 515 1057 579 q 861 243 1004 332 l 976 243 l 925 0 l 465 0 l 518 254 q 637 356 596 297 q 696 494 678 414 q 704 564 704 535 q 583 681 704 681 q 390 494 429 681 q 382 418 382 456 q 401 326 382 367 q 465 254 421 286 l 413 0 l -47 0 l 4 243 z "},"μ":{"ha":876,"x_min":-72,"x_max":889,"o":"m 110 658 l 446 658 l 365 278 q 364 263 364 272 q 401 233 364 233 q 437 242 417 233 q 468 261 457 250 l 553 658 l 889 658 l 750 0 l 435 0 l 435 38 q 375 1 413 15 q 303 -14 338 -14 l 264 -199 l -72 -199 l 110 658 z "},"π":{"ha":979,"x_min":10,"x_max":965,"o":"m 686 -14 q 514 38 572 -14 q 456 182 456 89 q 464 258 456 217 l 492 388 l 428 388 l 346 0 l 10 0 l 92 388 l 11 388 l 68 658 l 965 658 l 908 388 l 828 388 l 804 276 q 803 260 803 271 q 857 218 803 218 q 943 232 901 218 l 899 24 q 686 -14 803 -14 z "},"ก":{"ha":906,"x_min":-43,"x_max":881,"o":"m 6 235 q 53 324 17 281 q 136 383 89 367 l 32 424 l 78 639 q 282 728 171 693 q 513 764 393 764 q 788 692 696 764 q 881 508 881 621 q 875 451 881 478 l 779 0 l 429 0 l 519 431 q 525 472 525 464 q 506 517 525 503 q 444 531 488 531 q 333 508 388 531 l 333 506 l 460 456 l 432 324 q 347 226 363 301 l 300 0 l -43 0 l 6 235 z "},"ถ":{"ha":906,"x_min":-17,"x_max":882,"o":"m 106 0 q 15 28 47 0 q -17 107 -17 57 q -12 144 -17 124 l 6 235 q 53 324 17 281 q 136 383 89 367 l 32 424 l 78 639 q 282 728 171 693 q 513 764 393 764 q 793 693 704 764 q 882 513 882 622 q 875 451 882 486 l 779 0 l 429 0 l 519 431 q 525 474 525 464 q 507 517 525 504 q 444 531 489 531 q 333 508 388 531 l 333 506 l 460 456 l 432 324 q 350 242 364 303 l 349 229 q 347 218 347 225 q 375 194 347 194 l 407 194 l 367 0 l 106 0 z "},"ภ":{"ha":938,"x_min":-57,"x_max":914,"o":"m -14 208 l 14 208 q 43 218 32 208 q 57 243 54 228 l 60 258 q 168 383 78 350 l 64 424 l 110 639 q 314 728 203 693 q 544 764 425 764 q 825 694 736 764 q 914 514 914 624 q 907 451 914 486 l 811 0 l 461 0 l 551 431 q 557 472 557 464 q 538 517 557 503 q 476 531 519 531 q 365 508 419 531 l 365 506 l 492 456 l 464 324 q 421 297 435 314 q 400 246 407 279 l 379 144 q 317 40 365 79 q 200 0 269 0 l -57 0 l -14 208 z "},"ฤ":{"ha":906,"x_min":-15,"x_max":881,"o":"m 519 431 q 525 472 525 464 q 506 517 525 503 q 444 531 488 531 q 333 508 388 531 l 333 506 l 460 456 l 432 324 q 350 242 357 300 l 349 229 l 349 219 q 375 194 349 194 l 407 194 l 367 0 l 106 0 q 17 31 50 0 q -15 113 -15 61 q -12 144 -15 133 l 6 235 q 52 324 15 281 q 136 383 89 367 l 32 424 l 78 639 q 513 764 293 764 q 722 728 639 764 q 842 635 804 693 q 881 507 881 578 q 875 451 881 475 l 731 -222 l 381 -222 l 519 431 z "},"ฦ":{"ha":938,"x_min":-57,"x_max":913,"o":"m 551 431 q 557 475 557 453 q 539 517 557 504 q 476 531 521 531 q 365 508 419 531 l 365 506 l 492 456 l 464 324 q 421 297 435 314 q 400 246 407 279 l 379 144 q 317 40 365 79 q 200 0 269 0 l -57 0 l -14 208 l 14 208 q 43 218 32 208 q 57 243 54 228 l 60 258 q 94 335 68 304 q 168 383 121 367 l 64 424 l 110 639 q 314 728 203 693 q 544 764 425 764 q 752 728 669 764 q 874 633 835 692 q 913 506 913 575 q 907 451 913 475 l 763 -222 l 413 -222 l 551 431 z "},"ฎ":{"ha":938,"x_min":-57,"x_max":914,"o":"m 97 -46 q 214 -15 158 -25 q 339 -6 269 -6 q 406 -10 369 -6 q 457 -19 442 -14 l 551 431 q 557 472 557 464 q 538 517 557 503 q 476 531 519 531 q 365 508 419 531 l 365 506 l 492 456 l 464 324 q 422 297 435 315 q 400 246 408 279 l 379 144 q 315 39 364 78 q 188 0 265 0 l -57 0 l -14 208 l 14 208 q 43 218 32 208 q 57 243 54 228 l 60 258 q 95 335 69 304 q 168 383 121 367 l 64 424 l 110 639 q 314 728 203 693 q 544 764 425 764 q 822 693 731 764 q 914 511 914 622 q 907 451 914 483 l 753 -269 l 461 -269 q 381 -240 424 -249 q 278 -231 339 -231 q 161 -243 221 -231 q 49 -278 101 -256 l 97 -46 z "},"ฏ":{"ha":938,"x_min":-57,"x_max":913,"o":"m 488 -279 q 268 -218 346 -279 q 93 -268 206 -268 l -17 -268 l 46 -58 l 104 -58 q 151 -49 135 -58 q 178 -17 168 -39 l 374 -17 q 383 -47 374 -36 q 413 -58 393 -58 q 457 -15 447 -58 l 551 431 q 557 472 557 464 q 538 517 557 503 q 476 531 519 531 q 365 508 419 531 l 365 506 l 492 456 l 464 324 q 422 297 435 315 q 400 246 408 279 l 379 144 q 311 40 365 81 q 188 0 257 0 l -57 0 l -14 208 l 14 208 q 43 218 32 208 q 57 243 54 228 l 60 258 q 95 335 69 304 q 168 383 121 367 l 64 424 l 110 639 q 314 728 203 693 q 544 764 425 764 q 749 730 667 764 q 872 638 832 696 q 913 507 913 579 q 907 451 913 475 l 810 -4 q 706 -208 782 -136 q 488 -279 629 -279 z "},"ญ":{"ha":1349,"x_min":-17,"x_max":1379,"o":"m 840 -125 q 640 -103 744 -125 q 494 -54 536 -81 l 538 150 q 681 99 582 122 q 849 76 779 76 q 999 121 989 76 l 999 126 q 994 142 999 133 q 826 126 928 126 q 589 192 675 126 q 503 371 503 257 q 508 429 503 403 l 511 444 q 515 482 515 465 q 499 519 515 508 q 439 531 482 531 q 333 508 388 531 l 333 506 l 460 456 l 432 324 q 350 242 357 300 l 349 229 l 349 219 q 375 194 349 194 l 407 194 l 367 0 l 106 0 q 15 29 47 0 q -17 110 -17 58 q -12 144 -17 126 l 6 235 q 52 324 15 281 q 136 383 89 367 l 32 424 l 78 639 q 278 728 168 693 q 507 764 388 764 q 700 729 622 764 q 815 639 778 694 q 851 521 851 583 q 844 465 851 488 l 840 450 q 835 414 835 432 q 893 367 835 367 q 952 385 935 367 q 979 450 969 403 l 1043 750 l 1379 750 l 1313 435 q 1221 261 1290 331 q 1260 147 1260 215 q 1254 99 1260 121 q 1136 -72 1231 -18 q 840 -125 1042 -125 z "},"ข":{"ha":860,"x_min":15,"x_max":892,"o":"m 342 -14 q 104 49 193 -14 q 15 218 15 113 q 21 274 15 247 l 26 299 q 53 365 35 336 q 103 429 72 394 q 129 460 117 444 q 143 489 142 476 q 144 503 144 494 q 138 519 144 514 q 114 525 131 525 l 54 525 l 128 750 l 375 750 q 510 647 510 750 q 506 606 510 629 q 475 533 497 567 q 415 457 453 500 q 367 397 385 422 q 344 347 350 372 l 339 321 q 336 300 336 307 q 351 267 336 278 q 400 257 367 257 q 467 276 444 257 q 496 331 489 296 l 585 750 l 892 750 l 792 279 q 651 60 761 133 q 342 -14 540 -14 z "},"ฃ":{"ha":893,"x_min":40,"x_max":925,"o":"m 375 -14 q 201 13 276 -14 q 85 90 126 40 q 43 201 43 139 q 47 239 43 221 l 51 261 q 95 344 61 306 q 183 431 129 383 q 230 474 214 457 q 249 503 246 490 q 250 514 250 507 q 232 529 250 529 q 218 526 224 529 q 206 515 213 522 l 194 464 l 40 464 l 101 750 l 279 750 l 271 711 q 340 738 296 725 q 422 750 385 750 q 523 722 489 750 q 557 644 557 694 q 553 606 557 626 q 514 515 542 554 q 442 429 486 475 q 394 374 408 393 q 375 335 379 356 l 372 321 q 369 300 369 307 q 385 267 369 278 q 433 257 400 257 q 497 277 472 257 q 529 331 522 297 l 618 750 l 925 750 l 825 279 q 375 -14 763 -14 z "},"ช":{"ha":883,"x_min":13,"x_max":917,"o":"m 353 -14 q 102 46 192 -14 q 13 208 13 106 q 19 264 13 232 l 25 289 q 53 360 33 329 q 104 429 72 392 q 132 463 122 450 q 143 489 142 476 q 144 503 144 494 q 138 519 144 514 q 114 525 131 525 l 54 525 l 128 750 l 361 750 q 462 722 428 750 q 496 643 496 694 q 492 606 496 626 q 463 529 482 561 q 408 456 443 497 q 365 397 381 421 q 343 343 350 372 l 338 319 q 336 306 336 314 q 356 269 336 282 q 411 257 375 257 q 482 273 454 257 q 515 319 510 289 l 521 344 q 524 363 524 358 q 512 392 524 382 q 481 403 500 403 l 454 403 l 515 628 l 532 628 q 575 645 561 628 q 599 710 589 663 l 610 764 l 917 764 l 908 721 q 865 596 894 646 q 782 515 835 546 q 832 393 832 474 q 826 339 832 363 l 815 285 q 669 66 788 146 q 353 -14 550 -14 z "},"ซ":{"ha":881,"x_min":26,"x_max":914,"o":"m 361 -14 q 120 40 213 -14 q 28 193 28 94 q 33 239 28 206 l 38 261 q 78 344 47 306 q 160 431 110 383 q 221 503 217 482 q 222 514 222 507 q 204 529 222 529 q 190 526 196 529 q 178 515 185 522 l 167 464 l 26 464 l 88 750 l 265 750 l 257 711 q 322 738 285 726 q 401 750 360 750 q 484 719 454 750 q 514 639 514 689 q 510 606 514 622 q 473 503 497 544 q 411 417 449 461 q 376 370 388 388 q 361 335 365 353 l 358 321 q 356 300 356 307 q 371 267 356 278 q 419 257 386 257 q 487 276 465 257 q 515 331 508 296 l 522 363 q 525 389 525 372 q 493 421 525 421 l 475 421 l 532 628 l 544 628 q 580 644 568 628 q 601 710 592 660 l 613 764 l 914 764 l 906 721 q 860 594 889 644 q 779 515 832 544 q 829 394 829 475 q 824 339 829 365 l 811 279 q 663 65 783 143 q 361 -14 542 -14 z "},"ค":{"ha":922,"x_min":-29,"x_max":894,"o":"m 61 425 q 544 764 132 764 q 802 693 710 764 q 894 499 894 622 q 886 425 894 465 l 796 0 l 460 0 l 543 396 q 549 435 549 426 q 534 469 549 460 q 485 479 519 479 q 422 461 443 479 q 390 396 401 443 l 382 360 q 450 372 407 372 l 500 372 l 450 142 l 396 142 q 333 129 361 142 l 307 0 l -29 0 l 61 425 z "},"ฅ":{"ha":922,"x_min":-29,"x_max":918,"o":"m 86 546 q 357 764 132 764 q 456 747 410 764 q 529 693 501 729 q 625 747 571 729 q 733 764 679 764 q 871 722 824 764 q 918 606 918 681 q 911 546 918 581 l 796 0 l 460 0 l 551 436 q 556 464 556 453 q 551 476 556 472 q 538 479 547 479 q 503 454 521 479 l 456 454 q 448 474 451 468 q 433 479 444 479 q 411 470 418 479 q 399 436 404 461 l 382 360 q 447 372 414 372 l 500 372 l 450 142 l 396 142 q 333 128 361 142 l 307 0 l -29 0 l 86 546 z "},"ศ":{"ha":961,"x_min":-29,"x_max":1028,"o":"m 61 425 q 544 764 132 764 q 674 750 608 764 l 1028 750 l 963 519 l 883 519 q 892 471 892 497 q 886 425 892 456 l 796 0 l 460 0 l 543 396 q 549 435 549 426 q 534 469 549 460 q 485 479 519 479 q 422 461 443 479 q 390 396 401 443 l 382 360 q 450 372 407 372 l 500 372 l 450 142 l 396 142 q 333 129 361 142 l 307 0 l -29 0 l 61 425 z "},"ด":{"ha":926,"x_min":3,"x_max":903,"o":"m 276 -14 q 78 47 154 -14 q 3 235 3 108 q 15 342 3 283 q 110 577 46 485 q 283 717 174 669 q 557 764 392 764 q 750 731 672 764 q 865 641 828 697 q 903 515 903 585 q 897 458 903 485 l 800 0 l 479 0 l 563 393 q 567 424 567 410 q 489 479 567 479 q 403 447 435 479 q 358 342 372 415 q 350 275 350 300 q 365 231 350 243 q 418 218 381 218 q 490 231 457 218 l 444 17 q 276 -14 376 -14 z "},"ต":{"ha":944,"x_min":6,"x_max":943,"o":"m 276 -14 q 80 49 154 -14 q 6 240 6 111 q 18 354 6 292 q 159 663 63 561 q 396 764 256 764 q 483 747 447 764 q 547 693 519 731 q 644 747 588 729 q 754 764 700 764 q 892 722 840 764 q 943 610 943 679 q 939 569 943 590 l 818 0 l 497 0 l 588 429 q 592 456 592 444 q 567 479 592 479 q 544 472 556 479 q 525 454 532 465 l 461 454 q 433 479 454 479 q 391 447 411 479 q 358 354 371 414 q 349 283 349 306 q 365 234 349 250 q 418 218 381 218 q 490 231 457 218 l 444 17 q 276 -14 376 -14 z "},"ท":{"ha":908,"x_min":-29,"x_max":897,"o":"m 129 750 l 442 750 l 442 706 q 553 747 489 731 q 683 764 617 764 q 843 715 789 764 q 897 579 897 665 q 889 508 897 546 l 782 0 l 446 0 l 542 456 q 544 475 544 469 q 492 517 544 517 q 448 508 475 517 q 410 489 421 500 l 307 0 l -29 0 l 129 750 z "},"ฑ":{"ha":901,"x_min":0,"x_max":889,"o":"m 42 201 q 89 311 54 264 q 182 418 124 358 q 230 467 214 449 q 249 503 246 486 q 250 513 250 507 q 232 529 250 529 q 206 515 219 529 l 194 464 l 40 464 l 101 750 l 279 750 l 271 711 q 335 738 297 726 q 408 750 372 750 q 510 719 471 750 q 589 751 540 739 q 685 764 638 764 q 835 713 782 764 q 889 574 889 661 q 882 508 889 538 l 775 0 l 440 0 l 549 511 l 550 518 q 536 529 550 529 q 527 527 532 529 q 518 522 522 525 q 490 433 507 467 q 447 357 474 399 q 405 286 421 318 q 379 204 389 254 l 336 0 l 0 0 l 42 201 z "},"น":{"ha":908,"x_min":14,"x_max":940,"o":"m 226 -14 q 74 40 133 -14 q 14 182 14 93 q 21 242 14 207 l 129 750 l 465 750 l 369 294 q 367 274 367 278 q 419 233 367 233 q 463 242 436 233 q 500 261 489 250 l 604 750 l 940 750 l 782 0 l 469 0 l 468 44 q 357 3 421 19 q 226 -14 293 -14 z "},"ม":{"ha":908,"x_min":-29,"x_max":940,"o":"m 518 -14 q 394 3 451 -14 q 301 44 338 19 l 283 0 l -29 0 l 129 750 l 465 750 l 361 261 q 391 242 368 250 q 431 233 414 233 q 508 294 494 233 l 604 750 l 940 750 l 832 242 q 726 51 806 117 q 518 -14 647 -14 z "},"ฌ":{"ha":1333,"x_min":-17,"x_max":1365,"o":"m 943 -14 q 740 44 821 -14 l 722 0 l 417 0 l 507 431 q 513 472 513 464 q 495 517 513 504 q 439 531 478 531 q 333 508 388 531 l 333 506 l 460 456 l 432 324 q 350 242 364 303 l 349 229 q 347 218 347 225 q 375 194 347 194 l 407 194 l 367 0 l 106 0 q 15 28 47 0 q -17 107 -17 57 q -12 144 -17 124 l 6 235 q 53 324 17 281 q 136 383 89 367 l 32 424 l 78 639 q 278 729 175 694 q 507 764 382 764 q 765 697 681 764 q 849 519 849 629 q 842 451 849 481 l 800 261 q 825 242 807 250 q 863 233 843 233 q 910 248 893 233 q 933 294 926 263 l 1029 750 l 1365 750 l 1257 242 q 1145 53 1232 121 q 943 -14 1058 -14 z "},"ณ":{"ha":1340,"x_min":-17,"x_max":1372,"o":"m 672 -14 q 516 36 572 -14 q 460 175 460 86 q 467 242 460 213 l 507 431 q 514 478 514 461 q 497 518 514 506 q 439 531 481 531 q 333 508 388 531 l 333 506 l 460 456 l 432 324 q 350 242 364 303 l 349 229 q 347 218 347 225 q 375 194 347 194 l 407 194 l 367 0 l 106 0 q 15 28 47 0 q -17 107 -17 57 q -12 144 -17 124 l 6 235 q 53 324 17 281 q 136 383 89 367 l 32 424 l 78 639 q 507 764 293 764 q 769 696 682 764 q 856 518 856 628 q 849 451 856 479 l 815 294 q 813 271 813 278 q 858 233 813 233 q 897 242 874 233 q 932 261 921 250 l 1036 750 l 1372 750 l 1214 0 l 901 0 l 900 44 q 672 -14 793 -14 z "},"ฒ":{"ha":1406,"x_min":6,"x_max":1438,"o":"m 276 -14 q 81 49 157 -14 q 6 243 6 113 q 18 354 6 294 q 396 764 104 764 q 483 747 447 764 q 547 693 519 731 q 644 747 588 729 q 754 764 700 764 q 895 725 846 764 q 944 617 944 686 q 939 569 944 592 l 872 261 q 899 242 879 250 q 935 233 919 233 q 982 248 965 233 q 1006 294 999 263 l 1101 750 l 1438 750 l 1329 242 q 1224 51 1303 117 q 1015 -14 1144 -14 q 901 2 953 -14 q 813 44 849 18 l 794 0 l 497 0 l 588 429 q 592 456 592 444 q 567 479 592 479 q 544 472 556 479 q 525 454 532 465 l 461 454 q 433 479 454 479 q 391 447 411 479 q 358 354 371 414 q 346 274 346 294 q 362 231 346 244 q 418 218 378 218 q 490 231 457 218 l 444 17 q 276 -14 376 -14 z "},"ฆ":{"ha":914,"x_min":-17,"x_max":946,"o":"m 524 -14 q 403 2 457 -14 q 314 44 350 18 l 296 0 l -17 0 l 28 211 q 79 317 40 269 q 179 422 118 365 q 228 469 211 450 q 249 503 246 489 q 250 514 250 507 q 232 529 250 529 q 218 526 224 529 q 206 515 213 522 l 194 464 l 40 464 l 101 750 l 308 750 l 300 711 q 447 750 375 750 q 539 719 506 750 q 572 638 572 689 q 567 597 572 625 q 522 482 550 524 q 450 396 494 440 q 403 343 418 364 q 381 292 388 322 l 374 261 q 403 242 381 250 q 443 233 426 233 q 521 294 507 233 l 617 750 l 946 750 l 838 242 q 524 -14 782 -14 z "},"ธ":{"ha":788,"x_min":-33,"x_max":796,"o":"m 319 -14 q 121 5 215 -14 q -33 54 26 24 l 18 299 l 297 299 l 281 219 q 311 213 289 215 q 350 211 333 211 q 432 247 425 211 q 403 281 436 268 q 286 315 369 294 l 221 331 q 96 393 140 351 q 51 496 51 435 q 56 533 51 515 q 176 706 78 647 q 490 764 275 764 q 672 754 590 764 q 796 731 753 744 l 750 513 q 641 542 711 531 q 515 553 571 553 q 427 549 453 553 q 397 529 401 546 q 431 505 396 517 q 536 475 465 493 l 600 458 q 711 399 676 436 q 746 301 746 361 q 739 239 746 267 q 612 49 711 111 q 319 -14 513 -14 z "},"ร":{"ha":704,"x_min":-44,"x_max":724,"o":"m 250 -14 q 77 -1 158 -14 q -44 33 -4 13 l 1 253 q 113 213 44 229 q 229 197 182 197 q 291 204 272 197 q 310 229 310 211 q 293 255 310 244 q 235 281 276 265 q 178 304 175 306 q 78 371 110 333 q 47 464 47 408 q 54 524 47 496 q 177 699 78 635 q 460 764 276 764 q 607 753 531 764 q 724 731 683 743 l 678 513 q 586 542 639 531 q 493 553 533 553 q 424 547 449 553 q 397 524 400 540 q 412 494 393 506 q 479 465 431 482 l 518 450 q 628 384 596 419 q 661 292 661 349 q 653 224 661 261 q 531 49 628 113 q 250 -14 433 -14 z "},"จ":{"ha":804,"x_min":-10,"x_max":797,"o":"m 310 -14 q 199 -5 254 -14 q 118 18 143 4 l 85 226 l -10 226 l 51 457 l 324 457 l 360 239 q 443 379 421 279 q 450 439 450 417 q 417 511 450 489 q 303 533 383 533 q 49 496 194 533 l 94 711 q 269 751 178 738 q 436 764 360 764 q 708 692 618 764 q 797 488 797 621 q 785 378 797 436 q 688 162 757 250 q 520 30 618 74 q 310 -14 422 -14 z "},"ว":{"ha":767,"x_min":-49,"x_max":760,"o":"m 249 -14 q 83 -1 156 -14 q -49 42 10 11 l 13 331 q 116 287 58 303 q 225 271 174 271 q 353 292 314 271 q 404 375 392 313 q 408 407 408 392 q 376 464 408 449 q 272 479 343 479 q 153 467 214 479 q 38 432 92 456 l 96 708 q 417 764 243 764 q 760 492 760 764 q 747 375 760 438 q 658 149 718 233 q 498 25 597 64 q 249 -14 399 -14 z "},"ง":{"ha":888,"x_min":56,"x_max":885,"o":"m 358 -14 q 245 -5 306 -14 q 146 19 185 4 l 56 532 l 367 532 l 424 211 q 487 273 460 225 q 529 394 514 321 q 535 443 535 421 q 513 503 535 485 q 447 521 490 521 l 397 521 l 446 750 l 574 750 q 803 683 722 750 q 885 494 885 617 q 872 396 885 449 q 695 85 825 185 q 358 -14 565 -14 z "},"ฐ":{"ha":861,"x_min":-112,"x_max":928,"o":"m 310 -14 q 199 -5 254 -14 q 118 18 143 4 l 85 226 l -10 226 l 51 457 l 324 457 l 360 239 q 443 379 422 281 q 451 440 451 415 q 417 512 451 490 q 303 533 383 533 q 49 496 194 533 l 94 711 q 269 751 178 738 q 436 764 360 764 q 578 750 508 764 l 928 750 l 863 519 l 782 519 q 793 447 793 483 q 785 378 793 414 q 688 162 757 250 q 520 30 618 74 q 310 -14 422 -14 m 353 -311 q 181 -262 238 -311 q 117 -298 154 -286 q 46 -310 81 -310 l -112 -310 l -56 -90 l 56 -90 q 98 -83 85 -90 q 122 -53 111 -75 l 307 -53 q 356 -99 310 -99 q 394 -87 378 -99 q 415 -56 411 -75 l 422 -22 l 679 -22 l 671 -62 q 569 -242 649 -172 q 353 -311 489 -311 z "},"ฉ":{"ha":872,"x_min":-8,"x_max":839,"o":"m 197 -14 q 47 38 103 -14 q -8 176 -8 89 q -1 242 -8 214 l 36 417 l 372 417 l 347 294 q 344 269 344 275 q 356 242 344 250 q 390 233 367 233 q 431 241 411 233 q 464 261 451 249 l 490 379 q 497 438 497 417 q 461 511 497 489 q 342 533 425 533 q 197 523 285 533 q 47 496 110 513 l 93 711 q 278 751 176 738 q 475 764 381 764 q 750 697 661 764 q 839 496 839 629 q 825 378 839 439 l 746 0 l 433 0 l 432 44 q 197 -14 325 -14 z "},"ล":{"ha":863,"x_min":-15,"x_max":838,"o":"m 207 -14 q 47 32 108 -14 q -15 171 -15 78 q -8 235 -15 206 q 112 422 18 358 q 353 485 206 485 l 518 485 l 521 500 q 397 538 528 538 q 263 526 336 538 q 125 497 190 515 l 169 711 q 333 750 236 736 q 518 764 429 764 q 755 699 672 764 q 838 518 838 635 q 829 439 838 481 l 736 0 l 415 0 l 476 289 l 407 289 q 355 277 372 289 q 332 236 338 265 q 329 219 329 225 q 340 196 329 204 q 368 188 350 188 q 417 194 389 188 l 378 11 q 207 -14 308 -14 z "},"ส":{"ha":901,"x_min":-15,"x_max":968,"o":"m 207 -14 q 47 32 108 -14 q -15 171 -15 78 q -8 235 -15 206 q 112 422 18 358 q 353 485 206 485 l 518 485 l 521 500 q 397 538 528 538 q 263 526 336 538 q 125 497 190 515 l 169 711 q 333 750 236 736 q 518 764 429 764 q 646 750 583 764 l 968 750 l 903 519 l 828 519 q 833 476 833 497 q 829 439 833 458 l 736 0 l 415 0 l 476 289 l 407 289 q 355 277 372 289 q 332 236 338 265 q 329 219 329 225 q 340 196 329 204 q 368 188 350 188 q 417 194 389 188 l 378 11 q 207 -14 308 -14 z "},"บ":{"ha":922,"x_min":35,"x_max":954,"o":"m 379 -14 q 127 61 219 -14 q 35 264 35 136 q 43 343 35 301 l 129 750 l 465 750 l 382 354 q 375 306 375 322 q 389 268 375 279 q 438 257 403 257 q 503 278 485 257 q 535 354 522 299 l 618 750 l 954 750 l 867 339 q 785 140 842 217 q 631 24 729 63 q 379 -14 532 -14 z "},"ป":{"ha":922,"x_min":35,"x_max":1001,"o":"m 379 -14 q 127 61 219 -14 q 35 264 35 136 q 43 343 35 301 l 129 750 l 465 750 l 382 354 q 375 306 375 322 q 389 268 375 279 q 438 257 403 257 q 503 278 485 257 q 535 354 522 299 l 665 972 l 1001 972 l 867 339 q 784 139 840 215 q 630 24 728 63 q 379 -14 532 -14 z "}}}
